<?xml version="1.0" encoding="us-ascii" standalone="no"?><svg xmlns="http://www.w3.org/2000/svg" xmlns:xlink="http://www.w3.org/1999/xlink" contentStyleType="text/css" height="563.5417px" preserveAspectRatio="none" style="width:612px;height:563px;" version="1.1" viewBox="0 0 612 563" width="612.5px" zoomAndPan="magnify"><defs><linearGradient id="g1jhdhfucei0y60" x1="50%" x2="50%" y1="0%" y2="100%"><stop offset="0%" stop-color="#B8B8B8"/><stop offset="100%" stop-color="#999999"/></linearGradient><linearGradient id="g1jhdhfucei0y61" x1="50%" x2="50%" y1="0%" y2="100%"><stop offset="0%" stop-color="#7C9AB9"/><stop offset="100%" stop-color="#304D6D"/></linearGradient><linearGradient id="g1jhdhfucei0y62" x1="50%" x2="50%" y1="0%" y2="100%"><stop offset="0%" stop-color="#B8B8B8"/><stop offset="100%" stop-color="#6B6B6B"/></linearGradient></defs><g><rect fill="url(#g1jhdhfucei0y60)" height="48.2361" id="_title" rx="4.1667" ry="4.1667" style="stroke:#6B6B6B;stroke-width:1.0416666666666667;" width="229.1667" x="190.1042" y="20.8333"/><text fill="#304D6D" font-family="Verdana" font-size="20.8333" font-weight="bold" lengthAdjust="spacing" textLength="206.25" x="201.5625" y="53.2369">L&#233;gende g&#233;n&#233;rale</text><ellipse cx="309.6354" cy="90.9444" fill="#3399F3" rx="10.4167" ry="10.4167" style="stroke:#304D6D;stroke-width:1.0416666666666667;"/><rect fill="url(#g1jhdhfucei0y61)" height="38.1083" rx="4.1667" ry="4.1667" style="stroke:#304D6D;stroke-width:1.0416666666666667;" width="164.5833" x="227.3438" y="122.1944"/><text fill="#FFFFFF" font-family="Verdana" font-size="12.5" lengthAdjust="spacing" textLength="141.6667" x="238.8021" y="146.2199">Exemple de rectangle</text><polygon fill="url(#g1jhdhfucei0y62)" points="234.6354,181.1361,384.6354,181.1361,397.1354,193.9402,384.6354,206.7444,234.6354,206.7444,222.1354,193.9402,234.6354,181.1361" style="stroke:#6B6B6B;stroke-width:1.0416666666666667;"/><text fill="#FFFFFF" font-family="Verdana" font-size="12.5" lengthAdjust="spacing" textLength="139.5833" x="239.8438" y="198.9115">Exemple de losange?</text><text fill="#FFFFFF" font-family="Verdana" font-size="12.5" lengthAdjust="spacing" textLength="21.875" x="195.0521" y="186.1074">Oui</text><text fill="#FFFFFF" font-family="Verdana" font-size="12.5" lengthAdjust="spacing" textLength="26.0417" x="402.3438" y="186.1074">Non</text><rect fill="url(#g1jhdhfucei0y61)" height="38.1083" rx="4.1667" ry="4.1667" style="stroke:#304D6D;stroke-width:1.0416666666666667;" width="121.875" x="150.7813" y="217.1611"/><text fill="#FFFFFF" font-family="Verdana" font-size="12.5" lengthAdjust="spacing" textLength="98.9583" x="162.2396" y="241.1865">&#201;tape suivante</text><rect fill="url(#g1jhdhfucei0y61)" height="38.1083" rx="4.1667" ry="4.1667" style="stroke:#304D6D;stroke-width:1.0416666666666667;" width="108.3333" x="353.3854" y="217.1611"/><text fill="#FFFFFF" font-family="Verdana" font-size="12.5" lengthAdjust="spacing" textLength="85.4167" x="364.8438" y="241.1865">Autre chemin</text><polygon fill="url(#g1jhdhfucei0y62)" points="309.6354,265.686,322.1354,278.186,309.6354,290.686,297.1354,278.186,309.6354,265.686" style="stroke:#6B6B6B;stroke-width:1.0416666666666667;"/><ellipse cx="309.6354" cy="322.9777" fill="none" rx="11.4583" ry="11.4583" style="stroke:#304D6D;stroke-width:1.0416666666666667;"/><ellipse cx="309.6354" cy="322.9777" fill="none" rx="6.25" ry="6.25" style="stroke:#304D6D;stroke-width:1.0416666666666667;"/><line style="stroke:#446E9B;stroke-width:3.125;" x1="309.6354" x2="309.6354" y1="101.3611" y2="122.1944"/><polygon fill="#446E9B" points="305.4688,111.7778,309.6354,122.1944,313.8021,111.7778,309.6354,115.9444" style="stroke:#446E9B;stroke-width:1.0416666666666667;"/><line style="stroke:#446E9B;stroke-width:3.125;" x1="222.1354" x2="211.7188" y1="193.9402" y2="193.9402"/><line style="stroke:#446E9B;stroke-width:3.125;" x1="211.7188" x2="211.7188" y1="193.9402" y2="217.1611"/><polygon fill="#446E9B" points="207.5521,206.7444,211.7188,217.1611,215.8854,206.7444,211.7188,210.9111" style="stroke:#446E9B;stroke-width:1.0416666666666667;"/><line style="stroke:#446E9B;stroke-width:3.125;" x1="397.1354" x2="407.5521" y1="193.9402" y2="193.9402"/><line style="stroke:#446E9B;stroke-width:3.125;" x1="407.5521" x2="407.5521" y1="193.9402" y2="217.1611"/><polygon fill="#446E9B" points="403.3854,206.7444,407.5521,217.1611,411.7188,206.7444,407.5521,210.9111" style="stroke:#446E9B;stroke-width:1.0416666666666667;"/><line style="stroke:#446E9B;stroke-width:3.125;" x1="211.7188" x2="211.7188" y1="255.2694" y2="278.186"/><line style="stroke:#446E9B;stroke-width:3.125;" x1="211.7188" x2="297.1354" y1="278.186" y2="278.186"/><polygon fill="#446E9B" points="286.7188,274.0194,297.1354,278.186,286.7188,282.3527,290.8854,278.186" style="stroke:#446E9B;stroke-width:1.0416666666666667;"/><line style="stroke:#446E9B;stroke-width:3.125;" x1="407.5521" x2="407.5521" y1="255.2694" y2="278.186"/><line style="stroke:#446E9B;stroke-width:3.125;" x1="407.5521" x2="322.1354" y1="278.186" y2="278.186"/><polygon fill="#446E9B" points="332.5521,274.0194,322.1354,278.186,332.5521,282.3527,328.3854,278.186" style="stroke:#446E9B;stroke-width:1.0416666666666667;"/><line style="stroke:#446E9B;stroke-width:3.125;" x1="309.6354" x2="309.6354" y1="160.3027" y2="181.1361"/><polygon fill="#446E9B" points="305.4688,170.7194,309.6354,181.1361,313.8021,170.7194,309.6354,174.8861" style="stroke:#446E9B;stroke-width:1.0416666666666667;"/><line style="stroke:#446E9B;stroke-width:3.125;" x1="309.6354" x2="309.6354" y1="290.686" y2="311.5194"/><polygon fill="#446E9B" points="305.4688,301.1027,309.6354,311.5194,313.8021,301.1027,309.6354,305.2694" style="stroke:#446E9B;stroke-width:1.0416666666666667;"/><rect fill="#999999" height="195.9249" id="_legend" rx="4.1667" ry="4.1667" style="stroke:#6B6B6B;stroke-width:1.0416666666666667;" width="567.7083" x="20.8333" y="343.811"/><text fill="#EEEEEE" font-family="Verdana" font-size="14.5833" lengthAdjust="spacing" textLength="62.5" x="42.7083" y="377.2227">Symbole</text><text fill="#EEEEEE" font-family="Verdana" font-size="14.5833" lengthAdjust="spacing" textLength="82.2917" x="196.875" y="377.2227">Description</text><text fill="#EEEEEE" font-family="Verdana" font-size="14.5833" lengthAdjust="spacing" textLength="70.8333" x="42.7083" y="405.363">Rectangle</text><text fill="#EEEEEE" font-family="Verdana" font-size="14.5833" lengthAdjust="spacing" textLength="279.1667" x="196.875" y="405.363">Repr&#233;sente une activit&#233; ou une &#233;tape.</text><text fill="#EEEEEE" font-family="Verdana" font-size="14.5833" lengthAdjust="spacing" textLength="44.7917" x="42.7083" y="433.5032">Fl&#232;che</text><text fill="#EEEEEE" font-family="Verdana" font-size="14.5833" lengthAdjust="spacing" textLength="223.9583" x="196.875" y="433.5032">Indique le flux ou la transition.</text><text fill="#EEEEEE" font-family="Verdana" font-size="14.5833" lengthAdjust="spacing" textLength="61.4583" x="42.7083" y="461.6435">Losange</text><text fill="#EEEEEE" font-family="Verdana" font-size="14.5833" lengthAdjust="spacing" textLength="369.7917" x="196.875" y="461.6435">Repr&#233;sente une d&#233;cision avec des choix possibles.</text><text fill="#EEEEEE" font-family="Verdana" font-size="14.5833" lengthAdjust="spacing" textLength="97.9167" x="42.7083" y="489.7837">Cercle    plein</text><text fill="#EEEEEE" font-family="Verdana" font-size="14.5833" lengthAdjust="spacing" textLength="117.7083" x="196.875" y="489.7837">Point de d&#233;part.</text><text fill="#EEEEEE" font-family="Verdana" font-size="14.5833" lengthAdjust="spacing" textLength="117.7083" x="42.7083" y="517.924">Cercle    anneau</text><text fill="#EEEEEE" font-family="Verdana" font-size="14.5833" lengthAdjust="spacing" textLength="87.5" x="196.875" y="517.924">Point de fin.</text><line style="stroke:#EEEEEE;stroke-width:1.0416666666666667;" x1="32.2917" x2="577.0833" y1="357.3527" y2="357.3527"/><line style="stroke:#EEEEEE;stroke-width:1.0416666666666667;" x1="32.2917" x2="577.0833" y1="385.493" y2="385.493"/><line style="stroke:#EEEEEE;stroke-width:1.0416666666666667;" x1="32.2917" x2="577.0833" y1="413.6332" y2="413.6332"/><line style="stroke:#EEEEEE;stroke-width:1.0416666666666667;" x1="32.2917" x2="577.0833" y1="441.7735" y2="441.7735"/><line style="stroke:#EEEEEE;stroke-width:1.0416666666666667;" x1="32.2917" x2="577.0833" y1="469.9137" y2="469.9137"/><line style="stroke:#EEEEEE;stroke-width:1.0416666666666667;" x1="32.2917" x2="577.0833" y1="498.054" y2="498.054"/><line style="stroke:#EEEEEE;stroke-width:1.0416666666666667;" x1="32.2917" x2="577.0833" y1="526.1943" y2="526.1943"/><line style="stroke:#EEEEEE;stroke-width:1.0416666666666667;" x1="32.2917" x2="32.2917" y1="357.3527" y2="526.1943"/><line style="stroke:#EEEEEE;stroke-width:1.0416666666666667;" x1="186.4583" x2="186.4583" y1="357.3527" y2="526.1943"/><line style="stroke:#EEEEEE;stroke-width:1.0416666666666667;" x1="577.0833" x2="577.0833" y1="357.3527" y2="526.1943"/><!--SRC=[NL5BJWCn3Dtd56RNRdg0Te4G7mcf0WGdI3EUrbB62ObJ5QaNu2Ra7BaOIMSALRsB_JxsoutiS428NXkqUgE4n2AiIzuYTmZRahdae2qgYwsbZl3nDMnS1KrrX0UC9f0NSWpNTQo4TpIYUJjHsjk7aYEo82H6q4PeJr8ok7Hgb2pQu-94VhBbn-mkt9wvey-4KELwcmwDOpL8q1ofhJ3IrYvMI_nZNNjs9HkARMEzHmCTHZ0xHmVmBaRQM8oZpZq6CoxkBHAFOc-EM2gdgNWTP76-z1-jcL6dAtXFF45habEUAafLKCl70mxLei72EQ-LeXvc5nCxNdKxX_fj3BFNH7C5i2pVBJ28YVQwNhXIQ2F2xCNnQNoN962z3mVYLVEcljew_mi0]--></g></svg>