<?xml version="1.0" encoding="us-ascii" standalone="no"?><svg xmlns="http://www.w3.org/2000/svg" xmlns:xlink="http://www.w3.org/1999/xlink" contentStyleType="text/css" height="823.9583px" preserveAspectRatio="none" style="width:1718px;height:823px;" version="1.1" viewBox="0 0 1718 823" width="1718.75px" zoomAndPan="magnify"><defs><linearGradient id="g2rcymad26xsp0" x1="50%" x2="50%" y1="0%" y2="100%"><stop offset="0%" stop-color="#B8B8B8"/><stop offset="100%" stop-color="#999999"/></linearGradient><linearGradient id="g2rcymad26xsp1" x1="50%" x2="50%" y1="0%" y2="100%"><stop offset="0%" stop-color="#7C9AB9"/><stop offset="100%" stop-color="#304D6D"/></linearGradient><linearGradient id="g2rcymad26xsp2" x1="50%" x2="50%" y1="0%" y2="100%"><stop offset="0%" stop-color="#B8B8B8"/><stop offset="100%" stop-color="#6B6B6B"/></linearGradient></defs><g><rect fill="url(#g2rcymad26xsp0)" height="48.2361" id="_title" rx="4.1667" ry="4.1667" style="stroke:#6B6B6B;stroke-width:1.0416666666666667;" width="397.9167" x="659.2448" y="20.8333"/><text fill="#304D6D" font-family="Verdana" font-size="20.8333" font-weight="bold" lengthAdjust="spacing" textLength="375" x="670.7031" y="53.2369">Acc&#233;der &#224; la biblioth&#232;que de jeu</text><rect fill="url(#g2rcymad26xsp0)" height="25.6083" style="stroke:url(#g2rcymad26xsp0);stroke-width:1.0416666666666667;" width="1685.1563" x="15.625" y="81.5694"/><ellipse cx="521.6146" cy="122.8027" fill="#3399F3" rx="10.4167" ry="10.4167" style="stroke:#304D6D;stroke-width:1.0416666666666667;"/><rect fill="url(#g2rcymad26xsp1)" height="38.1083" rx="4.1667" ry="4.1667" style="stroke:#304D6D;stroke-width:1.0416666666666667;" width="201.0417" x="421.0938" y="154.0527"/><text fill="#FFFFFF" font-family="Verdana" font-size="12.5" lengthAdjust="spacing" textLength="178.125" x="432.5521" y="178.0782">Se connecter &#224; son compte</text><rect fill="url(#g2rcymad26xsp1)" height="38.1083" rx="4.1667" ry="4.1667" style="stroke:#304D6D;stroke-width:1.0416666666666667;" width="327.0833" x="358.0729" y="212.9944"/><text fill="#FFFFFF" font-family="Verdana" font-size="12.5" lengthAdjust="spacing" textLength="304.1667" x="369.5313" y="237.0199">Acc&#233;der &#224; la section "Ma biblioth&#232;que de jeux"</text><rect fill="url(#g2rcymad26xsp1)" height="38.1083" rx="4.1667" ry="4.1667" style="stroke:#304D6D;stroke-width:1.0416666666666667;" width="182.2917" x="192.7083" y="436.261"/><text fill="#FFFFFF" font-family="Verdana" font-size="12.5" lengthAdjust="spacing" textLength="159.375" x="204.1667" y="460.2865">Parcourir la biblioth&#232;que</text><polygon fill="url(#g2rcymad26xsp2)" points="211.4583,495.2026,356.25,495.2026,368.75,508.0068,356.25,520.811,211.4583,520.811,198.9583,508.0068,211.4583,495.2026" style="stroke:#6B6B6B;stroke-width:1.0416666666666667;"/><text fill="#FFFFFF" font-family="Verdana" font-size="12.5" lengthAdjust="spacing" textLength="134.375" x="216.6667" y="512.9781">S&#233;lectionner un jeu?</text><text fill="#FFFFFF" font-family="Verdana" font-size="12.5" lengthAdjust="spacing" textLength="21.875" x="171.875" y="500.174">Oui</text><text fill="#FFFFFF" font-family="Verdana" font-size="12.5" lengthAdjust="spacing" textLength="26.0417" x="373.9583" y="500.174">Non</text><rect fill="url(#g2rcymad26xsp1)" height="38.1083" rx="4.1667" ry="4.1667" style="stroke:#304D6D;stroke-width:1.0416666666666667;" width="207.2917" x="21.875" y="541.6443"/><text fill="#FFFFFF" font-family="Verdana" font-size="12.5" lengthAdjust="spacing" textLength="184.375" x="33.3333" y="565.6698">Lancer ou t&#233;l&#233;charger le jeu</text><rect fill="url(#g2rcymad26xsp1)" height="38.1083" rx="4.1667" ry="4.1667" style="stroke:#304D6D;stroke-width:1.0416666666666667;" width="108.3333" x="71.3542" y="659.5276"/><text fill="#FFFFFF" font-family="Verdana" font-size="12.5" lengthAdjust="spacing" textLength="85.4167" x="82.8125" y="683.5531">Utiliser le jeu</text><rect fill="url(#g2rcymad26xsp1)" height="38.1083" rx="4.1667" ry="4.1667" style="stroke:#304D6D;stroke-width:1.0416666666666667;" width="220.8333" x="331.7708" y="541.6443"/><text fill="#FFFFFF" font-family="Verdana" font-size="12.5" lengthAdjust="spacing" textLength="197.9167" x="343.2292" y="565.6698">Quitter la section biblioth&#232;que</text><polygon fill="url(#g2rcymad26xsp2)" points="283.8542,708.0526,296.3542,720.5526,283.8542,733.0526,271.3542,720.5526,283.8542,708.0526" style="stroke:#6B6B6B;stroke-width:1.0416666666666667;"/><line style="stroke:#3399F3;stroke-width:2.0833333333333335;" x1="15.625" x2="15.625" y1="81.5694" y2="812.2192"/><rect fill="url(#g2rcymad26xsp1)" height="38.1083" rx="4.1667" ry="4.1667" style="stroke:#304D6D;stroke-width:1.0416666666666667;" width="278.125" x="1138.0208" y="271.936"/><text fill="#FFFFFF" font-family="Verdana" font-size="12.5" lengthAdjust="spacing" textLength="255.2083" x="1149.4792" y="295.9615">V&#233;rifier l'authentification de l'utilisateur</text><polygon fill="url(#g2rcymad26xsp2)" points="1197.3958,330.8777,1356.7708,330.8777,1369.2708,343.6818,1356.7708,356.486,1197.3958,356.486,1184.8958,343.6818,1197.3958,330.8777" style="stroke:#6B6B6B;stroke-width:1.0416666666666667;"/><text fill="#FFFFFF" font-family="Verdana" font-size="12.5" lengthAdjust="spacing" textLength="148.9583" x="1202.6042" y="348.6532">Utilisateur authentifi&#233;?</text><text fill="#FFFFFF" font-family="Verdana" font-size="12.5" lengthAdjust="spacing" textLength="21.875" x="1157.8125" y="335.849">Oui</text><text fill="#FFFFFF" font-family="Verdana" font-size="12.5" lengthAdjust="spacing" textLength="26.0417" x="1374.4792" y="335.849">Non</text><rect fill="url(#g2rcymad26xsp1)" height="38.1083" rx="4.1667" ry="4.1667" style="stroke:#304D6D;stroke-width:1.0416666666666667;" width="347.9167" x="865.3646" y="377.3193"/><text fill="#FFFFFF" font-family="Verdana" font-size="12.5" lengthAdjust="spacing" textLength="325" x="876.8229" y="401.3448">Afficher la liste des jeux poss&#233;d&#233;s par l'utilisateur</text><rect fill="url(#g2rcymad26xsp1)" height="38.1083" rx="4.1667" ry="4.1667" style="stroke:#304D6D;stroke-width:1.0416666666666667;" width="370.8333" x="695.5729" y="600.5859"/><text fill="#FFFFFF" font-family="Verdana" font-size="12.5" lengthAdjust="spacing" textLength="347.9167" x="707.0313" y="624.6114">Rediriger vers la page ou application correspondante</text><rect fill="url(#g2rcymad26xsp1)" height="38.1083" rx="4.1667" ry="4.1667" style="stroke:#304D6D;stroke-width:1.0416666666666667;" width="351.0417" x="1339.3229" y="377.3193"/><text fill="#FFFFFF" font-family="Verdana" font-size="12.5" lengthAdjust="spacing" textLength="328.125" x="1350.7813" y="401.3448">Afficher un message d'erreur "Connexion requise"</text><polygon fill="url(#g2rcymad26xsp2)" points="1277.0833,743.4692,1289.5833,755.9692,1277.0833,768.4692,1264.5833,755.9692,1277.0833,743.4692" style="stroke:#6B6B6B;stroke-width:1.0416666666666667;"/><ellipse cx="1277.0833" cy="800.7609" fill="none" rx="11.4583" ry="11.4583" style="stroke:#304D6D;stroke-width:1.0416666666666667;"/><ellipse cx="1277.0833" cy="800.7609" fill="none" rx="6.25" ry="6.25" style="stroke:#304D6D;stroke-width:1.0416666666666667;"/><line style="stroke:#3399F3;stroke-width:2.0833333333333335;" x1="689.3229" x2="689.3229" y1="81.5694" y2="812.2192"/><line style="stroke:#3399F3;stroke-width:2.0833333333333335;" x1="1694.5313" x2="1694.5313" y1="81.5694" y2="812.2192"/><line style="stroke:#446E9B;stroke-width:3.125;" x1="521.6146" x2="521.6146" y1="133.2194" y2="154.0527"/><polygon fill="#446E9B" points="517.4479,143.6361,521.6146,154.0527,525.7813,143.6361,521.6146,147.8027" style="stroke:#446E9B;stroke-width:1.0416666666666667;"/><line style="stroke:#446E9B;stroke-width:3.125;" x1="521.6146" x2="521.6146" y1="192.1611" y2="212.9944"/><polygon fill="#446E9B" points="517.4479,202.5777,521.6146,212.9944,525.7813,202.5777,521.6146,206.7444" style="stroke:#446E9B;stroke-width:1.0416666666666667;"/><line style="stroke:#446E9B;stroke-width:3.125;" x1="198.9583" x2="125.5208" y1="508.0068" y2="508.0068"/><line style="stroke:#446E9B;stroke-width:3.125;" x1="125.5208" x2="125.5208" y1="508.0068" y2="541.6443"/><polygon fill="#446E9B" points="121.3542,531.2276,125.5208,541.6443,129.6875,531.2276,125.5208,535.3943" style="stroke:#446E9B;stroke-width:1.0416666666666667;"/><line style="stroke:#446E9B;stroke-width:3.125;" x1="368.75" x2="442.1875" y1="508.0068" y2="508.0068"/><line style="stroke:#446E9B;stroke-width:3.125;" x1="442.1875" x2="442.1875" y1="508.0068" y2="541.6443"/><polygon fill="#446E9B" points="438.0208,531.2276,442.1875,541.6443,446.3542,531.2276,442.1875,535.3943" style="stroke:#446E9B;stroke-width:1.0416666666666667;"/><line style="stroke:#446E9B;stroke-width:3.125;" x1="125.5208" x2="125.5208" y1="697.6359" y2="720.5526"/><line style="stroke:#446E9B;stroke-width:3.125;" x1="125.5208" x2="271.3542" y1="720.5526" y2="720.5526"/><polygon fill="#446E9B" points="260.9375,716.3859,271.3542,720.5526,260.9375,724.7192,265.1042,720.5526" style="stroke:#446E9B;stroke-width:1.0416666666666667;"/><line style="stroke:#446E9B;stroke-width:3.125;" x1="442.1875" x2="442.1875" y1="579.7526" y2="720.5526"/><line style="stroke:#446E9B;stroke-width:3.125;" x1="442.1875" x2="296.3542" y1="720.5526" y2="720.5526"/><polygon fill="#446E9B" points="306.7708,716.3859,296.3542,720.5526,306.7708,724.7192,302.6042,720.5526" style="stroke:#446E9B;stroke-width:1.0416666666666667;"/><line style="stroke:#446E9B;stroke-width:3.125;" x1="283.8542" x2="283.8542" y1="474.3693" y2="495.2026"/><polygon fill="#446E9B" points="279.6875,484.786,283.8542,495.2026,288.0208,484.786,283.8542,488.9526" style="stroke:#446E9B;stroke-width:1.0416666666666667;"/><line style="stroke:#446E9B;stroke-width:3.125;" x1="1184.8958" x2="1039.3229" y1="343.6818" y2="343.6818"/><line style="stroke:#446E9B;stroke-width:3.125;" x1="1039.3229" x2="1039.3229" y1="343.6818" y2="377.3193"/><polygon fill="#446E9B" points="1035.1563,366.9027,1039.3229,377.3193,1043.4896,366.9027,1039.3229,371.0693" style="stroke:#446E9B;stroke-width:1.0416666666666667;"/><line style="stroke:#446E9B;stroke-width:3.125;" x1="1369.2708" x2="1514.8438" y1="343.6818" y2="343.6818"/><line style="stroke:#446E9B;stroke-width:3.125;" x1="1514.8438" x2="1514.8438" y1="343.6818" y2="377.3193"/><polygon fill="#446E9B" points="1510.6771,366.9027,1514.8438,377.3193,1519.0104,366.9027,1514.8438,371.0693" style="stroke:#446E9B;stroke-width:1.0416666666666667;"/><line style="stroke:#446E9B;stroke-width:3.125;" x1="1514.8438" x2="1514.8438" y1="415.4277" y2="755.9692"/><line style="stroke:#446E9B;stroke-width:3.125;" x1="1514.8438" x2="1289.5833" y1="755.9692" y2="755.9692"/><polygon fill="#446E9B" points="1300,751.8026,1289.5833,755.9692,1300,760.1359,1295.8333,755.9692" style="stroke:#446E9B;stroke-width:1.0416666666666667;"/><line style="stroke:#446E9B;stroke-width:3.125;" x1="1277.0833" x2="1277.0833" y1="310.0444" y2="330.8777"/><polygon fill="#446E9B" points="1272.9167,320.461,1277.0833,330.8777,1281.25,320.461,1277.0833,324.6277" style="stroke:#446E9B;stroke-width:1.0416666666666667;"/><line style="stroke:#446E9B;stroke-width:3.125;" x1="1277.0833" x2="1277.0833" y1="768.4692" y2="789.3026"/><polygon fill="#446E9B" points="1272.9167,778.8859,1277.0833,789.3026,1281.25,778.8859,1277.0833,783.0526" style="stroke:#446E9B;stroke-width:1.0416666666666667;"/><line style="stroke:#446E9B;stroke-width:3.125;" x1="521.6146" x2="521.6146" y1="251.1027" y2="256.311"/><line style="stroke:#446E9B;stroke-width:3.125;" x1="521.6146" x2="1277.0833" y1="256.311" y2="256.311"/><line style="stroke:#446E9B;stroke-width:3.125;" x1="1277.0833" x2="1277.0833" y1="256.311" y2="271.936"/><polygon fill="#446E9B" points="1272.9167,261.5194,1277.0833,271.936,1281.25,261.5194,1277.0833,265.686" style="stroke:#446E9B;stroke-width:1.0416666666666667;"/><line style="stroke:#446E9B;stroke-width:3.125;" x1="1039.3229" x2="1039.3229" y1="415.4277" y2="420.636"/><line style="stroke:#446E9B;stroke-width:3.125;" x1="1039.3229" x2="283.8542" y1="420.636" y2="420.636"/><line style="stroke:#446E9B;stroke-width:3.125;" x1="283.8542" x2="283.8542" y1="420.636" y2="436.261"/><polygon fill="#446E9B" points="279.6875,425.8443,283.8542,436.261,288.0208,425.8443,283.8542,430.011" style="stroke:#446E9B;stroke-width:1.0416666666666667;"/><line style="stroke:#446E9B;stroke-width:3.125;" x1="125.5208" x2="125.5208" y1="579.7526" y2="584.9609"/><line style="stroke:#446E9B;stroke-width:3.125;" x1="125.5208" x2="880.9896" y1="584.9609" y2="584.9609"/><line style="stroke:#446E9B;stroke-width:3.125;" x1="880.9896" x2="880.9896" y1="584.9609" y2="600.5859"/><polygon fill="#446E9B" points="876.8229,590.1693,880.9896,600.5859,885.1563,590.1693,880.9896,594.3359" style="stroke:#446E9B;stroke-width:1.0416666666666667;"/><line style="stroke:#446E9B;stroke-width:3.125;" x1="880.9896" x2="880.9896" y1="638.6943" y2="643.9026"/><line style="stroke:#446E9B;stroke-width:3.125;" x1="880.9896" x2="125.5208" y1="643.9026" y2="643.9026"/><line style="stroke:#446E9B;stroke-width:3.125;" x1="125.5208" x2="125.5208" y1="643.9026" y2="659.5276"/><polygon fill="#446E9B" points="121.3542,649.1109,125.5208,659.5276,129.6875,649.1109,125.5208,653.2776" style="stroke:#446E9B;stroke-width:1.0416666666666667;"/><line style="stroke:#446E9B;stroke-width:3.125;" x1="283.8542" x2="283.8542" y1="733.0526" y2="755.9692"/><line style="stroke:#446E9B;stroke-width:3.125;" x1="283.8542" x2="1264.5833" y1="755.9692" y2="755.9692"/><polygon fill="#446E9B" points="1254.1667,751.8026,1264.5833,755.9692,1254.1667,760.1359,1258.3333,755.9692" style="stroke:#446E9B;stroke-width:1.0416666666666667;"/><text fill="#304D6D" font-family="Verdana" font-size="12.5" lengthAdjust="spacing" textLength="66.6667" x="319.1406" y="99.3449">Utilisateur</text><text fill="#304D6D" font-family="Verdana" font-size="12.5" lengthAdjust="spacing" textLength="103.125" x="1140.3646" y="99.3449">Site web Igame</text><!--SRC=[RP9DSW8X48NtdABZHht2p29bPPMg_5l97fbMIJ60q2GkF4oMcNDmiJGpMiQV9T3lzTUlkQ4rjWZHIuL6BWHfCWWpfNBNO83y0qR2GY-CThJElvk4q21yOXAxTz96HqcOmav4ae54DKTGpbfKD8YZitpHUi9QL6UkaQiqluyUhtVOZcgncsj2-CO5tAzaYpjHVUGkwALc5pEMYUajyL79teg5PfoENBNGIvZy0uMZ97UtKoW7c3mdFHK0rMp9JkjYBO4LL4XYZmBUnSZmkOlWPJZl0d2Q1dkzoA1S2ZfS15ZA2zOyTsQ8m7BBP4kZSoGsUf1MyRjBG2p8dLhBi2gCVKXrNtGHKwzymqO7NMg_CCJ2uUKAYvFqtXmoKou4ZDxPHbh2lT_PD6mst9pqHHCH9a_ExabVaoOQqZlizc9mj8rUYXFb5VZZ9ZYM5cCitCqOcPHtEBehaMsBVy1DOYh-AODn9EV_0000]--></g></svg>