<?xml version="1.0" encoding="us-ascii" standalone="no"?><svg xmlns="http://www.w3.org/2000/svg" xmlns:xlink="http://www.w3.org/1999/xlink" contentStyleType="text/css" height="918.75px" preserveAspectRatio="none" style="width:1191px;height:918px;" version="1.1" viewBox="0 0 1191 918" width="1191.6667px" zoomAndPan="magnify"><defs><linearGradient id="giu376suuzjrx0" x1="50%" x2="50%" y1="0%" y2="100%"><stop offset="0%" stop-color="#B8B8B8"/><stop offset="100%" stop-color="#999999"/></linearGradient><linearGradient id="giu376suuzjrx1" x1="50%" x2="50%" y1="0%" y2="100%"><stop offset="0%" stop-color="#7C9AB9"/><stop offset="100%" stop-color="#304D6D"/></linearGradient><linearGradient id="giu376suuzjrx2" x1="50%" x2="50%" y1="0%" y2="100%"><stop offset="0%" stop-color="#B8B8B8"/><stop offset="100%" stop-color="#6B6B6B"/></linearGradient></defs><g><rect fill="url(#giu376suuzjrx0)" height="48.2361" id="_title" rx="4.1667" ry="4.1667" style="stroke:#6B6B6B;stroke-width:1.0416666666666667;" width="522.9167" x="332.9427" y="20.8333"/><text fill="#304D6D" font-family="Verdana" font-size="20.8333" font-weight="bold" lengthAdjust="spacing" textLength="500" x="344.401" y="53.2369">D&#233;marrer une discussion (texte ou vocale)</text><rect fill="url(#giu376suuzjrx0)" height="25.6083" style="stroke:url(#giu376suuzjrx0);stroke-width:1.0416666666666667;" width="1157.5521" x="15.625" y="81.5694"/><ellipse cx="207.8125" cy="122.8027" fill="#3399F3" rx="10.4167" ry="10.4167" style="stroke:#304D6D;stroke-width:1.0416666666666667;"/><rect fill="url(#giu376suuzjrx1)" height="38.1083" rx="4.1667" ry="4.1667" style="stroke:#304D6D;stroke-width:1.0416666666666667;" width="201.0417" x="107.2917" y="154.0527"/><text fill="#FFFFFF" font-family="Verdana" font-size="12.5" lengthAdjust="spacing" textLength="178.125" x="118.75" y="178.0782">Acc&#233;der au site web Igame</text><rect fill="url(#giu376suuzjrx1)" height="38.1083" rx="4.1667" ry="4.1667" style="stroke:#304D6D;stroke-width:1.0416666666666667;" width="371.875" x="21.875" y="212.9944"/><text fill="#FFFFFF" font-family="Verdana" font-size="12.5" lengthAdjust="spacing" textLength="348.9583" x="33.3333" y="237.0199">Cliquer sur le lien "Rejoindre la communaut&#233; Discord"</text><rect fill="url(#giu376suuzjrx1)" height="38.1083" rx="4.1667" ry="4.1667" style="stroke:#304D6D;stroke-width:1.0416666666666667;" width="244.7917" x="85.4167" y="507.7026"/><text fill="#FFFFFF" font-family="Verdana" font-size="12.5" lengthAdjust="spacing" textLength="221.875" x="96.875" y="531.7281">Choisir entre texte ou appel vocal</text><rect fill="url(#giu376suuzjrx1)" height="38.1083" rx="4.1667" ry="4.1667" style="stroke:#304D6D;stroke-width:1.0416666666666667;" width="76.0417" x="320.0521" y="789.9109"/><text fill="#FFFFFF" font-family="Verdana" font-size="12.5" lengthAdjust="spacing" textLength="53.125" x="331.5104" y="813.9364">Discuter</text><ellipse cx="207.8125" cy="895.7275" fill="none" rx="11.4583" ry="11.4583" style="stroke:#304D6D;stroke-width:1.0416666666666667;"/><ellipse cx="207.8125" cy="895.7275" fill="none" rx="6.25" ry="6.25" style="stroke:#304D6D;stroke-width:1.0416666666666667;"/><line style="stroke:#3399F3;stroke-width:2.0833333333333335;" x1="15.625" x2="15.625" y1="81.5694" y2="907.1859"/><rect fill="url(#giu376suuzjrx1)" height="38.1083" rx="4.1667" ry="4.1667" style="stroke:#304D6D;stroke-width:1.0416666666666667;" width="165.625" x="406.5104" y="271.936"/><text fill="#FFFFFF" font-family="Verdana" font-size="12.5" lengthAdjust="spacing" textLength="142.7083" x="417.9688" y="295.9615">Rediriger vers Discord</text><line style="stroke:#3399F3;stroke-width:2.0833333333333335;" x1="400.2604" x2="400.2604" y1="81.5694" y2="907.1859"/><rect fill="url(#giu376suuzjrx1)" height="38.1083" rx="4.1667" ry="4.1667" style="stroke:#304D6D;stroke-width:1.0416666666666667;" width="272.9167" x="733.8542" y="330.8777"/><text fill="#FFFFFF" font-family="Verdana" font-size="12.5" lengthAdjust="spacing" textLength="250" x="745.3125" y="354.9032">Se connecter &#224; Discord (si n&#233;cessaire)</text><rect fill="url(#giu376suuzjrx1)" height="38.1083" rx="4.1667" ry="4.1667" style="stroke:#304D6D;stroke-width:1.0416666666666667;" width="236.4583" x="752.0833" y="389.8193"/><text fill="#FFFFFF" font-family="Verdana" font-size="12.5" lengthAdjust="spacing" textLength="213.5417" x="763.5417" y="413.8448">Acc&#233;der &#224; la communaut&#233; Igame</text><rect fill="url(#giu376suuzjrx1)" height="38.1083" rx="4.1667" ry="4.1667" style="stroke:#304D6D;stroke-width:1.0416666666666667;" width="365.625" x="687.5" y="448.761"/><text fill="#FFFFFF" font-family="Verdana" font-size="12.5" lengthAdjust="spacing" textLength="342.7083" x="698.9583" y="472.7865">S&#233;lectionner un utilisateur de la communaut&#233; Igame</text><polygon fill="url(#giu376suuzjrx2)" points="750.5208,566.6443,990.1042,566.6443,1002.6042,579.4484,990.1042,592.2526,750.5208,592.2526,738.0208,579.4484,750.5208,566.6443" style="stroke:#6B6B6B;stroke-width:1.0416666666666667;"/><text fill="#FFFFFF" font-family="Verdana" font-size="12.5" lengthAdjust="spacing" textLength="229.1667" x="755.7292" y="584.4198">Choix de communication est texte?</text><text fill="#FFFFFF" font-family="Verdana" font-size="12.5" lengthAdjust="spacing" textLength="21.875" x="710.9375" y="571.6156">Oui</text><text fill="#FFFFFF" font-family="Verdana" font-size="12.5" lengthAdjust="spacing" textLength="26.0417" x="1007.8125" y="571.6156">Non</text><rect fill="url(#giu376suuzjrx1)" height="38.1083" rx="4.1667" ry="4.1667" style="stroke:#304D6D;stroke-width:1.0416666666666667;" width="275" x="582.5521" y="613.0859"/><text fill="#FFFFFF" font-family="Verdana" font-size="12.5" lengthAdjust="spacing" textLength="252.0833" x="594.0104" y="637.1114">Ouvrir une fen&#234;tre de discussion texte</text><rect fill="url(#giu376suuzjrx1)" height="38.1083" rx="4.1667" ry="4.1667" style="stroke:#304D6D;stroke-width:1.0416666666666667;" width="198.9583" x="620.5729" y="672.0276"/><text fill="#FFFFFF" font-family="Verdana" font-size="12.5" lengthAdjust="spacing" textLength="176.0417" x="632.0313" y="696.0531">Envoyer un message texte</text><rect fill="url(#giu376suuzjrx1)" height="38.1083" rx="4.1667" ry="4.1667" style="stroke:#304D6D;stroke-width:1.0416666666666667;" width="233.3333" x="903.9063" y="613.0859"/><text fill="#FFFFFF" font-family="Verdana" font-size="12.5" lengthAdjust="spacing" textLength="210.4167" x="915.3646" y="637.1114">Ouvrir une fen&#234;tre d'appel vocal</text><rect fill="url(#giu376suuzjrx1)" height="38.1083" rx="4.1667" ry="4.1667" style="stroke:#304D6D;stroke-width:1.0416666666666667;" width="151.0417" x="945.0521" y="672.0276"/><text fill="#FFFFFF" font-family="Verdana" font-size="12.5" lengthAdjust="spacing" textLength="128.125" x="956.5104" y="696.0531">Lancer l'appel vocal</text><rect fill="url(#giu376suuzjrx1)" height="38.1083" rx="4.1667" ry="4.1667" style="stroke:#304D6D;stroke-width:1.0416666666666667;" width="284.375" x="878.3854" y="730.9692"/><text fill="#FFFFFF" font-family="Verdana" font-size="12.5" lengthAdjust="spacing" textLength="261.4583" x="889.8438" y="754.9947">Attendre que l'autre utilisateur r&#233;ponde</text><polygon fill="url(#giu376suuzjrx2)" points="870.3125,838.4359,882.8125,850.9359,870.3125,863.4359,857.8125,850.9359,870.3125,838.4359" style="stroke:#6B6B6B;stroke-width:1.0416666666666667;"/><line style="stroke:#3399F3;stroke-width:2.0833333333333335;" x1="576.3021" x2="576.3021" y1="81.5694" y2="907.1859"/><line style="stroke:#3399F3;stroke-width:2.0833333333333335;" x1="1166.9271" x2="1166.9271" y1="81.5694" y2="907.1859"/><line style="stroke:#446E9B;stroke-width:3.125;" x1="207.8125" x2="207.8125" y1="133.2194" y2="154.0527"/><polygon fill="#446E9B" points="203.6458,143.6361,207.8125,154.0527,211.9792,143.6361,207.8125,147.8027" style="stroke:#446E9B;stroke-width:1.0416666666666667;"/><line style="stroke:#446E9B;stroke-width:3.125;" x1="207.8125" x2="207.8125" y1="192.1611" y2="212.9944"/><polygon fill="#446E9B" points="203.6458,202.5777,207.8125,212.9944,211.9792,202.5777,207.8125,206.7444" style="stroke:#446E9B;stroke-width:1.0416666666666667;"/><line style="stroke:#446E9B;stroke-width:3.125;" x1="870.3125" x2="870.3125" y1="368.986" y2="389.8193"/><polygon fill="#446E9B" points="866.1458,379.4027,870.3125,389.8193,874.4792,379.4027,870.3125,383.5693" style="stroke:#446E9B;stroke-width:1.0416666666666667;"/><line style="stroke:#446E9B;stroke-width:3.125;" x1="870.3125" x2="870.3125" y1="427.9277" y2="448.761"/><polygon fill="#446E9B" points="866.1458,438.3443,870.3125,448.761,874.4792,438.3443,870.3125,442.511" style="stroke:#446E9B;stroke-width:1.0416666666666667;"/><line style="stroke:#446E9B;stroke-width:3.125;" x1="720.0521" x2="720.0521" y1="651.1943" y2="672.0276"/><polygon fill="#446E9B" points="715.8854,661.6109,720.0521,672.0276,724.2188,661.6109,720.0521,665.7776" style="stroke:#446E9B;stroke-width:1.0416666666666667;"/><line style="stroke:#446E9B;stroke-width:3.125;" x1="1020.5729" x2="1020.5729" y1="651.1943" y2="672.0276"/><polygon fill="#446E9B" points="1016.4063,661.6109,1020.5729,672.0276,1024.7396,661.6109,1020.5729,665.7776" style="stroke:#446E9B;stroke-width:1.0416666666666667;"/><line style="stroke:#446E9B;stroke-width:3.125;" x1="1020.5729" x2="1020.5729" y1="710.1359" y2="730.9692"/><polygon fill="#446E9B" points="1016.4063,720.5526,1020.5729,730.9692,1024.7396,720.5526,1020.5729,724.7192" style="stroke:#446E9B;stroke-width:1.0416666666666667;"/><line style="stroke:#446E9B;stroke-width:3.125;" x1="738.0208" x2="720.0521" y1="579.4484" y2="579.4484"/><line style="stroke:#446E9B;stroke-width:3.125;" x1="720.0521" x2="720.0521" y1="579.4484" y2="613.0859"/><polygon fill="#446E9B" points="715.8854,602.6693,720.0521,613.0859,724.2188,602.6693,720.0521,606.8359" style="stroke:#446E9B;stroke-width:1.0416666666666667;"/><line style="stroke:#446E9B;stroke-width:3.125;" x1="1002.6042" x2="1020.5729" y1="579.4484" y2="579.4484"/><line style="stroke:#446E9B;stroke-width:3.125;" x1="1020.5729" x2="1020.5729" y1="579.4484" y2="613.0859"/><polygon fill="#446E9B" points="1016.4063,602.6693,1020.5729,613.0859,1024.7396,602.6693,1020.5729,606.8359" style="stroke:#446E9B;stroke-width:1.0416666666666667;"/><line style="stroke:#446E9B;stroke-width:3.125;" x1="720.0521" x2="720.0521" y1="710.1359" y2="850.9359"/><line style="stroke:#446E9B;stroke-width:3.125;" x1="720.0521" x2="857.8125" y1="850.9359" y2="850.9359"/><polygon fill="#446E9B" points="847.3958,846.7692,857.8125,850.9359,847.3958,855.1025,851.5625,850.9359" style="stroke:#446E9B;stroke-width:1.0416666666666667;"/><line style="stroke:#446E9B;stroke-width:3.125;" x1="207.8125" x2="207.8125" y1="251.1027" y2="256.311"/><line style="stroke:#446E9B;stroke-width:3.125;" x1="207.8125" x2="489.3229" y1="256.311" y2="256.311"/><line style="stroke:#446E9B;stroke-width:3.125;" x1="489.3229" x2="489.3229" y1="256.311" y2="271.936"/><polygon fill="#446E9B" points="485.1563,261.5194,489.3229,271.936,493.4896,261.5194,489.3229,265.686" style="stroke:#446E9B;stroke-width:1.0416666666666667;"/><line style="stroke:#446E9B;stroke-width:3.125;" x1="489.3229" x2="489.3229" y1="310.0444" y2="315.2527"/><line style="stroke:#446E9B;stroke-width:3.125;" x1="489.3229" x2="870.3125" y1="315.2527" y2="315.2527"/><line style="stroke:#446E9B;stroke-width:3.125;" x1="870.3125" x2="870.3125" y1="315.2527" y2="330.8777"/><polygon fill="#446E9B" points="866.1458,320.461,870.3125,330.8777,874.4792,320.461,870.3125,324.6277" style="stroke:#446E9B;stroke-width:1.0416666666666667;"/><line style="stroke:#446E9B;stroke-width:3.125;" x1="870.3125" x2="870.3125" y1="486.8693" y2="492.0776"/><line style="stroke:#446E9B;stroke-width:3.125;" x1="870.3125" x2="207.8125" y1="492.0776" y2="492.0776"/><line style="stroke:#446E9B;stroke-width:3.125;" x1="207.8125" x2="207.8125" y1="492.0776" y2="507.7026"/><polygon fill="#446E9B" points="203.6458,497.286,207.8125,507.7026,211.9792,497.286,207.8125,501.4526" style="stroke:#446E9B;stroke-width:1.0416666666666667;"/><line style="stroke:#446E9B;stroke-width:3.125;" x1="1020.5729" x2="1020.5729" y1="769.0776" y2="774.2859"/><line style="stroke:#446E9B;stroke-width:3.125;" x1="1020.5729" x2="358.0729" y1="774.2859" y2="774.2859"/><line style="stroke:#446E9B;stroke-width:3.125;" x1="358.0729" x2="358.0729" y1="774.2859" y2="789.9109"/><polygon fill="#446E9B" points="353.9063,779.4942,358.0729,789.9109,362.2396,779.4942,358.0729,783.6609" style="stroke:#446E9B;stroke-width:1.0416666666666667;"/><line style="stroke:#446E9B;stroke-width:3.125;" x1="358.0729" x2="358.0729" y1="828.0192" y2="833.2275"/><line style="stroke:#446E9B;stroke-width:3.125;" x1="358.0729" x2="901.5625" y1="833.2275" y2="833.2275"/><line style="stroke:#446E9B;stroke-width:3.125;" x1="901.5625" x2="901.5625" y1="833.2275" y2="850.9359"/><line style="stroke:#446E9B;stroke-width:3.125;" x1="901.5625" x2="882.8125" y1="850.9359" y2="850.9359"/><polygon fill="#446E9B" points="893.2292,846.7692,882.8125,850.9359,893.2292,855.1025,889.0625,850.9359" style="stroke:#446E9B;stroke-width:1.0416666666666667;"/><line style="stroke:#446E9B;stroke-width:3.125;" x1="207.8125" x2="207.8125" y1="545.811" y2="551.0193"/><line style="stroke:#446E9B;stroke-width:3.125;" x1="207.8125" x2="870.3125" y1="551.0193" y2="551.0193"/><line style="stroke:#446E9B;stroke-width:3.125;" x1="870.3125" x2="870.3125" y1="551.0193" y2="566.6443"/><polygon fill="#446E9B" points="866.1458,556.2276,870.3125,566.6443,874.4792,556.2276,870.3125,560.3943" style="stroke:#446E9B;stroke-width:1.0416666666666667;"/><line style="stroke:#446E9B;stroke-width:3.125;" x1="870.3125" x2="870.3125" y1="863.4359" y2="868.6442"/><line style="stroke:#446E9B;stroke-width:3.125;" x1="870.3125" x2="207.8125" y1="868.6442" y2="868.6442"/><line style="stroke:#446E9B;stroke-width:3.125;" x1="207.8125" x2="207.8125" y1="868.6442" y2="884.2692"/><polygon fill="#446E9B" points="203.6458,873.8525,207.8125,884.2692,211.9792,873.8525,207.8125,878.0192" style="stroke:#446E9B;stroke-width:1.0416666666666667;"/><text fill="#304D6D" font-family="Verdana" font-size="12.5" lengthAdjust="spacing" textLength="66.6667" x="174.6094" y="99.3449">Utilisateur</text><text fill="#304D6D" font-family="Verdana" font-size="12.5" lengthAdjust="spacing" textLength="103.125" x="436.7188" y="99.3449">Site web Igame</text><text fill="#304D6D" font-family="Verdana" font-size="12.5" lengthAdjust="spacing" textLength="47.9167" x="847.6563" y="99.3449">Discord</text><!--SRC=[TLBBJiCm4BpdAvPUI7yXEQ2gvO24gDIA3t3jRRl8iOCVeKZv6AxXD_9Zh1i23QYtM3ipEpkJct342i7NGg8MkonGq0Yhlgk4S-WW6WH5NaRloHh80vu2WetGM2aqphFsEP0cBm96rsO-21UoOY5btoccYmYUcF26EtWuY0hBh5XgUeqyyz41xzA41cORVB5abEEt06chAXeHGz_1YfTRfsPbrcudIcrMR52HemDhDUZy26NaznT3jiXgng0CZEe_HWpadi3qdKJl1JcSbnUc6VR7n6XzstUQfIWffcmW_XuF2g_GfX4LowCbJmxG13xt9r1HrwY7M2yle3taYN5A-eCuIP4i0FemqE_cm3LoE-j8ymoWMCV6qL3U7at_cHQfIP5dNfcmzwQnxyCrLKhZWECGjKV8dwovhdaxSSseHs4aY-b_WqK8UEwNkq_ZcFYNyRc-gwrHPrFJn9YTueXS8PioYlRydzdw2m00]--></g></svg>