<?xml version="1.0" encoding="us-ascii" standalone="no"?><svg xmlns="http://www.w3.org/2000/svg" xmlns:xlink="http://www.w3.org/1999/xlink" contentStyleType="text/css" height="623.9583px" preserveAspectRatio="none" style="width:1305px;height:623px;" version="1.1" viewBox="0 0 1305 623" width="1305.2083px" zoomAndPan="magnify"><defs><linearGradient id="g1iljmw5cvgg530" x1="50%" x2="50%" y1="0%" y2="100%"><stop offset="0%" stop-color="#B8B8B8"/><stop offset="100%" stop-color="#999999"/></linearGradient><linearGradient id="g1iljmw5cvgg531" x1="50%" x2="50%" y1="0%" y2="100%"><stop offset="0%" stop-color="#7C9AB9"/><stop offset="100%" stop-color="#304D6D"/></linearGradient><linearGradient id="g1iljmw5cvgg532" x1="50%" x2="50%" y1="0%" y2="100%"><stop offset="0%" stop-color="#B8B8B8"/><stop offset="100%" stop-color="#6B6B6B"/></linearGradient></defs><g><rect fill="url(#g1iljmw5cvgg530)" height="48.2361" id="_title" rx="4.1667" ry="4.1667" style="stroke:#6B6B6B;stroke-width:1.0416666666666667;" width="395.8333" x="453.5156" y="20.8333"/><text fill="#304D6D" font-family="Verdana" font-size="20.8333" font-weight="bold" lengthAdjust="spacing" textLength="372.9167" x="464.974" y="53.2369">Acc&#233;der au contenu du site web</text><rect fill="url(#g1iljmw5cvgg530)" height="25.6083" style="stroke:url(#g1iljmw5cvgg530);stroke-width:1.0416666666666667;" width="1271.6146" x="15.625" y="81.5694"/><ellipse cx="363.2813" cy="122.8027" fill="#3399F3" rx="10.4167" ry="10.4167" style="stroke:#304D6D;stroke-width:1.0416666666666667;"/><rect fill="url(#g1iljmw5cvgg531)" height="38.1083" rx="4.1667" ry="4.1667" style="stroke:#304D6D;stroke-width:1.0416666666666667;" width="237.5" x="244.5313" y="154.0527"/><text fill="#FFFFFF" font-family="Verdana" font-size="12.5" lengthAdjust="spacing" textLength="214.5833" x="255.9896" y="178.0782">Acc&#233;der &#224; l'URL principale du site</text><rect fill="url(#g1iljmw5cvgg531)" height="38.1083" rx="4.1667" ry="4.1667" style="stroke:#304D6D;stroke-width:1.0416666666666667;" width="280.2083" x="21.875" y="495.2026"/><text fill="#FFFFFF" font-family="Verdana" font-size="12.5" lengthAdjust="spacing" textLength="257.2917" x="33.3333" y="519.2281">Naviguer entre les sections disponibles</text><line style="stroke:#3399F3;stroke-width:2.0833333333333335;" x1="15.625" x2="15.625" y1="81.5694" y2="612.4776"/><rect fill="url(#g1iljmw5cvgg531)" height="38.1083" rx="4.1667" ry="4.1667" style="stroke:#304D6D;stroke-width:1.0416666666666667;" width="150" x="799.4792" y="212.9944"/><text fill="#FFFFFF" font-family="Verdana" font-size="12.5" lengthAdjust="spacing" textLength="127.0833" x="810.9375" y="237.0199">Recevoir la requ&#234;te</text><rect fill="url(#g1iljmw5cvgg531)" height="38.1083" rx="4.1667" ry="4.1667" style="stroke:#304D6D;stroke-width:1.0416666666666667;" width="232.2917" x="758.3333" y="271.936"/><text fill="#FFFFFF" font-family="Verdana" font-size="12.5" lengthAdjust="spacing" textLength="209.375" x="769.7917" y="295.9615">V&#233;rifier l'accessibilit&#233; du serveur</text><polygon fill="url(#g1iljmw5cvgg532)" points="804.6875,330.8777,944.2708,330.8777,956.7708,343.6818,944.2708,356.486,804.6875,356.486,792.1875,343.6818,804.6875,330.8777" style="stroke:#6B6B6B;stroke-width:1.0416666666666667;"/><text fill="#FFFFFF" font-family="Verdana" font-size="12.5" lengthAdjust="spacing" textLength="129.1667" x="809.8958" y="348.6532">Serveur accessible?</text><text fill="#FFFFFF" font-family="Verdana" font-size="12.5" lengthAdjust="spacing" textLength="21.875" x="765.1042" y="335.849">Oui</text><text fill="#FFFFFF" font-family="Verdana" font-size="12.5" lengthAdjust="spacing" textLength="26.0417" x="961.9792" y="335.849">Non</text><rect fill="url(#g1iljmw5cvgg531)" height="38.1083" rx="4.1667" ry="4.1667" style="stroke:#304D6D;stroke-width:1.0416666666666667;" width="188.5417" x="578.9063" y="377.3193"/><text fill="#FFFFFF" font-family="Verdana" font-size="12.5" lengthAdjust="spacing" textLength="165.625" x="590.3646" y="401.3448">Charger la page d'accueil</text><rect fill="url(#g1iljmw5cvgg531)" height="38.1083" rx="4.1667" ry="4.1667" style="stroke:#304D6D;stroke-width:1.0416666666666667;" width="361.4583" x="492.4479" y="436.261"/><text fill="#FFFFFF" font-family="Verdana" font-size="12.5" lengthAdjust="spacing" textLength="338.5417" x="503.9063" y="460.2865">Afficher les options (Blogue, R&#233;seaux sociaux, Jeux)</text><rect fill="url(#g1iljmw5cvgg531)" height="38.1083" rx="4.1667" ry="4.1667" style="stroke:#304D6D;stroke-width:1.0416666666666667;" width="402.0833" x="874.7396" y="377.3193"/><text fill="#FFFFFF" font-family="Verdana" font-size="12.5" lengthAdjust="spacing" textLength="379.1667" x="886.1979" y="401.3448">Retourner un message d'erreur (503 Service indisponible)</text><rect fill="url(#g1iljmw5cvgg531)" height="38.1083" rx="4.1667" ry="4.1667" style="stroke:#304D6D;stroke-width:1.0416666666666667;" width="296.875" x="927.3438" y="436.261"/><text fill="#FFFFFF" font-family="Verdana" font-size="12.5" lengthAdjust="spacing" textLength="273.9583" x="938.8021" y="460.2865">Afficher un message "Site non disponible"</text><polygon fill="url(#g1iljmw5cvgg532)" points="874.4792,543.7276,886.9792,556.2276,874.4792,568.7276,861.9792,556.2276,874.4792,543.7276" style="stroke:#6B6B6B;stroke-width:1.0416666666666667;"/><ellipse cx="874.4792" cy="601.0193" fill="none" rx="11.4583" ry="11.4583" style="stroke:#304D6D;stroke-width:1.0416666666666667;"/><ellipse cx="874.4792" cy="601.0193" fill="none" rx="6.25" ry="6.25" style="stroke:#304D6D;stroke-width:1.0416666666666667;"/><line style="stroke:#3399F3;stroke-width:2.0833333333333335;" x1="486.1979" x2="486.1979" y1="81.5694" y2="612.4776"/><line style="stroke:#3399F3;stroke-width:2.0833333333333335;" x1="1280.9896" x2="1280.9896" y1="81.5694" y2="612.4776"/><line style="stroke:#446E9B;stroke-width:3.125;" x1="363.2813" x2="363.2813" y1="133.2194" y2="154.0527"/><polygon fill="#446E9B" points="359.1146,143.6361,363.2813,154.0527,367.4479,143.6361,363.2813,147.8027" style="stroke:#446E9B;stroke-width:1.0416666666666667;"/><line style="stroke:#446E9B;stroke-width:3.125;" x1="874.4792" x2="874.4792" y1="251.1027" y2="271.936"/><polygon fill="#446E9B" points="870.3125,261.5194,874.4792,271.936,878.6458,261.5194,874.4792,265.686" style="stroke:#446E9B;stroke-width:1.0416666666666667;"/><line style="stroke:#446E9B;stroke-width:3.125;" x1="673.1771" x2="673.1771" y1="415.4277" y2="436.261"/><polygon fill="#446E9B" points="669.0104,425.8443,673.1771,436.261,677.3438,425.8443,673.1771,430.011" style="stroke:#446E9B;stroke-width:1.0416666666666667;"/><line style="stroke:#446E9B;stroke-width:3.125;" x1="1075.7813" x2="1075.7813" y1="415.4277" y2="436.261"/><polygon fill="#446E9B" points="1071.6146,425.8443,1075.7813,436.261,1079.9479,425.8443,1075.7813,430.011" style="stroke:#446E9B;stroke-width:1.0416666666666667;"/><line style="stroke:#446E9B;stroke-width:3.125;" x1="792.1875" x2="673.1771" y1="343.6818" y2="343.6818"/><line style="stroke:#446E9B;stroke-width:3.125;" x1="673.1771" x2="673.1771" y1="343.6818" y2="377.3193"/><polygon fill="#446E9B" points="669.0104,366.9027,673.1771,377.3193,677.3438,366.9027,673.1771,371.0693" style="stroke:#446E9B;stroke-width:1.0416666666666667;"/><line style="stroke:#446E9B;stroke-width:3.125;" x1="956.7708" x2="1075.7813" y1="343.6818" y2="343.6818"/><line style="stroke:#446E9B;stroke-width:3.125;" x1="1075.7813" x2="1075.7813" y1="343.6818" y2="377.3193"/><polygon fill="#446E9B" points="1071.6146,366.9027,1075.7813,377.3193,1079.9479,366.9027,1075.7813,371.0693" style="stroke:#446E9B;stroke-width:1.0416666666666667;"/><line style="stroke:#446E9B;stroke-width:3.125;" x1="1075.7813" x2="1075.7813" y1="474.3693" y2="556.2276"/><line style="stroke:#446E9B;stroke-width:3.125;" x1="1075.7813" x2="886.9792" y1="556.2276" y2="556.2276"/><polygon fill="#446E9B" points="897.3958,552.061,886.9792,556.2276,897.3958,560.3943,893.2292,556.2276" style="stroke:#446E9B;stroke-width:1.0416666666666667;"/><line style="stroke:#446E9B;stroke-width:3.125;" x1="874.4792" x2="874.4792" y1="310.0444" y2="330.8777"/><polygon fill="#446E9B" points="870.3125,320.461,874.4792,330.8777,878.6458,320.461,874.4792,324.6277" style="stroke:#446E9B;stroke-width:1.0416666666666667;"/><line style="stroke:#446E9B;stroke-width:3.125;" x1="874.4792" x2="874.4792" y1="568.7276" y2="589.561"/><polygon fill="#446E9B" points="870.3125,579.1443,874.4792,589.561,878.6458,579.1443,874.4792,583.311" style="stroke:#446E9B;stroke-width:1.0416666666666667;"/><line style="stroke:#446E9B;stroke-width:3.125;" x1="363.2813" x2="363.2813" y1="192.1611" y2="197.3694"/><line style="stroke:#446E9B;stroke-width:3.125;" x1="363.2813" x2="874.4792" y1="197.3694" y2="197.3694"/><line style="stroke:#446E9B;stroke-width:3.125;" x1="874.4792" x2="874.4792" y1="197.3694" y2="212.9944"/><polygon fill="#446E9B" points="870.3125,202.5777,874.4792,212.9944,878.6458,202.5777,874.4792,206.7444" style="stroke:#446E9B;stroke-width:1.0416666666666667;"/><line style="stroke:#446E9B;stroke-width:3.125;" x1="673.1771" x2="673.1771" y1="474.3693" y2="479.5776"/><line style="stroke:#446E9B;stroke-width:3.125;" x1="673.1771" x2="161.9792" y1="479.5776" y2="479.5776"/><line style="stroke:#446E9B;stroke-width:3.125;" x1="161.9792" x2="161.9792" y1="479.5776" y2="495.2026"/><polygon fill="#446E9B" points="157.8125,484.786,161.9792,495.2026,166.1458,484.786,161.9792,488.9526" style="stroke:#446E9B;stroke-width:1.0416666666666667;"/><line style="stroke:#446E9B;stroke-width:3.125;" x1="161.9792" x2="161.9792" y1="533.311" y2="556.2276"/><line style="stroke:#446E9B;stroke-width:3.125;" x1="161.9792" x2="861.9792" y1="556.2276" y2="556.2276"/><polygon fill="#446E9B" points="851.5625,552.061,861.9792,556.2276,851.5625,560.3943,855.7292,556.2276" style="stroke:#446E9B;stroke-width:1.0416666666666667;"/><text fill="#304D6D" font-family="Verdana" font-size="12.5" lengthAdjust="spacing" textLength="66.6667" x="217.5781" y="99.3449">Utilisateur</text><text fill="#304D6D" font-family="Verdana" font-size="12.5" lengthAdjust="spacing" textLength="103.125" x="832.0313" y="99.3449">Site web Igame</text><!--SRC=[PP4zJWCn48Lxds98ausK0WdHx1OeK85Ga3OAlUFCRaPoREEVa68FGxjSOo_6U1C8YCgoFEzxxusluWxt2C59XLfkHAIe4HPA3VqMFSW4ofg89i4sGQ28y8uRqQqZQGeoOlAT257wACeVqV01Uhgkdy5vCegSPE9PNObkTOR0Oolts8coHeK7Inwq18zlQVZCS-Nhq7jgY7bwAfN246Z3fd7eHnZw0vjNWXeeLgSBV8zfl9i15pDGl2IQ2O3oOITzYwE7aotdoSo4f2l8pukc8RNBxnZ0kaZM12ZkjMqJpg4U-e0o7I5OHNpEuGdJSLQnykyccBIK1sAH1pJHuyWBg4x0BGLdJSuNAe4w81HBQtA-VrjXKetH9cyObGpikTWfDtgVknQtrpUGYvD287D1Zx4kXNvf9wE9iUPNa0a7ON73dsZT5m00]--></g></svg>