<?xml version="1.0" encoding="us-ascii" standalone="no"?><svg xmlns="http://www.w3.org/2000/svg" xmlns:xlink="http://www.w3.org/1999/xlink" contentStyleType="text/css" height="860.4167px" preserveAspectRatio="none" style="width:1427px;height:860px;" version="1.1" viewBox="0 0 1427 860" width="1427.0833px" zoomAndPan="magnify"><defs><linearGradient id="gn16qocx6o4490" x1="50%" x2="50%" y1="0%" y2="100%"><stop offset="0%" stop-color="#B8B8B8"/><stop offset="100%" stop-color="#999999"/></linearGradient><linearGradient id="gn16qocx6o4491" x1="50%" x2="50%" y1="0%" y2="100%"><stop offset="0%" stop-color="#7C9AB9"/><stop offset="100%" stop-color="#304D6D"/></linearGradient><linearGradient id="gn16qocx6o4492" x1="50%" x2="50%" y1="0%" y2="100%"><stop offset="0%" stop-color="#B8B8B8"/><stop offset="100%" stop-color="#6B6B6B"/></linearGradient></defs><g><rect fill="url(#gn16qocx6o4490)" height="48.2361" id="_title" rx="4.1667" ry="4.1667" style="stroke:#6B6B6B;stroke-width:1.0416666666666667;" width="291.6667" x="566.1458" y="20.8333"/><text fill="#304D6D" font-family="Verdana" font-size="20.8333" font-weight="bold" lengthAdjust="spacing" textLength="268.75" x="577.6042" y="53.2369">Inscription au site web</text><rect fill="url(#gn16qocx6o4490)" height="25.6083" style="stroke:url(#gn16qocx6o4490);stroke-width:1.0416666666666667;" width="1392.7083" x="15.625" y="81.5694"/><ellipse cx="376.0417" cy="122.8027" fill="#3399F3" rx="10.4167" ry="10.4167" style="stroke:#304D6D;stroke-width:1.0416666666666667;"/><rect fill="url(#gn16qocx6o4491)" height="38.1083" rx="4.1667" ry="4.1667" style="stroke:#304D6D;stroke-width:1.0416666666666667;" width="221.875" x="265.1042" y="154.0527"/><text fill="#FFFFFF" font-family="Verdana" font-size="12.5" lengthAdjust="spacing" textLength="198.9583" x="276.5625" y="178.0782">Acc&#233;der &#224; la page d'inscription</text><rect fill="url(#gn16qocx6o4491)" height="38.1083" rx="4.1667" ry="4.1667" style="stroke:#304D6D;stroke-width:1.0416666666666667;" width="468.75" x="141.6667" y="212.9944"/><text fill="#FFFFFF" font-family="Verdana" font-size="12.5" lengthAdjust="spacing" textLength="445.8333" x="153.125" y="237.0199">Remplir les informations requises (nom, courriel, mot de passe, etc.)</text><rect fill="url(#gn16qocx6o4491)" height="38.1083" rx="4.1667" ry="4.1667" style="stroke:#304D6D;stroke-width:1.0416666666666667;" width="177.0833" x="287.5" y="271.936"/><text fill="#FFFFFF" font-family="Verdana" font-size="12.5" lengthAdjust="spacing" textLength="154.1667" x="298.9583" y="295.9615">Soumettre le formulaire</text><rect fill="url(#gn16qocx6o4491)" height="38.1083" rx="4.1667" ry="4.1667" style="stroke:#304D6D;stroke-width:1.0416666666666667;" width="251.0417" x="51.0417" y="613.0859"/><text fill="#FFFFFF" font-family="Verdana" font-size="12.5" lengthAdjust="spacing" textLength="228.125" x="62.5" y="637.1114">Recevoir le courriel de confirmation</text><rect fill="url(#gn16qocx6o4491)" height="38.1083" rx="4.1667" ry="4.1667" style="stroke:#304D6D;stroke-width:1.0416666666666667;" width="309.375" x="21.875" y="672.0276"/><text fill="#FFFFFF" font-family="Verdana" font-size="12.5" lengthAdjust="spacing" textLength="286.4583" x="33.3333" y="696.0531">Confirmer l'adresse courriel via le lien fourni</text><line style="stroke:#3399F3;stroke-width:2.0833333333333335;" x1="15.625" x2="15.625" y1="81.5694" y2="848.2442"/><rect fill="url(#gn16qocx6o4491)" height="38.1083" rx="4.1667" ry="4.1667" style="stroke:#304D6D;stroke-width:1.0416666666666667;" width="253.125" x="878.125" y="330.8777"/><text fill="#FFFFFF" font-family="Verdana" font-size="12.5" lengthAdjust="spacing" textLength="230.2083" x="889.5833" y="354.9032">Recevoir les donn&#233;es du formulaire</text><rect fill="url(#gn16qocx6o4491)" height="38.1083" rx="4.1667" ry="4.1667" style="stroke:#304D6D;stroke-width:1.0416666666666667;" width="225" x="892.1875" y="389.8193"/><text fill="#FFFFFF" font-family="Verdana" font-size="12.5" lengthAdjust="spacing" textLength="202.0833" x="903.6458" y="413.8448">V&#233;rifier la validit&#233; des donn&#233;es</text><polygon fill="url(#gn16qocx6o4492)" points="941.6667,448.761,1067.7083,448.761,1080.2083,461.5651,1067.7083,474.3693,941.6667,474.3693,929.1667,461.5651,941.6667,448.761" style="stroke:#6B6B6B;stroke-width:1.0416666666666667;"/><text fill="#FFFFFF" font-family="Verdana" font-size="12.5" lengthAdjust="spacing" textLength="115.625" x="946.875" y="466.5365">Donn&#233;es valides?</text><text fill="#FFFFFF" font-family="Verdana" font-size="12.5" lengthAdjust="spacing" textLength="21.875" x="902.0833" y="453.7323">Oui</text><text fill="#FFFFFF" font-family="Verdana" font-size="12.5" lengthAdjust="spacing" textLength="26.0417" x="1085.4167" y="453.7323">Non</text><rect fill="url(#gn16qocx6o4491)" height="38.1083" rx="4.1667" ry="4.1667" style="stroke:#304D6D;stroke-width:1.0416666666666667;" width="368.75" x="620.8333" y="495.2026"/><text fill="#FFFFFF" font-family="Verdana" font-size="12.5" lengthAdjust="spacing" textLength="345.8333" x="632.2917" y="519.2281">Cr&#233;er un nouvel utilisateur dans la base de donn&#233;es</text><rect fill="url(#gn16qocx6o4491)" height="38.1083" rx="4.1667" ry="4.1667" style="stroke:#304D6D;stroke-width:1.0416666666666667;" width="254.1667" x="678.125" y="554.1443"/><text fill="#FFFFFF" font-family="Verdana" font-size="12.5" lengthAdjust="spacing" textLength="231.25" x="689.5833" y="578.1698">Envoyer un courriel de confirmation</text><rect fill="url(#gn16qocx6o4491)" height="38.1083" rx="4.1667" ry="4.1667" style="stroke:#304D6D;stroke-width:1.0416666666666667;" width="204.1667" x="703.125" y="730.9692"/><text fill="#FFFFFF" font-family="Verdana" font-size="12.5" lengthAdjust="spacing" textLength="181.25" x="714.5833" y="754.9947">Activer le compte utilisateur</text><rect fill="url(#gn16qocx6o4491)" height="38.1083" rx="4.1667" ry="4.1667" style="stroke:#304D6D;stroke-width:1.0416666666666667;" width="387.5" x="1010.4167" y="495.2026"/><text fill="#FFFFFF" font-family="Verdana" font-size="12.5" lengthAdjust="spacing" textLength="364.5833" x="1021.875" y="519.2281">Retourner un message d'erreur (ex: donn&#233;es invalides)</text><rect fill="url(#gn16qocx6o4491)" height="38.1083" rx="4.1667" ry="4.1667" style="stroke:#304D6D;stroke-width:1.0416666666666667;" width="206.25" x="1101.0417" y="554.1443"/><text fill="#FFFFFF" font-family="Verdana" font-size="12.5" lengthAdjust="spacing" textLength="183.3333" x="1112.5" y="578.1698">Afficher le message d'erreur</text><polygon fill="url(#gn16qocx6o4492)" points="1004.6875,779.4942,1017.1875,791.9942,1004.6875,804.4942,992.1875,791.9942,1004.6875,779.4942" style="stroke:#6B6B6B;stroke-width:1.0416666666666667;"/><ellipse cx="1004.6875" cy="836.7859" fill="none" rx="11.4583" ry="11.4583" style="stroke:#304D6D;stroke-width:1.0416666666666667;"/><ellipse cx="1004.6875" cy="836.7859" fill="none" rx="6.25" ry="6.25" style="stroke:#304D6D;stroke-width:1.0416666666666667;"/><line style="stroke:#3399F3;stroke-width:2.0833333333333335;" x1="614.5833" x2="614.5833" y1="81.5694" y2="848.2442"/><line style="stroke:#3399F3;stroke-width:2.0833333333333335;" x1="1402.0833" x2="1402.0833" y1="81.5694" y2="848.2442"/><line style="stroke:#446E9B;stroke-width:3.125;" x1="376.0417" x2="376.0417" y1="133.2194" y2="154.0527"/><polygon fill="#446E9B" points="371.875,143.6361,376.0417,154.0527,380.2083,143.6361,376.0417,147.8027" style="stroke:#446E9B;stroke-width:1.0416666666666667;"/><line style="stroke:#446E9B;stroke-width:3.125;" x1="376.0417" x2="376.0417" y1="192.1611" y2="212.9944"/><polygon fill="#446E9B" points="371.875,202.5777,376.0417,212.9944,380.2083,202.5777,376.0417,206.7444" style="stroke:#446E9B;stroke-width:1.0416666666666667;"/><line style="stroke:#446E9B;stroke-width:3.125;" x1="376.0417" x2="376.0417" y1="251.1027" y2="271.936"/><polygon fill="#446E9B" points="371.875,261.5194,376.0417,271.936,380.2083,261.5194,376.0417,265.686" style="stroke:#446E9B;stroke-width:1.0416666666666667;"/><line style="stroke:#446E9B;stroke-width:3.125;" x1="176.5625" x2="176.5625" y1="651.1943" y2="672.0276"/><polygon fill="#446E9B" points="172.3958,661.6109,176.5625,672.0276,180.7292,661.6109,176.5625,665.7776" style="stroke:#446E9B;stroke-width:1.0416666666666667;"/><line style="stroke:#446E9B;stroke-width:3.125;" x1="1004.6875" x2="1004.6875" y1="368.986" y2="389.8193"/><polygon fill="#446E9B" points="1000.5208,379.4027,1004.6875,389.8193,1008.8542,379.4027,1004.6875,383.5693" style="stroke:#446E9B;stroke-width:1.0416666666666667;"/><line style="stroke:#446E9B;stroke-width:3.125;" x1="805.2083" x2="805.2083" y1="533.311" y2="554.1443"/><polygon fill="#446E9B" points="801.0417,543.7276,805.2083,554.1443,809.375,543.7276,805.2083,547.8943" style="stroke:#446E9B;stroke-width:1.0416666666666667;"/><line style="stroke:#446E9B;stroke-width:3.125;" x1="1204.1667" x2="1204.1667" y1="533.311" y2="554.1443"/><polygon fill="#446E9B" points="1200,543.7276,1204.1667,554.1443,1208.3333,543.7276,1204.1667,547.8943" style="stroke:#446E9B;stroke-width:1.0416666666666667;"/><line style="stroke:#446E9B;stroke-width:3.125;" x1="929.1667" x2="805.2083" y1="461.5651" y2="461.5651"/><line style="stroke:#446E9B;stroke-width:3.125;" x1="805.2083" x2="805.2083" y1="461.5651" y2="495.2026"/><polygon fill="#446E9B" points="801.0417,484.786,805.2083,495.2026,809.375,484.786,805.2083,488.9526" style="stroke:#446E9B;stroke-width:1.0416666666666667;"/><line style="stroke:#446E9B;stroke-width:3.125;" x1="1080.2083" x2="1204.1667" y1="461.5651" y2="461.5651"/><line style="stroke:#446E9B;stroke-width:3.125;" x1="1204.1667" x2="1204.1667" y1="461.5651" y2="495.2026"/><polygon fill="#446E9B" points="1200,484.786,1204.1667,495.2026,1208.3333,484.786,1204.1667,488.9526" style="stroke:#446E9B;stroke-width:1.0416666666666667;"/><line style="stroke:#446E9B;stroke-width:3.125;" x1="805.2083" x2="805.2083" y1="769.0776" y2="791.9942"/><line style="stroke:#446E9B;stroke-width:3.125;" x1="805.2083" x2="992.1875" y1="791.9942" y2="791.9942"/><polygon fill="#446E9B" points="981.7708,787.8276,992.1875,791.9942,981.7708,796.1609,985.9375,791.9942" style="stroke:#446E9B;stroke-width:1.0416666666666667;"/><line style="stroke:#446E9B;stroke-width:3.125;" x1="1204.1667" x2="1204.1667" y1="592.2526" y2="791.9942"/><line style="stroke:#446E9B;stroke-width:3.125;" x1="1204.1667" x2="1017.1875" y1="791.9942" y2="791.9942"/><polygon fill="#446E9B" points="1027.6042,787.8276,1017.1875,791.9942,1027.6042,796.1609,1023.4375,791.9942" style="stroke:#446E9B;stroke-width:1.0416666666666667;"/><line style="stroke:#446E9B;stroke-width:3.125;" x1="1004.6875" x2="1004.6875" y1="427.9277" y2="448.761"/><polygon fill="#446E9B" points="1000.5208,438.3443,1004.6875,448.761,1008.8542,438.3443,1004.6875,442.511" style="stroke:#446E9B;stroke-width:1.0416666666666667;"/><line style="stroke:#446E9B;stroke-width:3.125;" x1="1004.6875" x2="1004.6875" y1="804.4942" y2="825.3276"/><polygon fill="#446E9B" points="1000.5208,814.9109,1004.6875,825.3276,1008.8542,814.9109,1004.6875,819.0776" style="stroke:#446E9B;stroke-width:1.0416666666666667;"/><line style="stroke:#446E9B;stroke-width:3.125;" x1="376.0417" x2="376.0417" y1="310.0444" y2="315.2527"/><line style="stroke:#446E9B;stroke-width:3.125;" x1="376.0417" x2="1004.6875" y1="315.2527" y2="315.2527"/><line style="stroke:#446E9B;stroke-width:3.125;" x1="1004.6875" x2="1004.6875" y1="315.2527" y2="330.8777"/><polygon fill="#446E9B" points="1000.5208,320.461,1004.6875,330.8777,1008.8542,320.461,1004.6875,324.6277" style="stroke:#446E9B;stroke-width:1.0416666666666667;"/><line style="stroke:#446E9B;stroke-width:3.125;" x1="805.2083" x2="805.2083" y1="592.2526" y2="597.4609"/><line style="stroke:#446E9B;stroke-width:3.125;" x1="805.2083" x2="176.5625" y1="597.4609" y2="597.4609"/><line style="stroke:#446E9B;stroke-width:3.125;" x1="176.5625" x2="176.5625" y1="597.4609" y2="613.0859"/><polygon fill="#446E9B" points="172.3958,602.6693,176.5625,613.0859,180.7292,602.6693,176.5625,606.8359" style="stroke:#446E9B;stroke-width:1.0416666666666667;"/><line style="stroke:#446E9B;stroke-width:3.125;" x1="176.5625" x2="176.5625" y1="710.1359" y2="715.3442"/><line style="stroke:#446E9B;stroke-width:3.125;" x1="176.5625" x2="805.2083" y1="715.3442" y2="715.3442"/><line style="stroke:#446E9B;stroke-width:3.125;" x1="805.2083" x2="805.2083" y1="715.3442" y2="730.9692"/><polygon fill="#446E9B" points="801.0417,720.5526,805.2083,730.9692,809.375,720.5526,805.2083,724.7192" style="stroke:#446E9B;stroke-width:1.0416666666666667;"/><text fill="#304D6D" font-family="Verdana" font-size="12.5" lengthAdjust="spacing" textLength="66.6667" x="281.7708" y="99.3449">Utilisateur</text><text fill="#304D6D" font-family="Verdana" font-size="12.5" lengthAdjust="spacing" textLength="103.125" x="956.7708" y="99.3449">Site web Igame</text><!--SRC=[VL9BJiCm4Dtx5CEAHAeuGBf05R3e1YGGi7QT2OpaJnZR0QGUXctFaOinRbgbWCJE6i_xscVf5Hr2xBL1gpSgKR88QnyDKvyeUD0P7YZXCsxKzZ6HfQWJPjwgc3GdrQoC6NSjCenVO3Nq-WMXFQUPOQcQUtIz9GQB4SXtWPqkDn4Otp95cLO-k0MOa9a9xG9SID2YiCM82y1aBchXUGZPOKgCmWI59bjDZ4krBHRX7JUmVj4EjqNIu10EcctmVjoLG_u1Qvx67LD7ubwi3zfIIsdSYVACMIhgeBe-CkoNC5xM8CrvgEuorGgWkMAvPiWUVCW3MiXpLz1goIeA6nsnn9gv1NdZX_0vGO_vouu9lgD3KMNlP_c2Eqdu3t3lRPgKbEUwPPHEPyH0kZ1OaZIT33tjGNyQBKGhasZ0WwBhPU4avLAX5UBgDlXwyfSAtPJCYUZqCv2vL5BXHpE_2_b3h_M-abNNaNcTX7uZnHtwbZhvVw7_1W00]--></g></svg>