<?xml version="1.0" encoding="us-ascii" standalone="no"?><svg xmlns="http://www.w3.org/2000/svg" xmlns:xlink="http://www.w3.org/1999/xlink" contentStyleType="text/css" height="719.7917px" preserveAspectRatio="none" style="width:888px;height:719px;" version="1.1" viewBox="0 0 888 719" width="888.5417px" zoomAndPan="magnify"><defs><linearGradient id="gqrartgz9f7pz0" x1="50%" x2="50%" y1="0%" y2="100%"><stop offset="0%" stop-color="#B8B8B8"/><stop offset="100%" stop-color="#999999"/></linearGradient><linearGradient id="gqrartgz9f7pz1" x1="50%" x2="50%" y1="0%" y2="100%"><stop offset="0%" stop-color="#7C9AB9"/><stop offset="100%" stop-color="#304D6D"/></linearGradient></defs><g><rect fill="url(#gqrartgz9f7pz0)" height="48.2361" id="_title" rx="4.1667" ry="4.1667" style="stroke:#6B6B6B;stroke-width:1.0416666666666667;" width="358.3333" x="263.5417" y="20.8333"/><text fill="#304D6D" font-family="Verdana" font-size="20.8333" font-weight="bold" lengthAdjust="spacing" textLength="335.4167" x="275" y="53.2369">Modifier le visuel du site web</text><rect fill="url(#gqrartgz9f7pz0)" height="25.6083" style="stroke:url(#gqrartgz9f7pz0);stroke-width:1.0416666666666667;" width="854.1667" x="15.625" y="81.5694"/><ellipse cx="274.4792" cy="122.8027" fill="#3399F3" rx="10.4167" ry="10.4167" style="stroke:#304D6D;stroke-width:1.0416666666666667;"/><rect fill="url(#gqrartgz9f7pz1)" height="38.1083" rx="4.1667" ry="4.1667" style="stroke:#304D6D;stroke-width:1.0416666666666667;" width="398.9583" x="75" y="154.0527"/><text fill="#FFFFFF" font-family="Verdana" font-size="12.5" lengthAdjust="spacing" textLength="376.0417" x="86.4583" y="178.0782">Acc&#233;der au tableau de bord administrateur de Wix Studio</text><rect fill="url(#gqrartgz9f7pz1)" height="38.1083" rx="4.1667" ry="4.1667" style="stroke:#304D6D;stroke-width:1.0416666666666667;" width="309.375" x="119.7917" y="330.8777"/><text fill="#FFFFFF" font-family="Verdana" font-size="12.5" lengthAdjust="spacing" textLength="286.4583" x="131.25" y="354.9032">S&#233;lectionner le mod&#232;le de design &#224; modifier</text><rect fill="url(#gqrartgz9f7pz1)" height="38.1083" rx="4.1667" ry="4.1667" style="stroke:#304D6D;stroke-width:1.0416666666666667;" width="505.2083" x="21.875" y="389.8193"/><text fill="#FFFFFF" font-family="Verdana" font-size="12.5" lengthAdjust="spacing" textLength="482.2917" x="33.3333" y="413.8448">Effectuer les modifications souhait&#233;es (couleurs, polices, disposition, etc.)</text><rect fill="url(#gqrartgz9f7pz1)" height="38.1083" rx="4.1667" ry="4.1667" style="stroke:#304D6D;stroke-width:1.0416666666666667;" width="315.625" x="116.6667" y="566.6443"/><text fill="#FFFFFF" font-family="Verdana" font-size="12.5" lengthAdjust="spacing" textLength="292.7083" x="128.125" y="590.6698">Confirmer l'enregistrement des modifications</text><line style="stroke:#3399F3;stroke-width:2.0833333333333335;" x1="15.625" x2="15.625" y1="81.5694" y2="707.4443"/><rect fill="url(#gqrartgz9f7pz1)" height="38.1083" rx="4.1667" ry="4.1667" style="stroke:#304D6D;stroke-width:1.0416666666666667;" width="208.3333" x="594.2708" y="212.9944"/><text fill="#FFFFFF" font-family="Verdana" font-size="12.5" lengthAdjust="spacing" textLength="185.4167" x="605.7292" y="237.0199">Se connecter (si n&#233;cessaire)</text><rect fill="url(#gqrartgz9f7pz1)" height="38.1083" rx="4.1667" ry="4.1667" style="stroke:#304D6D;stroke-width:1.0416666666666667;" width="304.1667" x="546.3542" y="271.936"/><text fill="#FFFFFF" font-family="Verdana" font-size="12.5" lengthAdjust="spacing" textLength="281.25" x="557.8125" y="295.9615">Acc&#233;der &#224; la section Th&#233;matique ou Design</text><rect fill="url(#gqrartgz9f7pz1)" height="38.1083" rx="4.1667" ry="4.1667" style="stroke:#304D6D;stroke-width:1.0416666666666667;" width="286.4583" x="555.2083" y="448.761"/><text fill="#FFFFFF" font-family="Verdana" font-size="12.5" lengthAdjust="spacing" textLength="263.5417" x="566.6667" y="472.7865">Pr&#233;visualiser les changements effectu&#233;s</text><rect fill="url(#gqrartgz9f7pz1)" height="38.1083" rx="4.1667" ry="4.1667" style="stroke:#304D6D;stroke-width:1.0416666666666667;" width="254.1667" x="571.3542" y="507.7026"/><text fill="#FFFFFF" font-family="Verdana" font-size="12.5" lengthAdjust="spacing" textLength="231.25" x="582.8125" y="531.7281">V&#233;rifier l'aper&#231;u du nouveau design</text><rect fill="url(#gqrartgz9f7pz1)" height="38.1083" rx="4.1667" ry="4.1667" style="stroke:#304D6D;stroke-width:1.0416666666666667;" width="321.875" x="537.5" y="625.5859"/><text fill="#FFFFFF" font-family="Verdana" font-size="12.5" lengthAdjust="spacing" textLength="298.9583" x="548.9583" y="649.6114">Appliquer les modifications sur le site en ligne</text><ellipse cx="698.4375" cy="695.9859" fill="none" rx="11.4583" ry="11.4583" style="stroke:#304D6D;stroke-width:1.0416666666666667;"/><ellipse cx="698.4375" cy="695.9859" fill="none" rx="6.25" ry="6.25" style="stroke:#304D6D;stroke-width:1.0416666666666667;"/><line style="stroke:#3399F3;stroke-width:2.0833333333333335;" x1="531.25" x2="531.25" y1="81.5694" y2="707.4443"/><line style="stroke:#3399F3;stroke-width:2.0833333333333335;" x1="863.5417" x2="863.5417" y1="81.5694" y2="707.4443"/><line style="stroke:#446E9B;stroke-width:3.125;" x1="274.4792" x2="274.4792" y1="133.2194" y2="154.0527"/><polygon fill="#446E9B" points="270.3125,143.6361,274.4792,154.0527,278.6458,143.6361,274.4792,147.8027" style="stroke:#446E9B;stroke-width:1.0416666666666667;"/><line style="stroke:#446E9B;stroke-width:3.125;" x1="274.4792" x2="274.4792" y1="368.986" y2="389.8193"/><polygon fill="#446E9B" points="270.3125,379.4027,274.4792,389.8193,278.6458,379.4027,274.4792,383.5693" style="stroke:#446E9B;stroke-width:1.0416666666666667;"/><line style="stroke:#446E9B;stroke-width:3.125;" x1="698.4375" x2="698.4375" y1="251.1027" y2="271.936"/><polygon fill="#446E9B" points="694.2708,261.5194,698.4375,271.936,702.6042,261.5194,698.4375,265.686" style="stroke:#446E9B;stroke-width:1.0416666666666667;"/><line style="stroke:#446E9B;stroke-width:3.125;" x1="698.4375" x2="698.4375" y1="486.8693" y2="507.7026"/><polygon fill="#446E9B" points="694.2708,497.286,698.4375,507.7026,702.6042,497.286,698.4375,501.4526" style="stroke:#446E9B;stroke-width:1.0416666666666667;"/><line style="stroke:#446E9B;stroke-width:3.125;" x1="698.4375" x2="698.4375" y1="663.6943" y2="684.5276"/><polygon fill="#446E9B" points="694.2708,674.1109,698.4375,684.5276,702.6042,674.1109,698.4375,678.2776" style="stroke:#446E9B;stroke-width:1.0416666666666667;"/><line style="stroke:#446E9B;stroke-width:3.125;" x1="274.4792" x2="274.4792" y1="192.1611" y2="197.3694"/><line style="stroke:#446E9B;stroke-width:3.125;" x1="274.4792" x2="698.4375" y1="197.3694" y2="197.3694"/><line style="stroke:#446E9B;stroke-width:3.125;" x1="698.4375" x2="698.4375" y1="197.3694" y2="212.9944"/><polygon fill="#446E9B" points="694.2708,202.5777,698.4375,212.9944,702.6042,202.5777,698.4375,206.7444" style="stroke:#446E9B;stroke-width:1.0416666666666667;"/><line style="stroke:#446E9B;stroke-width:3.125;" x1="698.4375" x2="698.4375" y1="310.0444" y2="315.2527"/><line style="stroke:#446E9B;stroke-width:3.125;" x1="698.4375" x2="274.4792" y1="315.2527" y2="315.2527"/><line style="stroke:#446E9B;stroke-width:3.125;" x1="274.4792" x2="274.4792" y1="315.2527" y2="330.8777"/><polygon fill="#446E9B" points="270.3125,320.461,274.4792,330.8777,278.6458,320.461,274.4792,324.6277" style="stroke:#446E9B;stroke-width:1.0416666666666667;"/><line style="stroke:#446E9B;stroke-width:3.125;" x1="274.4792" x2="274.4792" y1="427.9277" y2="433.136"/><line style="stroke:#446E9B;stroke-width:3.125;" x1="274.4792" x2="698.4375" y1="433.136" y2="433.136"/><line style="stroke:#446E9B;stroke-width:3.125;" x1="698.4375" x2="698.4375" y1="433.136" y2="448.761"/><polygon fill="#446E9B" points="694.2708,438.3443,698.4375,448.761,702.6042,438.3443,698.4375,442.511" style="stroke:#446E9B;stroke-width:1.0416666666666667;"/><line style="stroke:#446E9B;stroke-width:3.125;" x1="698.4375" x2="698.4375" y1="545.811" y2="551.0193"/><line style="stroke:#446E9B;stroke-width:3.125;" x1="698.4375" x2="274.4792" y1="551.0193" y2="551.0193"/><line style="stroke:#446E9B;stroke-width:3.125;" x1="274.4792" x2="274.4792" y1="551.0193" y2="566.6443"/><polygon fill="#446E9B" points="270.3125,556.2276,274.4792,566.6443,278.6458,556.2276,274.4792,560.3943" style="stroke:#446E9B;stroke-width:1.0416666666666667;"/><line style="stroke:#446E9B;stroke-width:3.125;" x1="274.4792" x2="274.4792" y1="604.7526" y2="609.9609"/><line style="stroke:#446E9B;stroke-width:3.125;" x1="274.4792" x2="698.4375" y1="609.9609" y2="609.9609"/><line style="stroke:#446E9B;stroke-width:3.125;" x1="698.4375" x2="698.4375" y1="609.9609" y2="625.5859"/><polygon fill="#446E9B" points="694.2708,615.1693,698.4375,625.5859,702.6042,615.1693,698.4375,619.3359" style="stroke:#446E9B;stroke-width:1.0416666666666667;"/><text fill="#304D6D" font-family="Verdana" font-size="12.5" lengthAdjust="spacing" textLength="39.5833" x="253.6458" y="99.3449">Admin</text><text fill="#304D6D" font-family="Verdana" font-size="12.5" lengthAdjust="spacing" textLength="69.7917" x="662.5" y="99.3449">Wix Studio</text><!--SRC=[RP5DJiCm48NtESMmeaWL1sXM5R14GYg2jMDFcf4SEtZimYA7OGSvXo_6E8dugP0YEOa_pPlttaNii4VWGMcqggaYHOjmxmsrX07a_KISq899m1Jn5Pjgt9kUt5XnL25MkxtMUJ82gmHHDHRbD0YD3mPK8ObZK15JAB-VwGqECHdoTJN-V8pLxe2WlNEeeypQC87BaqPcHG6lwbyw-Hsi0XQGl8F7Ba-zYlII47o2MsGwklfxoTqXJtP1tMAezoP_ocdAK-0oi5yTYyvTsmgVPfZN2wtA00RsgLCKyoGt6-sJ5LUyXS5RabMtO8W7Bpa9l0MC-lhgtEL3o5E9L5dYLK9toXsb1HSPS17F4yicJtaAQm-NQi2GFrBfmVbqMa8-ithZNKkXdtbq0Oyb-NbmOVzQETzhFmosPFYlwpG7L_e7T6155MkftmzV]--></g></svg>