<?xml version="1.0" encoding="us-ascii" standalone="no"?><svg xmlns="http://www.w3.org/2000/svg" xmlns:xlink="http://www.w3.org/1999/xlink" contentStyleType="text/css" height="1118.75px" preserveAspectRatio="none" style="width:1540px;height:1118px;" version="1.1" viewBox="0 0 1540 1118" width="1540.625px" zoomAndPan="magnify"><defs><linearGradient id="gnn8glkl0z3vq0" x1="50%" x2="50%" y1="0%" y2="100%"><stop offset="0%" stop-color="#B8B8B8"/><stop offset="100%" stop-color="#999999"/></linearGradient><linearGradient id="gnn8glkl0z3vq1" x1="50%" x2="50%" y1="0%" y2="100%"><stop offset="0%" stop-color="#7C9AB9"/><stop offset="100%" stop-color="#304D6D"/></linearGradient><linearGradient id="gnn8glkl0z3vq2" x1="50%" x2="50%" y1="0%" y2="100%"><stop offset="0%" stop-color="#B8B8B8"/><stop offset="100%" stop-color="#6B6B6B"/></linearGradient></defs><g><rect fill="url(#gnn8glkl0z3vq0)" height="48.2361" id="_title" rx="4.1667" ry="4.1667" style="stroke:#6B6B6B;stroke-width:1.0416666666666667;" width="193.75" x="672.2656" y="20.8333"/><text fill="#304D6D" font-family="Verdana" font-size="20.8333" font-weight="bold" lengthAdjust="spacing" textLength="170.8333" x="683.724" y="53.2369">Acheter un jeu</text><rect fill="url(#gnn8glkl0z3vq0)" height="25.6083" style="stroke:url(#gnn8glkl0z3vq0);stroke-width:1.0416666666666667;" width="1507.0313" x="15.625" y="81.5694"/><ellipse cx="490.3646" cy="122.8027" fill="#3399F3" rx="10.4167" ry="10.4167" style="stroke:#304D6D;stroke-width:1.0416666666666667;"/><rect fill="url(#gnn8glkl0z3vq1)" height="38.1083" rx="4.1667" ry="4.1667" style="stroke:#304D6D;stroke-width:1.0416666666666667;" width="201.0417" x="389.8438" y="154.0527"/><text fill="#FFFFFF" font-family="Verdana" font-size="12.5" lengthAdjust="spacing" textLength="178.125" x="401.3021" y="178.0782">Se connecter &#224; son compte</text><rect fill="url(#gnn8glkl0z3vq1)" height="38.1083" rx="4.1667" ry="4.1667" style="stroke:#304D6D;stroke-width:1.0416666666666667;" width="281.25" x="349.7396" y="212.9944"/><text fill="#FFFFFF" font-family="Verdana" font-size="12.5" lengthAdjust="spacing" textLength="258.3333" x="361.1979" y="237.0199">Acc&#233;der &#224; la section "Boutique de jeux"</text><rect fill="url(#gnn8glkl0z3vq1)" height="38.1083" rx="4.1667" ry="4.1667" style="stroke:#304D6D;stroke-width:1.0416666666666667;" width="266.6667" x="357.0313" y="330.8777"/><text fill="#FFFFFF" font-family="Verdana" font-size="12.5" lengthAdjust="spacing" textLength="243.75" x="368.4896" y="354.9032">Parcourir la liste des jeux disponibles</text><rect fill="url(#gnn8glkl0z3vq1)" height="38.1083" rx="4.1667" ry="4.1667" style="stroke:#304D6D;stroke-width:1.0416666666666667;" width="185.4167" x="397.6563" y="389.8193"/><text fill="#FFFFFF" font-family="Verdana" font-size="12.5" lengthAdjust="spacing" textLength="162.5" x="409.1146" y="413.8448">Acc&#233;der &#224; la page du jeu</text><polygon fill="url(#gnn8glkl0z3vq2)" points="401.3021,507.7026,579.4271,507.7026,591.9271,520.5068,579.4271,533.311,401.3021,533.311,388.8021,520.5068,401.3021,507.7026" style="stroke:#6B6B6B;stroke-width:1.0416666666666667;"/><text fill="#FFFFFF" font-family="Verdana" font-size="12.5" lengthAdjust="spacing" textLength="167.7083" x="406.5104" y="525.4781">Ajouter un jeu au panier?</text><text fill="#FFFFFF" font-family="Verdana" font-size="12.5" lengthAdjust="spacing" textLength="21.875" x="361.7188" y="512.674">Oui</text><text fill="#FFFFFF" font-family="Verdana" font-size="12.5" lengthAdjust="spacing" textLength="26.0417" x="597.1354" y="512.674">Non</text><rect fill="url(#gnn8glkl0z3vq1)" height="38.1083" rx="4.1667" ry="4.1667" style="stroke:#304D6D;stroke-width:1.0416666666666667;" width="178.125" x="204.1667" y="554.1443"/><text fill="#FFFFFF" font-family="Verdana" font-size="12.5" lengthAdjust="spacing" textLength="155.2083" x="215.625" y="578.1698">Ajouter le jeu au panier</text><polygon fill="url(#gnn8glkl0z3vq2)" points="211.9792,672.0276,374.4792,672.0276,386.9792,684.8317,374.4792,697.6359,211.9792,697.6359,199.4792,684.8317,211.9792,672.0276" style="stroke:#6B6B6B;stroke-width:1.0416666666666667;"/><text fill="#FFFFFF" font-family="Verdana" font-size="12.5" lengthAdjust="spacing" textLength="152.0833" x="217.1875" y="689.8031">Proc&#233;der au paiement?</text><text fill="#FFFFFF" font-family="Verdana" font-size="12.5" lengthAdjust="spacing" textLength="21.875" x="172.3958" y="676.9989">Oui</text><text fill="#FFFFFF" font-family="Verdana" font-size="12.5" lengthAdjust="spacing" textLength="26.0417" x="392.1875" y="676.9989">Non</text><rect fill="url(#gnn8glkl0z3vq1)" height="38.1083" rx="4.1667" ry="4.1667" style="stroke:#304D6D;stroke-width:1.0416666666666667;" width="133.3333" x="81.25" y="718.4692"/><text fill="#FFFFFF" font-family="Verdana" font-size="12.5" lengthAdjust="spacing" textLength="110.4167" x="92.7083" y="742.4947">Confirmer l'achat</text><rect fill="url(#gnn8glkl0z3vq1)" height="38.1083" rx="4.1667" ry="4.1667" style="stroke:#304D6D;stroke-width:1.0416666666666667;" width="252.0833" x="21.875" y="954.2358"/><text fill="#FFFFFF" font-family="Verdana" font-size="12.5" lengthAdjust="spacing" textLength="229.1667" x="33.3333" y="978.2613">Afficher un message "Achat r&#233;ussi"</text><rect fill="url(#gnn8glkl0z3vq1)" height="38.1083" rx="4.1667" ry="4.1667" style="stroke:#304D6D;stroke-width:1.0416666666666667;" width="217.7083" x="329.6875" y="718.4692"/><text fill="#FFFFFF" font-family="Verdana" font-size="12.5" lengthAdjust="spacing" textLength="194.7917" x="341.1458" y="742.4947">Continuer &#224; parcourir les jeux</text><polygon fill="url(#gnn8glkl0z3vq2)" points="293.2292,1002.7608,305.7292,1015.2608,293.2292,1027.7608,280.7292,1015.2608,293.2292,1002.7608" style="stroke:#6B6B6B;stroke-width:1.0416666666666667;"/><rect fill="url(#gnn8glkl0z3vq1)" height="38.1083" rx="4.1667" ry="4.1667" style="stroke:#304D6D;stroke-width:1.0416666666666667;" width="217.7083" x="578.6458" y="554.1443"/><text fill="#FFFFFF" font-family="Verdana" font-size="12.5" lengthAdjust="spacing" textLength="194.7917" x="590.1042" y="578.1698">Continuer &#224; parcourir les jeux</text><polygon fill="url(#gnn8glkl0z3vq2)" points="490.3646,1038.1775,502.8646,1050.6775,490.3646,1063.1775,477.8646,1050.6775,490.3646,1038.1775" style="stroke:#6B6B6B;stroke-width:1.0416666666666667;"/><ellipse cx="490.3646" cy="1095.4692" fill="none" rx="11.4583" ry="11.4583" style="stroke:#304D6D;stroke-width:1.0416666666666667;"/><ellipse cx="490.3646" cy="1095.4692" fill="none" rx="6.25" ry="6.25" style="stroke:#304D6D;stroke-width:1.0416666666666667;"/><line style="stroke:#3399F3;stroke-width:2.0833333333333335;" x1="15.625" x2="15.625" y1="81.5694" y2="1106.9275"/><rect fill="url(#gnn8glkl0z3vq1)" height="38.1083" rx="4.1667" ry="4.1667" style="stroke:#304D6D;stroke-width:1.0416666666666667;" width="404.1667" x="1108.0729" y="271.936"/><text fill="#FFFFFF" font-family="Verdana" font-size="12.5" lengthAdjust="spacing" textLength="381.25" x="1119.5313" y="295.9615">Afficher les jeux disponibles avec leurs descriptions et prix</text><rect fill="url(#gnn8glkl0z3vq1)" height="38.1083" rx="4.1667" ry="4.1667" style="stroke:#304D6D;stroke-width:1.0416666666666667;" width="225" x="1197.6563" y="448.761"/><text fill="#FFFFFF" font-family="Verdana" font-size="12.5" lengthAdjust="spacing" textLength="202.0833" x="1209.1146" y="472.7865">Afficher les informations du jeu</text><rect fill="url(#gnn8glkl0z3vq1)" height="38.1083" rx="4.1667" ry="4.1667" style="stroke:#304D6D;stroke-width:1.0416666666666667;" width="266.6667" x="979.6875" y="613.0859"/><text fill="#FFFFFF" font-family="Verdana" font-size="12.5" lengthAdjust="spacing" textLength="243.75" x="991.1458" y="637.1114">Mettre &#224; jour le panier de l'utilisateur</text><rect fill="url(#gnn8glkl0z3vq1)" height="38.1083" rx="4.1667" ry="4.1667" style="stroke:#304D6D;stroke-width:1.0416666666666667;" width="146.875" x="894.2708" y="777.4109"/><text fill="#FFFFFF" font-family="Verdana" font-size="12.5" lengthAdjust="spacing" textLength="123.9583" x="905.7292" y="801.4364">Traiter le paiement</text><rect fill="url(#gnn8glkl0z3vq1)" height="38.1083" rx="4.1667" ry="4.1667" style="stroke:#304D6D;stroke-width:1.0416666666666667;" width="321.875" x="806.7708" y="836.3525"/><text fill="#FFFFFF" font-family="Verdana" font-size="12.5" lengthAdjust="spacing" textLength="298.9583" x="818.2292" y="860.378">Ajouter le jeu &#224; la biblioth&#232;que de l'utilisateur</text><rect fill="url(#gnn8glkl0z3vq1)" height="38.1083" rx="4.1667" ry="4.1667" style="stroke:#304D6D;stroke-width:1.0416666666666667;" width="254.1667" x="840.625" y="895.2942"/><text fill="#FFFFFF" font-family="Verdana" font-size="12.5" lengthAdjust="spacing" textLength="231.25" x="852.0833" y="919.3197">Envoyer un courriel de confirmation</text><line style="stroke:#3399F3;stroke-width:2.0833333333333335;" x1="800.5208" x2="800.5208" y1="81.5694" y2="1106.9275"/><line style="stroke:#3399F3;stroke-width:2.0833333333333335;" x1="1516.4063" x2="1516.4063" y1="81.5694" y2="1106.9275"/><line style="stroke:#446E9B;stroke-width:3.125;" x1="490.3646" x2="490.3646" y1="133.2194" y2="154.0527"/><polygon fill="#446E9B" points="486.1979,143.6361,490.3646,154.0527,494.5313,143.6361,490.3646,147.8027" style="stroke:#446E9B;stroke-width:1.0416666666666667;"/><line style="stroke:#446E9B;stroke-width:3.125;" x1="490.3646" x2="490.3646" y1="192.1611" y2="212.9944"/><polygon fill="#446E9B" points="486.1979,202.5777,490.3646,212.9944,494.5313,202.5777,490.3646,206.7444" style="stroke:#446E9B;stroke-width:1.0416666666666667;"/><line style="stroke:#446E9B;stroke-width:3.125;" x1="490.3646" x2="490.3646" y1="368.986" y2="389.8193"/><polygon fill="#446E9B" points="486.1979,379.4027,490.3646,389.8193,494.5313,379.4027,490.3646,383.5693" style="stroke:#446E9B;stroke-width:1.0416666666666667;"/><line style="stroke:#446E9B;stroke-width:3.125;" x1="199.4792" x2="147.9167" y1="684.8317" y2="684.8317"/><line style="stroke:#446E9B;stroke-width:3.125;" x1="147.9167" x2="147.9167" y1="684.8317" y2="718.4692"/><polygon fill="#446E9B" points="143.75,708.0526,147.9167,718.4692,152.0833,708.0526,147.9167,712.2192" style="stroke:#446E9B;stroke-width:1.0416666666666667;"/><line style="stroke:#446E9B;stroke-width:3.125;" x1="386.9792" x2="438.5417" y1="684.8317" y2="684.8317"/><line style="stroke:#446E9B;stroke-width:3.125;" x1="438.5417" x2="438.5417" y1="684.8317" y2="718.4692"/><polygon fill="#446E9B" points="434.375,708.0526,438.5417,718.4692,442.7083,708.0526,438.5417,712.2192" style="stroke:#446E9B;stroke-width:1.0416666666666667;"/><line style="stroke:#446E9B;stroke-width:3.125;" x1="147.9167" x2="147.9167" y1="992.3442" y2="1015.2608"/><line style="stroke:#446E9B;stroke-width:3.125;" x1="147.9167" x2="280.7292" y1="1015.2608" y2="1015.2608"/><polygon fill="#446E9B" points="270.3125,1011.0942,280.7292,1015.2608,270.3125,1019.4275,274.4792,1015.2608" style="stroke:#446E9B;stroke-width:1.0416666666666667;"/><line style="stroke:#446E9B;stroke-width:3.125;" x1="438.5417" x2="438.5417" y1="756.5776" y2="1015.2608"/><line style="stroke:#446E9B;stroke-width:3.125;" x1="438.5417" x2="305.7292" y1="1015.2608" y2="1015.2608"/><polygon fill="#446E9B" points="316.1458,1011.0942,305.7292,1015.2608,316.1458,1019.4275,311.9792,1015.2608" style="stroke:#446E9B;stroke-width:1.0416666666666667;"/><line style="stroke:#446E9B;stroke-width:3.125;" x1="388.8021" x2="293.2292" y1="520.5068" y2="520.5068"/><line style="stroke:#446E9B;stroke-width:3.125;" x1="293.2292" x2="293.2292" y1="520.5068" y2="554.1443"/><polygon fill="#446E9B" points="289.0625,543.7276,293.2292,554.1443,297.3958,543.7276,293.2292,547.8943" style="stroke:#446E9B;stroke-width:1.0416666666666667;"/><line style="stroke:#446E9B;stroke-width:3.125;" x1="591.9271" x2="687.5" y1="520.5068" y2="520.5068"/><line style="stroke:#446E9B;stroke-width:3.125;" x1="687.5" x2="687.5" y1="520.5068" y2="554.1443"/><polygon fill="#446E9B" points="683.3333,543.7276,687.5,554.1443,691.6667,543.7276,687.5,547.8943" style="stroke:#446E9B;stroke-width:1.0416666666666667;"/><line style="stroke:#446E9B;stroke-width:3.125;" x1="293.2292" x2="293.2292" y1="1027.7608" y2="1050.6775"/><line style="stroke:#446E9B;stroke-width:3.125;" x1="293.2292" x2="477.8646" y1="1050.6775" y2="1050.6775"/><polygon fill="#446E9B" points="467.4479,1046.5108,477.8646,1050.6775,467.4479,1054.8442,471.6146,1050.6775" style="stroke:#446E9B;stroke-width:1.0416666666666667;"/><line style="stroke:#446E9B;stroke-width:3.125;" x1="687.5" x2="687.5" y1="592.2526" y2="1050.6775"/><line style="stroke:#446E9B;stroke-width:3.125;" x1="687.5" x2="502.8646" y1="1050.6775" y2="1050.6775"/><polygon fill="#446E9B" points="513.2813,1046.5108,502.8646,1050.6775,513.2813,1054.8442,509.1146,1050.6775" style="stroke:#446E9B;stroke-width:1.0416666666666667;"/><line style="stroke:#446E9B;stroke-width:3.125;" x1="490.3646" x2="490.3646" y1="1063.1775" y2="1084.0108"/><polygon fill="#446E9B" points="486.1979,1073.5942,490.3646,1084.0108,494.5313,1073.5942,490.3646,1077.7608" style="stroke:#446E9B;stroke-width:1.0416666666666667;"/><line style="stroke:#446E9B;stroke-width:3.125;" x1="967.7083" x2="967.7083" y1="815.5192" y2="836.3525"/><polygon fill="#446E9B" points="963.5417,825.9359,967.7083,836.3525,971.875,825.9359,967.7083,830.1025" style="stroke:#446E9B;stroke-width:1.0416666666666667;"/><line style="stroke:#446E9B;stroke-width:3.125;" x1="967.7083" x2="967.7083" y1="874.4609" y2="895.2942"/><polygon fill="#446E9B" points="963.5417,884.8775,967.7083,895.2942,971.875,884.8775,967.7083,889.0442" style="stroke:#446E9B;stroke-width:1.0416666666666667;"/><line style="stroke:#446E9B;stroke-width:3.125;" x1="490.3646" x2="490.3646" y1="251.1027" y2="256.311"/><line style="stroke:#446E9B;stroke-width:3.125;" x1="490.3646" x2="1310.1563" y1="256.311" y2="256.311"/><line style="stroke:#446E9B;stroke-width:3.125;" x1="1310.1563" x2="1310.1563" y1="256.311" y2="271.936"/><polygon fill="#446E9B" points="1305.9896,261.5194,1310.1563,271.936,1314.3229,261.5194,1310.1563,265.686" style="stroke:#446E9B;stroke-width:1.0416666666666667;"/><line style="stroke:#446E9B;stroke-width:3.125;" x1="1310.1563" x2="1310.1563" y1="310.0444" y2="315.2527"/><line style="stroke:#446E9B;stroke-width:3.125;" x1="1310.1563" x2="490.3646" y1="315.2527" y2="315.2527"/><line style="stroke:#446E9B;stroke-width:3.125;" x1="490.3646" x2="490.3646" y1="315.2527" y2="330.8777"/><polygon fill="#446E9B" points="486.1979,320.461,490.3646,330.8777,494.5313,320.461,490.3646,324.6277" style="stroke:#446E9B;stroke-width:1.0416666666666667;"/><line style="stroke:#446E9B;stroke-width:3.125;" x1="490.3646" x2="490.3646" y1="427.9277" y2="433.136"/><line style="stroke:#446E9B;stroke-width:3.125;" x1="490.3646" x2="1310.1563" y1="433.136" y2="433.136"/><line style="stroke:#446E9B;stroke-width:3.125;" x1="1310.1563" x2="1310.1563" y1="433.136" y2="448.761"/><polygon fill="#446E9B" points="1305.9896,438.3443,1310.1563,448.761,1314.3229,438.3443,1310.1563,442.511" style="stroke:#446E9B;stroke-width:1.0416666666666667;"/><line style="stroke:#446E9B;stroke-width:3.125;" x1="293.2292" x2="293.2292" y1="592.2526" y2="597.4609"/><line style="stroke:#446E9B;stroke-width:3.125;" x1="293.2292" x2="1113.0208" y1="597.4609" y2="597.4609"/><line style="stroke:#446E9B;stroke-width:3.125;" x1="1113.0208" x2="1113.0208" y1="597.4609" y2="613.0859"/><polygon fill="#446E9B" points="1108.8542,602.6693,1113.0208,613.0859,1117.1875,602.6693,1113.0208,606.8359" style="stroke:#446E9B;stroke-width:1.0416666666666667;"/><line style="stroke:#446E9B;stroke-width:3.125;" x1="147.9167" x2="147.9167" y1="756.5776" y2="761.7859"/><line style="stroke:#446E9B;stroke-width:3.125;" x1="147.9167" x2="967.7083" y1="761.7859" y2="761.7859"/><line style="stroke:#446E9B;stroke-width:3.125;" x1="967.7083" x2="967.7083" y1="761.7859" y2="777.4109"/><polygon fill="#446E9B" points="963.5417,766.9942,967.7083,777.4109,971.875,766.9942,967.7083,771.1609" style="stroke:#446E9B;stroke-width:1.0416666666666667;"/><line style="stroke:#446E9B;stroke-width:3.125;" x1="967.7083" x2="967.7083" y1="933.4025" y2="938.6108"/><line style="stroke:#446E9B;stroke-width:3.125;" x1="967.7083" x2="147.9167" y1="938.6108" y2="938.6108"/><line style="stroke:#446E9B;stroke-width:3.125;" x1="147.9167" x2="147.9167" y1="938.6108" y2="954.2358"/><polygon fill="#446E9B" points="143.75,943.8192,147.9167,954.2358,152.0833,943.8192,147.9167,947.9858" style="stroke:#446E9B;stroke-width:1.0416666666666667;"/><line style="stroke:#446E9B;stroke-width:3.125;" x1="1113.0208" x2="1113.0208" y1="651.1943" y2="656.4026"/><line style="stroke:#446E9B;stroke-width:3.125;" x1="1113.0208" x2="293.2292" y1="656.4026" y2="656.4026"/><line style="stroke:#446E9B;stroke-width:3.125;" x1="293.2292" x2="293.2292" y1="656.4026" y2="672.0276"/><polygon fill="#446E9B" points="289.0625,661.6109,293.2292,672.0276,297.3958,661.6109,293.2292,665.7776" style="stroke:#446E9B;stroke-width:1.0416666666666667;"/><line style="stroke:#446E9B;stroke-width:3.125;" x1="1310.1563" x2="1310.1563" y1="486.8693" y2="492.0776"/><line style="stroke:#446E9B;stroke-width:3.125;" x1="1310.1563" x2="490.3646" y1="492.0776" y2="492.0776"/><line style="stroke:#446E9B;stroke-width:3.125;" x1="490.3646" x2="490.3646" y1="492.0776" y2="507.7026"/><polygon fill="#446E9B" points="486.1979,497.286,490.3646,507.7026,494.5313,497.286,490.3646,501.4526" style="stroke:#446E9B;stroke-width:1.0416666666666667;"/><text fill="#304D6D" font-family="Verdana" font-size="12.5" lengthAdjust="spacing" textLength="66.6667" x="374.7396" y="99.3449">Utilisateur</text><text fill="#304D6D" font-family="Verdana" font-size="12.5" lengthAdjust="spacing" textLength="103.125" x="1106.901" y="99.3449">Site web Igame</text><!--SRC=[XP9DRXin38NtSmhMcpXNy2m2j-YYYxG6aXv0bZan0uqqeQWa1NoOBfjp-68bH-COjWDaIxv7Vlpv8bli4VBWF0QtReGa82pz5WKPIeH7BCtkjr2Wx0GBxveiZgLPt27u52Dw4-x_GavH0_qWs3QBfVVxjqrD10TPLQJvsTTKX9uAmWQjykkiRNPt90Wlk8OV3wx7dPgxZXI08M0ULR2XFAH8QmkuP_IQAPorIFPCWvNEW083qsjxHhjOEVQfCB61Q5oi-MNTI-Z1FQYqcF9JIefTujvLadVF2GXrC5y-wlplUmLNj4aav9jhq3j4cFygTDq0B0x2WAV2LfCNAAg_HH560rVZQAjwstEuAaUEiS095u2HhJXDmu-zI9yYoZcMDlgMOaVS6zgLyridxHZ_W4d5z-neck9GiihFvwiBN-iXACbs_s_wa0joTNwFp-bFNQ6TbGc3INtb6Yym8PrDQLqF9rDpZpdRWMTBcm9u_rPoffbvCMI4-SyKZpCBnL8VOpY-q_H5eoLkg6jEZ9_RgYbB6lu3]--></g></svg>