<?xml version="1.0" encoding="us-ascii" standalone="no"?><svg xmlns="http://www.w3.org/2000/svg" xmlns:xlink="http://www.w3.org/1999/xlink" contentStyleType="text/css" height="1560.4167px" preserveAspectRatio="none" style="width:1210px;height:1560px;" version="1.1" viewBox="0 0 1210 1560" width="1210.4167px" zoomAndPan="magnify"><defs><linearGradient id="guguvs21q1rd60" x1="50%" x2="50%" y1="0%" y2="100%"><stop offset="0%" stop-color="#B8B8B8"/><stop offset="100%" stop-color="#999999"/></linearGradient><linearGradient id="guguvs21q1rd61" x1="50%" x2="50%" y1="0%" y2="100%"><stop offset="0%" stop-color="#B8B8B8"/><stop offset="100%" stop-color="#6B6B6B"/></linearGradient><linearGradient id="guguvs21q1rd62" x1="50%" x2="50%" y1="0%" y2="100%"><stop offset="0%" stop-color="#7C9AB9"/><stop offset="100%" stop-color="#304D6D"/></linearGradient><linearGradient id="guguvs21q1rd63" x1="50%" x2="50%" y1="0%" y2="100%"><stop offset="0%" stop-color="#70B8F7"/><stop offset="100%" stop-color="#246BAA"/></linearGradient></defs><g><rect fill="url(#guguvs21q1rd60)" height="48.2361" id="_title" rx="4.1667" ry="4.1667" style="stroke:#6B6B6B;stroke-width:1.0416666666666667;" width="270.8333" x="465.1042" y="20.8333"/><text fill="#304D6D" font-family="Verdana" font-size="20.8333" font-weight="bold" lengthAdjust="spacing" textLength="247.9167" x="476.5625" y="53.2369">Processus (niveau 1)</text><!--cluster Solution--><g id="cluster_Solution"><path d="M421.875,86.7778 L486.4583,86.7778 A6.25,6.25 0 0 1 490.625,90.9444 L497.9167,118.6361 L835.4167,118.6361 A4.1667,4.1667 0 0 1 839.5833,122.8027 L839.5833,1544.0694 A4.1667,4.1667 0 0 1 835.4167,1548.2361 L421.875,1548.2361 A4.1667,4.1667 0 0 1 417.7083,1544.0694 L417.7083,90.9444 A4.1667,4.1667 0 0 1 421.875,86.7778 " fill="#DCDCDC" style="stroke:#446E9B;stroke-width:2.0833333333333335;"/><line style="stroke:#446E9B;stroke-width:2.0833333333333335;" x1="417.7083" x2="497.9167" y1="118.6361" y2="118.6361"/><text fill="#446E9B" font-family="Verdana" font-size="12.5" font-weight="bold" lengthAdjust="spacing" textLength="56.25" x="427.0833" y="106.6366">Solution</text></g><!--cluster Infolettre--><g id="cluster_Infolettre"><rect fill="url(#guguvs21q1rd61)" height="335.4167" rx="4.1667" ry="4.1667" style="stroke:#446E9B;stroke-width:1.0416666666666667;" width="316.6667" x="470.3125" y="497.1944"/><rect fill="url(#guguvs21q1rd61)" height="10.4167" style="stroke:#446E9B;stroke-width:1.0416666666666667;" width="15.625" x="766.1458" y="502.4028"/><rect fill="url(#guguvs21q1rd61)" height="2.0833" style="stroke:#446E9B;stroke-width:1.0416666666666667;" width="4.1667" x="764.0625" y="504.4861"/><rect fill="url(#guguvs21q1rd61)" height="2.0833" style="stroke:#446E9B;stroke-width:1.0416666666666667;" width="4.1667" x="764.0625" y="508.6528"/><text fill="#FFFFFF" font-family="Verdana" font-size="12.5" font-weight="bold" lengthAdjust="spacing" textLength="65.625" x="595.8333" y="528.5116">Infolettre</text></g><!--cluster eCommerce--><g id="cluster_eCommerce"><rect fill="url(#guguvs21q1rd61)" height="319.7917" rx="4.1667" ry="4.1667" style="stroke:#446E9B;stroke-width:1.0416666666666667;" width="347.9167" x="454.6875" y="865.9444"/><rect fill="url(#guguvs21q1rd61)" height="10.4167" style="stroke:#446E9B;stroke-width:1.0416666666666667;" width="15.625" x="781.7708" y="871.1528"/><rect fill="url(#guguvs21q1rd61)" height="2.0833" style="stroke:#446E9B;stroke-width:1.0416666666666667;" width="4.1667" x="779.6875" y="873.2361"/><rect fill="url(#guguvs21q1rd61)" height="2.0833" style="stroke:#446E9B;stroke-width:1.0416666666666667;" width="4.1667" x="779.6875" y="877.4028"/><text fill="#FFFFFF" font-family="Verdana" font-size="12.5" font-weight="bold" lengthAdjust="spacing" textLength="81.25" x="588.0208" y="897.2616">eCommerce</text></g><!--cluster Social--><g id="cluster_Social"><rect fill="url(#guguvs21q1rd61)" height="312.5" rx="4.1667" ry="4.1667" style="stroke:#446E9B;stroke-width:1.0416666666666667;" width="366.6667" x="445.3125" y="1210.7361"/><rect fill="url(#guguvs21q1rd61)" height="10.4167" style="stroke:#446E9B;stroke-width:1.0416666666666667;" width="15.625" x="791.1458" y="1215.9444"/><rect fill="url(#guguvs21q1rd61)" height="2.0833" style="stroke:#446E9B;stroke-width:1.0416666666666667;" width="4.1667" x="789.0625" y="1218.0278"/><rect fill="url(#guguvs21q1rd61)" height="2.0833" style="stroke:#446E9B;stroke-width:1.0416666666666667;" width="4.1667" x="789.0625" y="1222.1944"/><text fill="#FFFFFF" font-family="Verdana" font-size="12.5" font-weight="bold" lengthAdjust="spacing" textLength="41.6667" x="607.8125" y="1242.0532">Social</text></g><g id="elem_CreateAccount"><ellipse cx="628.5123" cy="153.626" fill="url(#guguvs21q1rd62)" rx="95.179" ry="21.5358" style="stroke:#000000;stroke-width:2.0833333333333335;"/><text fill="#FFFFFF" font-family="Verdana" font-size="12.5" lengthAdjust="spacing" textLength="109.375" x="573.8248" y="156.514">Cr&#233;er un compte</text></g><g id="elem_ViewContent"><ellipse cx="628.7425" cy="252.6304" fill="url(#guguvs21q1rd62)" rx="194.3675" ry="41.3735" style="stroke:#000000;stroke-width:2.0833333333333335;"/><text fill="#FFFFFF" font-family="Verdana" font-size="12.5" lengthAdjust="spacing" textLength="337.5" x="459.9925" y="255.5184">Consulter le contenu: site, blogue, r&#233;seaux sociaux</text></g><g id="elem_PublishBlog"><ellipse cx="628.8308" cy="354.3147" fill="url(#guguvs21q1rd62)" rx="109.0391" ry="24.3078" style="stroke:#000000;stroke-width:2.0833333333333335;"/><text fill="#FFFFFF" font-family="Verdana" font-size="12.5" lengthAdjust="spacing" textLength="145.8333" x="555.9141" y="357.2027">Publier dans le blogue</text></g><g id="elem_EditSiteTheme"><ellipse cx="628.7348" cy="443.8789" fill="url(#guguvs21q1rd62)" rx="127.1723" ry="27.9345" style="stroke:#000000;stroke-width:2.0833333333333335;"/><text fill="#FFFFFF" font-family="Verdana" font-size="12.5" lengthAdjust="spacing" textLength="189.5833" x="533.9431" y="446.7669">Modifier le visuel du site web</text></g><g id="elem_SendNewsletter"><ellipse cx="628.7846" cy="579.5138" fill="url(#guguvs21q1rd62)" rx="133.4721" ry="29.1944" style="stroke:#000000;stroke-width:2.0833333333333335;"/><text fill="#FFFFFF" font-family="Verdana" font-size="12.5" lengthAdjust="spacing" textLength="204.1667" x="526.7013" y="582.4018">&#201;crire et envoyer une infolettre</text></g><g id="elem_SubscribeNewsletter"><ellipse cx="628.5172" cy="670.1895" fill="url(#guguvs21q1rd62)" rx="110.288" ry="24.5576" style="stroke:#000000;stroke-width:2.0833333333333335;"/><text fill="#FFFFFF" font-family="Verdana" font-size="12.5" lengthAdjust="spacing" textLength="148.9583" x="554.038" y="673.0775">S'abonner &#224; l'infolettre</text></g><g id="elem_UnsubscribeNewsletter"><ellipse cx="628.6603" cy="759.5932" fill="url(#guguvs21q1rd62)" rx="127.6187" ry="28.0237" style="stroke:#000000;stroke-width:2.0833333333333335;"/><text fill="#FFFFFF" font-family="Verdana" font-size="12.5" lengthAdjust="spacing" textLength="190.625" x="533.3478" y="762.4811">Se d&#233;sabonner de l'infolettre</text></g><g id="elem_ViewAndBuyGame"><ellipse cx="628.8309" cy="937.9606" fill="url(#guguvs21q1rd62)" rx="123.6226" ry="27.2245" style="stroke:#000000;stroke-width:2.0833333333333335;"/><text fill="#FFFFFF" font-family="Verdana" font-size="12.5" lengthAdjust="spacing" textLength="181.25" x="538.2059" y="940.8486">Consulter et acheter un jeu</text></g><g id="elem_ViewMyGames"><ellipse cx="628.5193" cy="1032.4816" fill="url(#guguvs21q1rd62)" rx="143.1026" ry="31.1205" style="stroke:#000000;stroke-width:2.0833333333333335;"/><text fill="#FFFFFF" font-family="Verdana" font-size="12.5" lengthAdjust="spacing" textLength="226.0417" x="515.4984" y="1035.3696">Acc&#233;der &#224; ma biblioth&#232;que de jeux</text></g><g id="elem_EditGameList"><ellipse cx="628.5176" cy="1134.7729" fill="url(#guguvs21q1rd62)" rx="157.1634" ry="33.9327" style="stroke:#000000;stroke-width:2.0833333333333335;"/><text fill="#FFFFFF" font-family="Verdana" font-size="12.5" lengthAdjust="spacing" textLength="257.2917" x="499.8718" y="1137.6609">Modifier la biblioth&#232;que de jeux vendus</text></g><g id="elem_EditProfile"><ellipse cx="628.5343" cy="1285.818" fill="url(#guguvs21q1rd62)" rx="138.951" ry="30.2902" style="stroke:#000000;stroke-width:2.0833333333333335;"/><text fill="#FFFFFF" font-family="Verdana" font-size="12.5" lengthAdjust="spacing" textLength="216.6667" x="520.201" y="1288.7059">Modifier les informations du profil</text></g><g id="elem_AddContact"><ellipse cx="628.5449" cy="1375.2992" fill="url(#guguvs21q1rd62)" rx="99.3782" ry="22.3756" style="stroke:#000000;stroke-width:2.0833333333333335;"/><text fill="#FFFFFF" font-family="Verdana" font-size="12.5" lengthAdjust="spacing" textLength="120.8333" x="568.1282" y="1378.1872">Ajouter un contact</text></g><g id="elem_ChatWithContact"><ellipse cx="628.6743" cy="1470.0126" fill="url(#guguvs21q1rd62)" rx="166.6951" ry="35.839" style="stroke:#000000;stroke-width:2.0833333333333335;"/><text fill="#FFFFFF" font-family="Verdana" font-size="12.5" lengthAdjust="spacing" textLength="278.125" x="489.6118" y="1472.9006">D&#233;marrer une discussion (texte ou vocale)</text></g><!--entity User--><g id="elem_User"><ellipse cx="195.3125" cy="867.5069" fill="#008000" rx="16.6667" ry="16.6667" style="stroke:#304D6D;stroke-width:1.0416666666666667;"/><path d="M195.3125,888.3403 C199.4792,888.3403 202.6042,888.3403 206.7708,884.1736 C215.1042,884.1736 223.4375,892.5069 223.4375,900.8403 L223.4375,905.0069 C223.4375,909.1736 219.2708,913.3403 215.1042,913.3403 L175.5208,913.3403 C171.3542,913.3403 167.1875,909.1736 167.1875,905.0069 L167.1875,900.8403 C167.1875,892.5069 175.5208,884.1736 183.8542,884.1736 C188.0208,888.3403 191.1458,888.3403 195.3125,888.3403 " fill="#008000" style="stroke:#304D6D;stroke-width:1.0416666666666667;"/><text fill="#000000" font-family="Verdana" font-size="12.5" font-weight="bold" lengthAdjust="spacing" textLength="71.875" x="159.375" y="932.1574">Utilisateur</text></g><!--entity Admin--><g id="elem_Admin"><ellipse cx="974.4792" cy="485.2153" fill="#8B0000" rx="16.6667" ry="16.6667" style="stroke:#304D6D;stroke-width:1.0416666666666667;"/><path d="M974.4792,506.0486 C978.6458,506.0486 981.7708,506.0486 985.9375,501.8819 C994.2708,501.8819 1002.6042,510.2153 1002.6042,518.5486 L1002.6042,522.7153 C1002.6042,526.8819 998.4375,531.0486 994.2708,531.0486 L954.6875,531.0486 C950.5208,531.0486 946.3542,526.8819 946.3542,522.7153 L946.3542,518.5486 C946.3542,510.2153 954.6875,501.8819 963.0208,501.8819 C967.1875,506.0486 970.3125,506.0486 974.4792,506.0486 " fill="#8B0000" style="stroke:#304D6D;stroke-width:1.0416666666666667;"/><text fill="#000000" font-family="Verdana" font-size="12.5" font-weight="bold" lengthAdjust="spacing" textLength="102.0833" x="923.4375" y="549.8657">Administrateur</text></g><!--entity Discord--><g id="elem_Discord"><ellipse cx="974.4792" cy="1442.5069" fill="#483D8B" rx="16.6667" ry="16.6667" style="stroke:#304D6D;stroke-width:1.0416666666666667;"/><path d="M974.4792,1463.3403 C978.6458,1463.3403 981.7708,1463.3403 985.9375,1459.1736 C994.2708,1459.1736 1002.6042,1467.5069 1002.6042,1475.8403 L1002.6042,1480.0069 C1002.6042,1484.1736 998.4375,1488.3403 994.2708,1488.3403 L954.6875,1488.3403 C950.5208,1488.3403 946.3542,1484.1736 946.3542,1480.0069 L946.3542,1475.8403 C946.3542,1467.5069 954.6875,1459.1736 963.0208,1459.1736 C967.1875,1463.3403 970.3125,1463.3403 974.4792,1463.3403 " fill="#483D8B" style="stroke:#304D6D;stroke-width:1.0416666666666667;"/><text fill="#000000" font-family="Verdana" font-size="12.5" font-weight="bold" lengthAdjust="spacing" textLength="52.0833" x="948.4375" y="1507.1574">Discord</text></g><g id="elem_GMN37"><path d="M1123.9583,498.7569 L1123.9583,508.6528 L1030.8438,512.8194 L1123.9583,516.9861 L1123.9583,526.4486 A4.1667,4.1667 0 0 0 1128.125,530.6152 L1193.75,530.6152 A4.1667,4.1667 0 0 0 1197.9167,526.4486 L1197.9167,505.0069 L1187.5,494.5903 L1128.125,494.5903 A4.1667,4.1667 0 0 0 1123.9583,498.7569 " fill="url(#guguvs21q1rd63)" style="stroke:#246BAA;stroke-width:1.0416666666666667;"/><path d="M1187.5,494.5903 L1187.5,502.9236 A2.0833,2.0833 0 0 0 1189.5833,505.0069 L1197.9167,505.0069 L1187.5,494.5903 " fill="url(#guguvs21q1rd63)" style="stroke:#246BAA;stroke-width:1.0416666666666667;"/><text fill="#FFFFFF" font-family="Verdana" font-size="12.5" lengthAdjust="spacing" textLength="41.6667" x="1135.4167" y="517.5741">Acteur</text></g><g id="elem_GMN40"><path d="M1123.9583,1456.0486 L1123.9583,1465.9444 L1005.9688,1470.1111 L1123.9583,1474.2778 L1123.9583,1483.7402 A4.1667,4.1667 0 0 0 1128.125,1487.9069 L1193.75,1487.9069 A4.1667,4.1667 0 0 0 1197.9167,1483.7402 L1197.9167,1462.2986 L1187.5,1451.8819 L1128.125,1451.8819 A4.1667,4.1667 0 0 0 1123.9583,1456.0486 " fill="url(#guguvs21q1rd63)" style="stroke:#246BAA;stroke-width:1.0416666666666667;"/><path d="M1187.5,1451.8819 L1187.5,1460.2153 A2.0833,2.0833 0 0 0 1189.5833,1462.2986 L1197.9167,1462.2986 L1187.5,1451.8819 " fill="url(#guguvs21q1rd63)" style="stroke:#246BAA;stroke-width:1.0416666666666667;"/><text fill="#FFFFFF" font-family="Verdana" font-size="12.5" lengthAdjust="spacing" textLength="41.6667" x="1135.4167" y="1474.8657">Acteur</text></g><g id="elem_GMN43"><path d="M16.6667,881.0486 L16.6667,908.7402 A4.1667,4.1667 0 0 0 20.8333,912.9069 L86.4583,912.9069 A4.1667,4.1667 0 0 0 90.625,908.7402 L90.625,899.2778 L154.0104,895.1111 L90.625,890.9444 L90.625,887.2986 L80.2083,876.8819 L20.8333,876.8819 A4.1667,4.1667 0 0 0 16.6667,881.0486 " fill="url(#guguvs21q1rd63)" style="stroke:#246BAA;stroke-width:1.0416666666666667;"/><path d="M80.2083,876.8819 L80.2083,885.2153 A2.0833,2.0833 0 0 0 82.2917,887.2986 L90.625,887.2986 L80.2083,876.8819 " fill="url(#guguvs21q1rd63)" style="stroke:#246BAA;stroke-width:1.0416666666666667;"/><text fill="#FFFFFF" font-family="Verdana" font-size="12.5" lengthAdjust="spacing" textLength="41.6667" x="28.125" y="899.8657">Acteur</text></g><g id="elem_GMN46"><path d="M906.25,1271.6736 L906.25,1281.5694 L768.0208,1285.7361 L906.25,1289.9028 L906.25,1299.3652 A4.1667,4.1667 0 0 0 910.4167,1303.5319 L1038.5417,1303.5319 A4.1667,4.1667 0 0 0 1042.7083,1299.3652 L1042.7083,1277.9236 L1032.2917,1267.5069 L910.4167,1267.5069 A4.1667,4.1667 0 0 0 906.25,1271.6736 " fill="url(#guguvs21q1rd63)" style="stroke:#246BAA;stroke-width:1.0416666666666667;"/><path d="M1032.2917,1267.5069 L1032.2917,1275.8403 A2.0833,2.0833 0 0 0 1034.375,1277.9236 L1042.7083,1277.9236 L1032.2917,1267.5069 " fill="url(#guguvs21q1rd63)" style="stroke:#246BAA;stroke-width:1.0416666666666667;"/><text fill="#FFFFFF" font-family="Verdana" font-size="12.5" lengthAdjust="spacing" textLength="104.1667" x="917.7083" y="1290.4907">Cas d'utilisation</text></g><g id="elem_GMN49"><path d="M888.5417,810.2153 L888.5417,837.9069 A4.1667,4.1667 0 0 0 892.7083,842.0736 L1056.25,842.0736 A4.1667,4.1667 0 0 0 1060.4167,837.9069 L1060.4167,816.4653 L1050,806.0486 L892.7083,806.0486 A4.1667,4.1667 0 0 0 888.5417,810.2153 " fill="url(#guguvs21q1rd63)" style="stroke:#246BAA;stroke-width:1.0416666666666667;"/><path d="M1050,806.0486 L1050,814.3819 A2.0833,2.0833 0 0 0 1052.0833,816.4653 L1060.4167,816.4653 L1050,806.0486 " fill="url(#guguvs21q1rd63)" style="stroke:#246BAA;stroke-width:1.0416666666666667;"/><text fill="#FFFFFF" font-family="Verdana" font-size="12.5" lengthAdjust="spacing" textLength="139.5833" x="900" y="829.0324">Module de la solution</text></g><!--reverse link SendNewsletter to Admin--><g id="link_SendNewsletter_Admin"><path d="M749.5551,563.5646 C783.3364,558.4709 814.1458,553.1944 847.9167,546.1528 C871.0938,541.3194 896.375,534.8403 918.1354,528.8819 " fill="none" id="SendNewsletter-backto-Admin" style="stroke:#446E9B;stroke-width:3.125;"/><polygon fill="#446E9B" points="743.375,564.4965,753.2665,567.2188,748.5251,563.7199,752.024,558.9786,743.375,564.4965" style="stroke:#446E9B;stroke-width:3.125;"/></g><!--reverse link PublishBlog to Admin--><g id="link_PublishBlog_Admin"><path d="M737.694,363.6087 C775.7461,369.6295 812.1875,379.1007 847.9167,397.1944 C881.4896,414.1944 912.6354,442.7882 935.5104,467.2778 " fill="none" id="PublishBlog-backto-Admin" style="stroke:#446E9B;stroke-width:3.125;"/><polygon fill="#446E9B" points="731.5208,362.6319,740.1295,368.2125,736.6652,363.4459,741.4318,359.9816,731.5208,362.6319" style="stroke:#446E9B;stroke-width:3.125;"/></g><!--reverse link EditGameList to Admin--><g id="link_EditGameList_Admin"><path d="M783.75,1121.8595 C810.2604,1113.4637 829.3542,1102.1111 847.9167,1081.5694 C892.0938,1032.6736 874.2604,852.1528 888.5417,787.8194 C906.7813,705.6215 937.7917,612.4965 956.8542,558.434 " fill="none" id="EditGameList-backto-Admin" style="stroke:#446E9B;stroke-width:3.125;"/><polygon fill="#446E9B" points="777.7917,1123.7465,787.9872,1124.8882,782.7569,1122.174,785.4712,1116.9438,777.7917,1123.7465" style="stroke:#446E9B;stroke-width:3.125;"/></g><!--reverse link EditSiteTheme to Admin--><g id="link_EditSiteTheme_Admin"><path d="M729.7431,464.0768 C791.9619,476.5247 865.3438,491.2048 917.75,501.684 " fill="none" id="EditSiteTheme-backto-Admin" style="stroke:#446E9B;stroke-width:3.125;"/><polygon fill="#446E9B" points="723.6146,462.8507,731.99,468.7755,728.7217,463.8724,733.6248,460.6041,723.6146,462.8507" style="stroke:#446E9B;stroke-width:3.125;"/></g><!--link User to ViewContent--><g id="link_User_ViewContent"><path d="M198.1563,849.5798 C205.1979,738.2778 239.7604,451.3715 409.375,311.7778 C427.7188,296.684 443.7236,287.5766 466.4111,279.16 " fill="none" id="User-to-ViewContent" style="stroke:#446E9B;stroke-width:3.125;"/><polygon fill="#446E9B" points="472.2708,276.9861,462.0319,276.3404,467.3877,278.7976,464.9304,284.1534,472.2708,276.9861" style="stroke:#446E9B;stroke-width:3.125;"/></g><!--link User to CreateAccount--><g id="link_User_CreateAccount"><path d="M195.7188,849.5486 C195.9479,758.9757 204.0938,551.3507 267.7083,391.9861 C307.9583,291.1736 317.7396,251.2153 409.375,193.0278 C446.0208,169.7569 486.5051,159.9818 527.2967,155.5651 " fill="none" id="User-to-CreateAccount" style="stroke:#446E9B;stroke-width:3.125;"/><polygon fill="#446E9B" points="533.5104,154.8923,523.7414,151.759,528.3323,155.453,524.6384,160.044,533.5104,154.8923" style="stroke:#446E9B;stroke-width:3.125;"/></g><!--link User to EditProfile--><g id="link_User_EditProfile"><path d="M219.8854,940.5382 C254.1875,1002.9861 323.3125,1115.5694 409.375,1185.7361 C450.5625,1219.309 499.0032,1242.049 543.1282,1258.6219 " fill="none" id="User-to-EditProfile" style="stroke:#446E9B;stroke-width:3.125;"/><polygon fill="#446E9B" points="548.9792,1260.8194,541.6678,1253.6225,544.1034,1258.9881,538.7378,1261.4237,548.9792,1260.8194" style="stroke:#446E9B;stroke-width:3.125;"/></g><!--link User to ViewAndBuyGame--><g id="link_User_ViewAndBuyGame"><path d="M236.5417,899.0903 C299.5833,905.3298 417.7596,917.037 509.4054,926.1099 " fill="none" id="User-to-ViewAndBuyGame" style="stroke:#446E9B;stroke-width:3.125;"/><polygon fill="#446E9B" points="515.625,926.7257,506.7061,921.6557,510.442,926.2126,505.8851,929.9485,515.625,926.7257" style="stroke:#446E9B;stroke-width:3.125;"/></g><!--link User to ViewMyGames--><g id="link_User_ViewMyGames"><path d="M236.8438,914.0903 C279.1667,933.3611 347.8333,963.0694 409.375,982.6111 C445.3125,994.0173 479.2418,1002.613 515.1064,1010.5609 " fill="none" id="User-to-ViewMyGames" style="stroke:#446E9B;stroke-width:3.125;"/><polygon fill="#446E9B" points="521.2083,1011.9132,512.9569,1005.8168,516.1234,1010.7863,511.1539,1013.9528,521.2083,1011.9132" style="stroke:#446E9B;stroke-width:3.125;"/></g><!--link User to AddContact--><g id="link_User_AddContact"><path d="M200.5938,940.8298 C207.6042,999.6111 225.3125,1103.4028 267.7083,1181.5694 C311.75,1262.7673 328.5208,1288.9861 409.375,1333.6528 C446.4271,1354.1215 485.6297,1363.8646 525.4005,1369.2604 " fill="none" id="User-to-AddContact" style="stroke:#446E9B;stroke-width:3.125;"/><polygon fill="#446E9B" points="531.5938,1370.1007,522.864,1364.7114,526.4327,1369.4005,521.7437,1372.9691,531.5938,1370.1007" style="stroke:#446E9B;stroke-width:3.125;"/></g><!--link User to ChatWithContact--><g id="link_User_ChatWithContact"><path d="M198.7292,940.5069 C204.7188,1039.9548 223.2292,1273.2257 267.7083,1336.7778 C315.2813,1404.7361 395.5873,1436.8195 471.8269,1453.1945 " fill="none" id="User-to-ChatWithContact" style="stroke:#446E9B;stroke-width:3.125;"/><polygon fill="#446E9B" points="477.9375,1454.5069,469.6465,1448.4645,472.8453,1453.4132,467.8966,1456.612,477.9375,1454.5069" style="stroke:#446E9B;stroke-width:3.125;"/></g><!--link User to SubscribeNewsletter--><g id="link_User_SubscribeNewsletter"><path d="M223.8229,849.6215 C235.875,831.9444 251.0729,812.3507 267.7083,797.1944 C321.875,747.8298 340.9271,738.9965 409.375,712.8194 C447.9583,698.0694 486.2531,689.2198 524.9302,682.7198 " fill="none" id="User-to-SubscribeNewsletter" style="stroke:#446E9B;stroke-width:3.125;"/><polygon fill="#446E9B" points="531.0938,681.684,521.1578,679.1287,525.9574,682.5472,522.539,687.3468,531.0938,681.684" style="stroke:#446E9B;stroke-width:3.125;"/></g><!--link User to UnsubscribeNewsletter--><g id="link_User_UnsubscribeNewsletter"><path d="M236.4688,871.0903 C278.1979,847.2361 346.1563,811.4653 409.375,791.9861 C441.4896,782.0903 471.0439,776.0812 504.1481,771.2792 " fill="none" id="User-to-UnsubscribeNewsletter" style="stroke:#446E9B;stroke-width:3.125;"/><polygon fill="#446E9B" points="510.3333,770.3819,500.4573,767.6043,505.1789,771.1296,501.6536,775.8513,510.3333,770.3819" style="stroke:#446E9B;stroke-width:3.125;"/></g><!--reverse link User to SendNewsletter--><g id="link_User_SendNewsletter"><path d="M210.7184,843.7734 C221.9789,808.6067 239.2813,766.0173 267.7083,730.5278 C316.3958,669.7465 338.3542,659.3507 409.375,627.4028 C442.4479,612.5278 480.4792,602.1215 515.4271,594.9132 " fill="none" id="User-backto-SendNewsletter" style="stroke:#446E9B;stroke-width:3.125;"/><polygon fill="#446E9B" points="208.8125,849.7257,215.6396,842.0678,210.4008,844.7654,207.7032,839.5266,208.8125,849.7257" style="stroke:#446E9B;stroke-width:3.125;"/><text fill="#000000" font-family="Verdana" font-size="12.5" font-weight="bold" lengthAdjust="spacing" textLength="120.8333" x="273.9583" y="625.3866">Re&#231;oit un courriel</text></g><!--link ChatWithContact to Discord--><g id="link_ChatWithContact_Discord"><path d="M795.5208,1470.1111 C852.0104,1470.1111 903.1146,1470.1111 936.8958,1470.1111 " fill="none" id="ChatWithContact-to-Discord" style="stroke:#446E9B;stroke-width:3.125;"/><polygon fill="#446E9B" points="943.1458,1470.1111,933.7708,1465.9444,937.9375,1470.1111,933.7708,1474.2778,943.1458,1470.1111" style="stroke:#446E9B;stroke-width:3.125;"/></g><!--link Infolettre to GMN49--><g id="link_Infolettre_GMN49"><path d="M787.1399,824.2778 C788.0335,824.2778 788.9276,824.2778 789.8222,824.2778 C791.6112,824.2778 793.402,824.2778 795.1937,824.2778 C798.7771,824.2778 802.3642,824.2778 805.9487,824.2778 C834.625,824.2778 863.138,824.2778 888.2917,824.2778 " fill="none" id="Infolettre-GMN49" style="stroke:#446E9B;stroke-width:3.125;stroke-dasharray:7.0,7.0;"/></g><!--SRC=[VLNRRjD047ttLmojH1E9I5JYgKL8IGeH4aLLG-5vxPqqswntmbwILeWFu2zuWto7VupnsecTnDGljdVEpEwUEMVNAwyHRYnbw5nmq3DgXIB0UJzvuUUO8xYbo52BD4aqpZnu0glkvnwaifXvHIPn2sMMmeeSXjRI-WCPFoPD5aPQP8kkyDG_yQmZqh8L5PadMqN46Xtbs4ujWyzKteOxAmU7cN0u8YlHjWiaSKuukVDAAoSy1di2mi6TGmkd4ujejf2Xp9LHpji65OVWz4hOnItABV1AkOmdYeZwky9CDQUETC0aOKeNuXvXIZgK5F9SGXcNaYNuaG0_Pv1HlYI3niF9fDYOOcE5ZaKdQ92_Qs3vzCQssF2AWubP7libRcoH9nnc6GNZMrWoBcZFS2OgOyhGX0jmokChI3NT1tvpESSgU0H7cU9thFTLuNeSyQrgDo7LYcj9OLnPiAeGyJ7avYCUQV3N9DLCLPElb0keGOOuEwmnZNdlfV9J7lXIogycusSIFnfEFfePQVJUOfk7ubTcMPQ07j2iw2boWg1su3Z158tyZ6jN3g5jigTd8YN3v4Bn6_JPOLP87LTFiJCLGJ9dsto9n_btJ7jtXQFDuPZo76ssjxUcRxmxaStHLnr_mB1hpz38KNYQY9gtcCS2A3QosbGk85NS5VBpuk_tWEL2ER_fxtLCTbtz-aygh9ZDu7QTA_C_iK-wTpOjzRGdtPOWN6oKpKLf2LVgOcbfflIkzatyRU_jWOBV2jzuTc2_CgOSLxyDzAhOvCBQMX6IZHcSAwttylJDwqkFZwn02h2YJ6ZaiVFBoaHpuRyfFs_NgtVLszTH7zuE1lMPa3JUg0nm76nprHtTUM0l7EFnV1eCta6lPSh-GMZF_uV15ftzZfADaBgYjKeEGmtjHqlPP_4mt66jGqYdUrgWag6ZXbp0BHP_IFbA8C5QXRfktk6IuZJrUPrmXmsn8AgRZcOr-PLi-QxX6-0OiptiEr7nxcHGNEppTLgjgP5Z5g8y2_KbLLwvHqb7vo7xAkZeKdQkg-yPpli7]--></g></svg>