<?xml version="1.0" encoding="us-ascii" standalone="no"?><svg xmlns="http://www.w3.org/2000/svg" xmlns:xlink="http://www.w3.org/1999/xlink" contentStyleType="text/css" height="683.3333px" preserveAspectRatio="none" style="width:1204px;height:683px;" version="1.1" viewBox="0 0 1204 683" width="1204.1667px" zoomAndPan="magnify"><defs><linearGradient id="g18kgf0t4hnt3v0" x1="50%" x2="50%" y1="0%" y2="100%"><stop offset="0%" stop-color="#B8B8B8"/><stop offset="100%" stop-color="#999999"/></linearGradient><linearGradient id="g18kgf0t4hnt3v1" x1="50%" x2="50%" y1="0%" y2="100%"><stop offset="0%" stop-color="#7C9AB9"/><stop offset="100%" stop-color="#304D6D"/></linearGradient><linearGradient id="g18kgf0t4hnt3v2" x1="50%" x2="50%" y1="0%" y2="100%"><stop offset="0%" stop-color="#B8B8B8"/><stop offset="100%" stop-color="#6B6B6B"/></linearGradient></defs><g><rect fill="url(#g18kgf0t4hnt3v0)" height="48.2361" id="_title" rx="4.1667" ry="4.1667" style="stroke:#6B6B6B;stroke-width:1.0416666666666667;" width="332.2917" x="434.5052" y="20.8333"/><text fill="#304D6D" font-family="Verdana" font-size="20.8333" font-weight="bold" lengthAdjust="spacing" textLength="309.375" x="445.9635" y="53.2369">Abonnement &#224; l'info-lettre</text><rect fill="url(#g18kgf0t4hnt3v0)" height="25.6083" style="stroke:url(#g18kgf0t4hnt3v0);stroke-width:1.0416666666666667;" width="1170.0521" x="15.625" y="81.5694"/><ellipse cx="307.5521" cy="122.8027" fill="#3399F3" rx="10.4167" ry="10.4167" style="stroke:#304D6D;stroke-width:1.0416666666666667;"/><rect fill="url(#g18kgf0t4hnt3v1)" height="38.1083" rx="4.1667" ry="4.1667" style="stroke:#304D6D;stroke-width:1.0416666666666667;" width="256.25" x="179.4271" y="154.0527"/><text fill="#FFFFFF" font-family="Verdana" font-size="12.5" lengthAdjust="spacing" textLength="233.3333" x="190.8854" y="178.0782">Acc&#233;der au bas de la page d'accueil</text><rect fill="url(#g18kgf0t4hnt3v1)" height="38.1083" rx="4.1667" ry="4.1667" style="stroke:#304D6D;stroke-width:1.0416666666666667;" width="341.6667" x="136.7188" y="212.9944"/><text fill="#FFFFFF" font-family="Verdana" font-size="12.5" lengthAdjust="spacing" textLength="318.75" x="148.1771" y="237.0199">Entrer une adresse courriel dans le champ d&#233;di&#233;</text><rect fill="url(#g18kgf0t4hnt3v1)" height="38.1083" rx="4.1667" ry="4.1667" style="stroke:#304D6D;stroke-width:1.0416666666666667;" width="331.25" x="141.9271" y="271.936"/><text fill="#FFFFFF" font-family="Verdana" font-size="12.5" lengthAdjust="spacing" textLength="308.3333" x="153.3854" y="295.9615">Cliquer sur le bouton "S'abonner &#224; l'info-lettre"</text><rect fill="url(#g18kgf0t4hnt3v1)" height="38.1083" rx="4.1667" ry="4.1667" style="stroke:#304D6D;stroke-width:1.0416666666666667;" width="217.7083" x="21.875" y="554.1443"/><text fill="#FFFFFF" font-family="Verdana" font-size="12.5" lengthAdjust="spacing" textLength="194.7917" x="33.3333" y="578.1698">confirmation de l'abonnement</text><line style="stroke:#3399F3;stroke-width:2.0833333333333335;" x1="15.625" x2="15.625" y1="81.5694" y2="671.4193"/><rect fill="url(#g18kgf0t4hnt3v1)" height="38.1083" rx="4.1667" ry="4.1667" style="stroke:#304D6D;stroke-width:1.0416666666666667;" width="271.875" x="694.7917" y="330.8777"/><text fill="#FFFFFF" font-family="Verdana" font-size="12.5" lengthAdjust="spacing" textLength="248.9583" x="706.25" y="354.9032">V&#233;rifier la validit&#233; de l'adresse courriel</text><polygon fill="url(#g18kgf0t4hnt3v2)" points="773.9583,389.8193,887.5,389.8193,900,402.6235,887.5,415.4277,773.9583,415.4277,761.4583,402.6235,773.9583,389.8193" style="stroke:#6B6B6B;stroke-width:1.0416666666666667;"/><text fill="#FFFFFF" font-family="Verdana" font-size="12.5" lengthAdjust="spacing" textLength="103.125" x="779.1667" y="407.5948">Adresse valide?</text><text fill="#FFFFFF" font-family="Verdana" font-size="12.5" lengthAdjust="spacing" textLength="21.875" x="734.375" y="394.7906">Oui</text><text fill="#FFFFFF" font-family="Verdana" font-size="12.5" lengthAdjust="spacing" textLength="26.0417" x="905.2083" y="394.7906">Non</text><rect fill="url(#g18kgf0t4hnt3v1)" height="38.1083" rx="4.1667" ry="4.1667" style="stroke:#304D6D;stroke-width:1.0416666666666667;" width="330.2083" x="488.8021" y="436.261"/><text fill="#FFFFFF" font-family="Verdana" font-size="12.5" lengthAdjust="spacing" textLength="307.2917" x="500.2604" y="460.2865">Enregistrer l'adresse dans la base de donn&#233;es</text><rect fill="url(#g18kgf0t4hnt3v1)" height="38.1083" rx="4.1667" ry="4.1667" style="stroke:#304D6D;stroke-width:1.0416666666666667;" width="298.9583" x="504.4271" y="495.2026"/><text fill="#FFFFFF" font-family="Verdana" font-size="12.5" lengthAdjust="spacing" textLength="276.0417" x="515.8854" y="519.2281">Afficher un message "Abonnement r&#233;ussi"</text><rect fill="url(#g18kgf0t4hnt3v1)" height="38.1083" rx="4.1667" ry="4.1667" style="stroke:#304D6D;stroke-width:1.0416666666666667;" width="335.4167" x="839.8438" y="436.261"/><text fill="#FFFFFF" font-family="Verdana" font-size="12.5" lengthAdjust="spacing" textLength="312.5" x="851.3021" y="460.2865">Afficher un message d'erreur "Adresse invalide"</text><polygon fill="url(#g18kgf0t4hnt3v2)" points="830.7292,602.6693,843.2292,615.1693,830.7292,627.6693,818.2292,615.1693,830.7292,602.6693" style="stroke:#6B6B6B;stroke-width:1.0416666666666667;"/><ellipse cx="830.7292" cy="659.9609" fill="none" rx="11.4583" ry="11.4583" style="stroke:#304D6D;stroke-width:1.0416666666666667;"/><ellipse cx="830.7292" cy="659.9609" fill="none" rx="6.25" ry="6.25" style="stroke:#304D6D;stroke-width:1.0416666666666667;"/><line style="stroke:#3399F3;stroke-width:2.0833333333333335;" x1="482.5521" x2="482.5521" y1="81.5694" y2="671.4193"/><line style="stroke:#3399F3;stroke-width:2.0833333333333335;" x1="1179.4271" x2="1179.4271" y1="81.5694" y2="671.4193"/><line style="stroke:#446E9B;stroke-width:3.125;" x1="307.5521" x2="307.5521" y1="133.2194" y2="154.0527"/><polygon fill="#446E9B" points="303.3854,143.6361,307.5521,154.0527,311.7188,143.6361,307.5521,147.8027" style="stroke:#446E9B;stroke-width:1.0416666666666667;"/><line style="stroke:#446E9B;stroke-width:3.125;" x1="307.5521" x2="307.5521" y1="192.1611" y2="212.9944"/><polygon fill="#446E9B" points="303.3854,202.5777,307.5521,212.9944,311.7188,202.5777,307.5521,206.7444" style="stroke:#446E9B;stroke-width:1.0416666666666667;"/><line style="stroke:#446E9B;stroke-width:3.125;" x1="307.5521" x2="307.5521" y1="251.1027" y2="271.936"/><polygon fill="#446E9B" points="303.3854,261.5194,307.5521,271.936,311.7188,261.5194,307.5521,265.686" style="stroke:#446E9B;stroke-width:1.0416666666666667;"/><line style="stroke:#446E9B;stroke-width:3.125;" x1="653.9063" x2="653.9063" y1="474.3693" y2="495.2026"/><polygon fill="#446E9B" points="649.7396,484.786,653.9063,495.2026,658.0729,484.786,653.9063,488.9526" style="stroke:#446E9B;stroke-width:1.0416666666666667;"/><line style="stroke:#446E9B;stroke-width:3.125;" x1="761.4583" x2="653.9063" y1="402.6235" y2="402.6235"/><line style="stroke:#446E9B;stroke-width:3.125;" x1="653.9063" x2="653.9063" y1="402.6235" y2="436.261"/><polygon fill="#446E9B" points="649.7396,425.8443,653.9063,436.261,658.0729,425.8443,653.9063,430.011" style="stroke:#446E9B;stroke-width:1.0416666666666667;"/><line style="stroke:#446E9B;stroke-width:3.125;" x1="900" x2="1007.5521" y1="402.6235" y2="402.6235"/><line style="stroke:#446E9B;stroke-width:3.125;" x1="1007.5521" x2="1007.5521" y1="402.6235" y2="436.261"/><polygon fill="#446E9B" points="1003.3854,425.8443,1007.5521,436.261,1011.7188,425.8443,1007.5521,430.011" style="stroke:#446E9B;stroke-width:1.0416666666666667;"/><line style="stroke:#446E9B;stroke-width:3.125;" x1="1007.5521" x2="1007.5521" y1="474.3693" y2="615.1693"/><line style="stroke:#446E9B;stroke-width:3.125;" x1="1007.5521" x2="843.2292" y1="615.1693" y2="615.1693"/><polygon fill="#446E9B" points="853.6458,611.0026,843.2292,615.1693,853.6458,619.3359,849.4792,615.1693" style="stroke:#446E9B;stroke-width:1.0416666666666667;"/><line style="stroke:#446E9B;stroke-width:3.125;" x1="830.7292" x2="830.7292" y1="368.986" y2="389.8193"/><polygon fill="#446E9B" points="826.5625,379.4027,830.7292,389.8193,834.8958,379.4027,830.7292,383.5693" style="stroke:#446E9B;stroke-width:1.0416666666666667;"/><line style="stroke:#446E9B;stroke-width:3.125;" x1="830.7292" x2="830.7292" y1="627.6693" y2="648.5026"/><polygon fill="#446E9B" points="826.5625,638.0859,830.7292,648.5026,834.8958,638.0859,830.7292,642.2526" style="stroke:#446E9B;stroke-width:1.0416666666666667;"/><line style="stroke:#446E9B;stroke-width:3.125;" x1="307.5521" x2="307.5521" y1="310.0444" y2="315.2527"/><line style="stroke:#446E9B;stroke-width:3.125;" x1="307.5521" x2="830.7292" y1="315.2527" y2="315.2527"/><line style="stroke:#446E9B;stroke-width:3.125;" x1="830.7292" x2="830.7292" y1="315.2527" y2="330.8777"/><polygon fill="#446E9B" points="826.5625,320.461,830.7292,330.8777,834.8958,320.461,830.7292,324.6277" style="stroke:#446E9B;stroke-width:1.0416666666666667;"/><line style="stroke:#446E9B;stroke-width:3.125;" x1="653.9063" x2="653.9063" y1="533.311" y2="538.5193"/><line style="stroke:#446E9B;stroke-width:3.125;" x1="653.9063" x2="130.7292" y1="538.5193" y2="538.5193"/><line style="stroke:#446E9B;stroke-width:3.125;" x1="130.7292" x2="130.7292" y1="538.5193" y2="554.1443"/><polygon fill="#446E9B" points="126.5625,543.7276,130.7292,554.1443,134.8958,543.7276,130.7292,547.8943" style="stroke:#446E9B;stroke-width:1.0416666666666667;"/><line style="stroke:#446E9B;stroke-width:3.125;" x1="130.7292" x2="130.7292" y1="592.2526" y2="615.1693"/><line style="stroke:#446E9B;stroke-width:3.125;" x1="130.7292" x2="818.2292" y1="615.1693" y2="615.1693"/><polygon fill="#446E9B" points="807.8125,611.0026,818.2292,615.1693,807.8125,619.3359,811.9792,615.1693" style="stroke:#446E9B;stroke-width:1.0416666666666667;"/><text fill="#304D6D" font-family="Verdana" font-size="12.5" lengthAdjust="spacing" textLength="66.6667" x="215.7552" y="99.3449">Utilisateur</text><text fill="#304D6D" font-family="Verdana" font-size="12.5" lengthAdjust="spacing" textLength="103.125" x="779.4271" y="99.3449">Site web Igame</text><!--SRC=[TP4zRiCm38LtdOBrucJe1PAXC8eENTeXQ7TQeXC2ikHIKhluC5rz3b-ij1Fq5rqfliVlFLtb4_K4QK1B7bkJENk2feqXw3nacD_1rnowUEqfPo4pFcNsd31JaT6aZ9BDhh5sdXm9O84M4pW2Zp3WaS3LQ6qXzdkpkmlg85020JgXb0XiB29C7Xo617hRdh0VmAaTpvDgRZs_51Mb8ijp6qkE0Qf3ZIka_26izcOyS2PuenRkZzZJQ7RFyoJSiQuhrojwTfpdQUMiVwFi3NUmQIxJTPbkjg1D1TWy5juQ08qYTEIqvlcoE8V0fGDQp9qYpXEb_I9fkexjQSqFlQulxLJVgfPvAYbnjIp_R5d5DeQEfSVCclwC_QbS1RyZarU4pKCCs_zkkvf4r5yXBlWSpcaLWOBZJhyt3Xy0]--></g></svg>