<?xml version="1.0" encoding="us-ascii" standalone="no"?><svg xmlns="http://www.w3.org/2000/svg" xmlns:xlink="http://www.w3.org/1999/xlink" contentStyleType="text/css" height="801.0417px" preserveAspectRatio="none" style="width:1530px;height:801px;" version="1.1" viewBox="0 0 1530 801" width="1530.2083px" zoomAndPan="magnify"><defs><linearGradient id="g1onc6itnlwyjy0" x1="50%" x2="50%" y1="0%" y2="100%"><stop offset="0%" stop-color="#B8B8B8"/><stop offset="100%" stop-color="#999999"/></linearGradient><linearGradient id="g1onc6itnlwyjy1" x1="50%" x2="50%" y1="0%" y2="100%"><stop offset="0%" stop-color="#7C9AB9"/><stop offset="100%" stop-color="#304D6D"/></linearGradient><linearGradient id="g1onc6itnlwyjy2" x1="50%" x2="50%" y1="0%" y2="100%"><stop offset="0%" stop-color="#B8B8B8"/><stop offset="100%" stop-color="#6B6B6B"/></linearGradient></defs><g><rect fill="url(#g1onc6itnlwyjy0)" height="48.2361" id="_title" rx="4.1667" ry="4.1667" style="stroke:#6B6B6B;stroke-width:1.0416666666666667;" width="421.875" x="552.7344" y="20.8333"/><text fill="#304D6D" font-family="Verdana" font-size="20.8333" font-weight="bold" lengthAdjust="spacing" textLength="398.9583" x="564.1927" y="53.2369">Modifier les informations du profil</text><rect fill="url(#g1onc6itnlwyjy0)" height="25.6083" style="stroke:url(#g1onc6itnlwyjy0);stroke-width:1.0416666666666667;" width="1496.0938" x="15.625" y="81.5694"/><ellipse cx="378.9063" cy="122.8027" fill="#3399F3" rx="10.4167" ry="10.4167" style="stroke:#304D6D;stroke-width:1.0416666666666667;"/><rect fill="url(#g1onc6itnlwyjy1)" height="38.1083" rx="4.1667" ry="4.1667" style="stroke:#304D6D;stroke-width:1.0416666666666667;" width="201.0417" x="278.3854" y="154.0527"/><text fill="#FFFFFF" font-family="Verdana" font-size="12.5" lengthAdjust="spacing" textLength="178.125" x="289.8438" y="178.0782">Se connecter &#224; son compte</text><rect fill="url(#g1onc6itnlwyjy1)" height="38.1083" rx="4.1667" ry="4.1667" style="stroke:#304D6D;stroke-width:1.0416666666666667;" width="233.3333" x="262.2396" y="212.9944"/><text fill="#FFFFFF" font-family="Verdana" font-size="12.5" lengthAdjust="spacing" textLength="210.4167" x="273.6979" y="237.0199">Acc&#233;der &#224; la section "Mon profil"</text><rect fill="url(#g1onc6itnlwyjy1)" height="38.1083" rx="4.1667" ry="4.1667" style="stroke:#304D6D;stroke-width:1.0416666666666667;" width="492.7083" x="132.5521" y="271.936"/><text fill="#FFFFFF" font-family="Verdana" font-size="12.5" lengthAdjust="spacing" textLength="469.7917" x="144.0104" y="295.9615">Modifier les informations souhait&#233;es (description, r&#233;seaux sociaux, etc.)</text><rect fill="url(#g1onc6itnlwyjy1)" height="38.1083" rx="4.1667" ry="4.1667" style="stroke:#304D6D;stroke-width:1.0416666666666667;" width="204.1667" x="276.8229" y="330.8777"/><text fill="#FFFFFF" font-family="Verdana" font-size="12.5" lengthAdjust="spacing" textLength="181.25" x="288.2813" y="354.9032">Soumettre les modifications</text><rect fill="url(#g1onc6itnlwyjy1)" height="38.1083" rx="4.1667" ry="4.1667" style="stroke:#304D6D;stroke-width:1.0416666666666667;" width="270.8333" x="21.875" y="672.0276"/><text fill="#FFFFFF" font-family="Verdana" font-size="12.5" lengthAdjust="spacing" textLength="247.9167" x="33.3333" y="696.0531">Afficher "Profil mis &#224; jour avec succ&#232;s"</text><line style="stroke:#3399F3;stroke-width:2.0833333333333335;" x1="15.625" x2="15.625" y1="81.5694" y2="789.3026"/><rect fill="url(#g1onc6itnlwyjy1)" height="38.1083" rx="4.1667" ry="4.1667" style="stroke:#304D6D;stroke-width:1.0416666666666667;" width="229.1667" x="971.3542" y="389.8193"/><text fill="#FFFFFF" font-family="Verdana" font-size="12.5" lengthAdjust="spacing" textLength="206.25" x="982.8125" y="413.8448">Recevoir les donn&#233;es modifi&#233;es</text><rect fill="url(#g1onc6itnlwyjy1)" height="38.1083" rx="4.1667" ry="4.1667" style="stroke:#304D6D;stroke-width:1.0416666666666667;" width="291.6667" x="940.1042" y="448.761"/><text fill="#FFFFFF" font-family="Verdana" font-size="12.5" lengthAdjust="spacing" textLength="268.75" x="951.5625" y="472.7865">V&#233;rifier la validit&#233; des nouvelles donn&#233;es</text><polygon fill="url(#g1onc6itnlwyjy2)" points="1022.9167,507.7026,1148.9583,507.7026,1161.4583,520.5068,1148.9583,533.311,1022.9167,533.311,1010.4167,520.5068,1022.9167,507.7026" style="stroke:#6B6B6B;stroke-width:1.0416666666666667;"/><text fill="#FFFFFF" font-family="Verdana" font-size="12.5" lengthAdjust="spacing" textLength="115.625" x="1028.125" y="525.4781">Donn&#233;es valides?</text><text fill="#FFFFFF" font-family="Verdana" font-size="12.5" lengthAdjust="spacing" textLength="21.875" x="983.3333" y="512.674">Oui</text><text fill="#FFFFFF" font-family="Verdana" font-size="12.5" lengthAdjust="spacing" textLength="26.0417" x="1166.6667" y="512.674">Non</text><rect fill="url(#g1onc6itnlwyjy1)" height="38.1083" rx="4.1667" ry="4.1667" style="stroke:#304D6D;stroke-width:1.0416666666666667;" width="457.2917" x="635.6771" y="554.1443"/><text fill="#FFFFFF" font-family="Verdana" font-size="12.5" lengthAdjust="spacing" textLength="434.375" x="647.1354" y="578.1698">Mettre &#224; jour les informations utilisateur dans la base de donn&#233;es</text><rect fill="url(#g1onc6itnlwyjy1)" height="38.1083" rx="4.1667" ry="4.1667" style="stroke:#304D6D;stroke-width:1.0416666666666667;" width="278.125" x="725.2604" y="613.0859"/><text fill="#FFFFFF" font-family="Verdana" font-size="12.5" lengthAdjust="spacing" textLength="255.2083" x="736.7188" y="637.1114">Retourner un message de confirmation</text><rect fill="url(#g1onc6itnlwyjy1)" height="38.1083" rx="4.1667" ry="4.1667" style="stroke:#304D6D;stroke-width:1.0416666666666667;" width="387.5" x="1113.8021" y="554.1443"/><text fill="#FFFFFF" font-family="Verdana" font-size="12.5" lengthAdjust="spacing" textLength="364.5833" x="1125.2604" y="578.1698">Retourner un message d'erreur (ex: donn&#233;es invalides)</text><rect fill="url(#g1onc6itnlwyjy1)" height="38.1083" rx="4.1667" ry="4.1667" style="stroke:#304D6D;stroke-width:1.0416666666666667;" width="206.25" x="1204.4271" y="613.0859"/><text fill="#FFFFFF" font-family="Verdana" font-size="12.5" lengthAdjust="spacing" textLength="183.3333" x="1215.8854" y="637.1114">Afficher le message d'erreur</text><polygon fill="url(#g1onc6itnlwyjy2)" points="1085.9375,720.5526,1098.4375,733.0526,1085.9375,745.5526,1073.4375,733.0526,1085.9375,720.5526" style="stroke:#6B6B6B;stroke-width:1.0416666666666667;"/><ellipse cx="1085.9375" cy="777.8442" fill="none" rx="11.4583" ry="11.4583" style="stroke:#304D6D;stroke-width:1.0416666666666667;"/><ellipse cx="1085.9375" cy="777.8442" fill="none" rx="6.25" ry="6.25" style="stroke:#304D6D;stroke-width:1.0416666666666667;"/><line style="stroke:#3399F3;stroke-width:2.0833333333333335;" x1="629.4271" x2="629.4271" y1="81.5694" y2="789.3026"/><line style="stroke:#3399F3;stroke-width:2.0833333333333335;" x1="1505.4688" x2="1505.4688" y1="81.5694" y2="789.3026"/><line style="stroke:#446E9B;stroke-width:3.125;" x1="378.9063" x2="378.9063" y1="133.2194" y2="154.0527"/><polygon fill="#446E9B" points="374.7396,143.6361,378.9063,154.0527,383.0729,143.6361,378.9063,147.8027" style="stroke:#446E9B;stroke-width:1.0416666666666667;"/><line style="stroke:#446E9B;stroke-width:3.125;" x1="378.9063" x2="378.9063" y1="192.1611" y2="212.9944"/><polygon fill="#446E9B" points="374.7396,202.5777,378.9063,212.9944,383.0729,202.5777,378.9063,206.7444" style="stroke:#446E9B;stroke-width:1.0416666666666667;"/><line style="stroke:#446E9B;stroke-width:3.125;" x1="378.9063" x2="378.9063" y1="251.1027" y2="271.936"/><polygon fill="#446E9B" points="374.7396,261.5194,378.9063,271.936,383.0729,261.5194,378.9063,265.686" style="stroke:#446E9B;stroke-width:1.0416666666666667;"/><line style="stroke:#446E9B;stroke-width:3.125;" x1="378.9063" x2="378.9063" y1="310.0444" y2="330.8777"/><polygon fill="#446E9B" points="374.7396,320.461,378.9063,330.8777,383.0729,320.461,378.9063,324.6277" style="stroke:#446E9B;stroke-width:1.0416666666666667;"/><line style="stroke:#446E9B;stroke-width:3.125;" x1="1085.9375" x2="1085.9375" y1="427.9277" y2="448.761"/><polygon fill="#446E9B" points="1081.7708,438.3443,1085.9375,448.761,1090.1042,438.3443,1085.9375,442.511" style="stroke:#446E9B;stroke-width:1.0416666666666667;"/><line style="stroke:#446E9B;stroke-width:3.125;" x1="864.3229" x2="864.3229" y1="592.2526" y2="613.0859"/><polygon fill="#446E9B" points="860.1563,602.6693,864.3229,613.0859,868.4896,602.6693,864.3229,606.8359" style="stroke:#446E9B;stroke-width:1.0416666666666667;"/><line style="stroke:#446E9B;stroke-width:3.125;" x1="1307.5521" x2="1307.5521" y1="592.2526" y2="613.0859"/><polygon fill="#446E9B" points="1303.3854,602.6693,1307.5521,613.0859,1311.7188,602.6693,1307.5521,606.8359" style="stroke:#446E9B;stroke-width:1.0416666666666667;"/><line style="stroke:#446E9B;stroke-width:3.125;" x1="1010.4167" x2="864.3229" y1="520.5068" y2="520.5068"/><line style="stroke:#446E9B;stroke-width:3.125;" x1="864.3229" x2="864.3229" y1="520.5068" y2="554.1443"/><polygon fill="#446E9B" points="860.1563,543.7276,864.3229,554.1443,868.4896,543.7276,864.3229,547.8943" style="stroke:#446E9B;stroke-width:1.0416666666666667;"/><line style="stroke:#446E9B;stroke-width:3.125;" x1="1161.4583" x2="1307.5521" y1="520.5068" y2="520.5068"/><line style="stroke:#446E9B;stroke-width:3.125;" x1="1307.5521" x2="1307.5521" y1="520.5068" y2="554.1443"/><polygon fill="#446E9B" points="1303.3854,543.7276,1307.5521,554.1443,1311.7188,543.7276,1307.5521,547.8943" style="stroke:#446E9B;stroke-width:1.0416666666666667;"/><line style="stroke:#446E9B;stroke-width:3.125;" x1="1307.5521" x2="1307.5521" y1="651.1943" y2="733.0526"/><line style="stroke:#446E9B;stroke-width:3.125;" x1="1307.5521" x2="1098.4375" y1="733.0526" y2="733.0526"/><polygon fill="#446E9B" points="1108.8542,728.8859,1098.4375,733.0526,1108.8542,737.2192,1104.6875,733.0526" style="stroke:#446E9B;stroke-width:1.0416666666666667;"/><line style="stroke:#446E9B;stroke-width:3.125;" x1="1085.9375" x2="1085.9375" y1="486.8693" y2="507.7026"/><polygon fill="#446E9B" points="1081.7708,497.286,1085.9375,507.7026,1090.1042,497.286,1085.9375,501.4526" style="stroke:#446E9B;stroke-width:1.0416666666666667;"/><line style="stroke:#446E9B;stroke-width:3.125;" x1="1085.9375" x2="1085.9375" y1="745.5526" y2="766.3859"/><polygon fill="#446E9B" points="1081.7708,755.9692,1085.9375,766.3859,1090.1042,755.9692,1085.9375,760.1359" style="stroke:#446E9B;stroke-width:1.0416666666666667;"/><line style="stroke:#446E9B;stroke-width:3.125;" x1="378.9063" x2="378.9063" y1="368.986" y2="374.1943"/><line style="stroke:#446E9B;stroke-width:3.125;" x1="378.9063" x2="1085.9375" y1="374.1943" y2="374.1943"/><line style="stroke:#446E9B;stroke-width:3.125;" x1="1085.9375" x2="1085.9375" y1="374.1943" y2="389.8193"/><polygon fill="#446E9B" points="1081.7708,379.4027,1085.9375,389.8193,1090.1042,379.4027,1085.9375,383.5693" style="stroke:#446E9B;stroke-width:1.0416666666666667;"/><line style="stroke:#446E9B;stroke-width:3.125;" x1="864.3229" x2="864.3229" y1="651.1943" y2="656.4026"/><line style="stroke:#446E9B;stroke-width:3.125;" x1="864.3229" x2="157.2917" y1="656.4026" y2="656.4026"/><line style="stroke:#446E9B;stroke-width:3.125;" x1="157.2917" x2="157.2917" y1="656.4026" y2="672.0276"/><polygon fill="#446E9B" points="153.125,661.6109,157.2917,672.0276,161.4583,661.6109,157.2917,665.7776" style="stroke:#446E9B;stroke-width:1.0416666666666667;"/><line style="stroke:#446E9B;stroke-width:3.125;" x1="157.2917" x2="157.2917" y1="710.1359" y2="733.0526"/><line style="stroke:#446E9B;stroke-width:3.125;" x1="157.2917" x2="1073.4375" y1="733.0526" y2="733.0526"/><polygon fill="#446E9B" points="1063.0208,728.8859,1073.4375,733.0526,1063.0208,737.2192,1067.1875,733.0526" style="stroke:#446E9B;stroke-width:1.0416666666666667;"/><text fill="#304D6D" font-family="Verdana" font-size="12.5" lengthAdjust="spacing" textLength="66.6667" x="289.1927" y="99.3449">Utilisateur</text><text fill="#304D6D" font-family="Verdana" font-size="12.5" lengthAdjust="spacing" textLength="103.125" x="1015.8854" y="99.3449">Site web Igame</text><!--SRC=[TLBBJiCm4BpxAvPUIAMA3qWEg18N3WNK2kwkisaNENRajKiF_HYEv3loOsoIGbiUbpZopixCplegRh56u4ORj7gj8aMBiF0bLOG1B3AGgtoeTIJl6Ce4JV0LMNLuZcI9TSGK3egZ3b7bAmJZdKCJfRbx1_PEBkecOg7okJ5TMuu5gu459PmmMSXd99q8wdzjzcchANQj5B8IsGHg-ieCGjSowhGNY24vPu3Ht4o5RULJZJ467EZgWTkCV8Kwh2WYlE4QxZUwneFAbsXmvsaKBsMIGMniwt-5yQLhmz6WXfssLFQMGFo0ysc7zhorK5H1TlT5DC2HRwSWiJl87XDD5K2-62rABgy-_J5vEaKDfPOBaLvhHb4zanAY9KOXS68kEQYHMMy6a2obeYDT3xnSdZJEAybbAtsJfs4JK1D_-z4xDC19rlV1iYAqefmzUDTx_vNXlowkCOH-W0pt-IbRSiTGfiM53tc5Fpj5sSaYvAtvvXC0]--></g></svg>