<?xml version="1.0" encoding="us-ascii" standalone="no"?><svg xmlns="http://www.w3.org/2000/svg" xmlns:xlink="http://www.w3.org/1999/xlink" contentStyleType="text/css" height="853.125px" preserveAspectRatio="none" style="width:647px;height:853px;" version="1.1" viewBox="0 0 647 853" width="647.9167px" zoomAndPan="magnify"><defs><linearGradient id="gztsasp4v37s40" x1="50%" x2="50%" y1="0%" y2="100%"><stop offset="0%" stop-color="#B8B8B8"/><stop offset="100%" stop-color="#999999"/></linearGradient><linearGradient id="gztsasp4v37s41" x1="50%" x2="50%" y1="0%" y2="100%"><stop offset="0%" stop-color="#7C9AB9"/><stop offset="100%" stop-color="#304D6D"/></linearGradient></defs><g><rect fill="url(#gztsasp4v37s40)" height="48.2361" id="_title" rx="4.1667" ry="4.1667" style="stroke:#6B6B6B;stroke-width:1.0416666666666667;" width="372.9167" x="135.9375" y="20.8333"/><text fill="#304D6D" font-family="Verdana" font-size="20.8333" font-weight="bold" lengthAdjust="spacing" textLength="350" x="147.3958" y="53.2369">D&#233;sabonnement &#224; l'info-lettre</text><rect fill="url(#gztsasp4v37s40)" height="25.6083" style="stroke:url(#gztsasp4v37s40);stroke-width:1.0416666666666667;" width="613.5417" x="15.625" y="81.5694"/><ellipse cx="190.1042" cy="122.8027" fill="#3399F3" rx="10.4167" ry="10.4167" style="stroke:#304D6D;stroke-width:1.0416666666666667;"/><rect fill="url(#gztsasp4v37s41)" height="38.1083" rx="4.1667" ry="4.1667" style="stroke:#304D6D;stroke-width:1.0416666666666667;" width="336.4583" x="21.875" y="154.0527"/><text fill="#FFFFFF" font-family="Verdana" font-size="12.5" lengthAdjust="spacing" textLength="313.5417" x="33.3333" y="178.0782">Acc&#233;der &#224; la section "Param&#232;tres de l'infolettre"</text><rect fill="url(#gztsasp4v37s41)" height="38.1083" rx="4.1667" ry="4.1667" style="stroke:#304D6D;stroke-width:1.0416666666666667;" width="210.4167" x="84.8958" y="212.9944"/><text fill="#FFFFFF" font-family="Verdana" font-size="12.5" lengthAdjust="spacing" textLength="187.5" x="96.3542" y="237.0199">Cliquer sur "Se d&#233;sabonner"</text><rect fill="url(#gztsasp4v37s41)" height="38.1083" rx="4.1667" ry="4.1667" style="stroke:#304D6D;stroke-width:1.0416666666666667;" width="280.2083" x="50" y="389.8193"/><text fill="#FFFFFF" font-family="Verdana" font-size="12.5" lengthAdjust="spacing" textLength="257.2917" x="61.4583" y="413.8448">Voir la confirmation du d&#233;sabonnement</text><ellipse cx="190.1042" cy="460.2193" fill="none" rx="11.4583" ry="11.4583" style="stroke:#304D6D;stroke-width:1.0416666666666667;"/><ellipse cx="190.1042" cy="460.2193" fill="none" rx="6.25" ry="6.25" style="stroke:#304D6D;stroke-width:1.0416666666666667;"/><ellipse cx="190.1042" cy="492.511" fill="#3399F3" rx="10.4167" ry="10.4167" style="stroke:#304D6D;stroke-width:1.0416666666666667;"/><rect fill="url(#gztsasp4v37s41)" height="38.1083" rx="4.1667" ry="4.1667" style="stroke:#304D6D;stroke-width:1.0416666666666667;" width="228.125" x="76.0417" y="523.761"/><text fill="#FFFFFF" font-family="Verdana" font-size="12.5" lengthAdjust="spacing" textLength="205.2083" x="87.5" y="547.7865">Recevoir un email de l'infolettre</text><rect fill="url(#gztsasp4v37s41)" height="38.1083" rx="4.1667" ry="4.1667" style="stroke:#304D6D;stroke-width:1.0416666666666667;" width="291.6667" x="44.2708" y="582.7026"/><text fill="#FFFFFF" font-family="Verdana" font-size="12.5" lengthAdjust="spacing" textLength="268.75" x="55.7292" y="606.7281">Cliquer sur "Se d&#233;sabonner" dans l'email</text><rect fill="url(#gztsasp4v37s41)" height="38.1083" rx="4.1667" ry="4.1667" style="stroke:#304D6D;stroke-width:1.0416666666666667;" width="228.125" x="76.0417" y="759.5276"/><text fill="#FFFFFF" font-family="Verdana" font-size="12.5" lengthAdjust="spacing" textLength="205.2083" x="87.5" y="783.5531">Recevoir l'email de confirmation</text><ellipse cx="190.1042" cy="829.9276" fill="none" rx="11.4583" ry="11.4583" style="stroke:#304D6D;stroke-width:1.0416666666666667;"/><ellipse cx="190.1042" cy="829.9276" fill="none" rx="6.25" ry="6.25" style="stroke:#304D6D;stroke-width:1.0416666666666667;"/><line style="stroke:#3399F3;stroke-width:2.0833333333333335;" x1="15.625" x2="15.625" y1="81.5694" y2="841.3859"/><rect fill="url(#gztsasp4v37s41)" height="38.1083" rx="4.1667" ry="4.1667" style="stroke:#304D6D;stroke-width:1.0416666666666667;" width="250" x="368.75" y="271.936"/><text fill="#FFFFFF" font-family="Verdana" font-size="12.5" lengthAdjust="spacing" textLength="227.0833" x="380.2083" y="295.9615">Retirer l'adresse courriel de la liste</text><rect fill="url(#gztsasp4v37s41)" height="38.1083" rx="4.1667" ry="4.1667" style="stroke:#304D6D;stroke-width:1.0416666666666667;" width="239.5833" x="373.9583" y="330.8777"/><text fill="#FFFFFF" font-family="Verdana" font-size="12.5" lengthAdjust="spacing" textLength="216.6667" x="385.4167" y="354.9032">Afficher "D&#233;sabonnement r&#233;ussi"</text><rect fill="url(#gztsasp4v37s41)" height="38.1083" rx="4.1667" ry="4.1667" style="stroke:#304D6D;stroke-width:1.0416666666666667;" width="250" x="368.75" y="641.6443"/><text fill="#FFFFFF" font-family="Verdana" font-size="12.5" lengthAdjust="spacing" textLength="227.0833" x="380.2083" y="665.6698">Retirer l'adresse courriel de la liste</text><rect fill="url(#gztsasp4v37s41)" height="38.1083" rx="4.1667" ry="4.1667" style="stroke:#304D6D;stroke-width:1.0416666666666667;" width="240.625" x="373.4375" y="700.5859"/><text fill="#FFFFFF" font-family="Verdana" font-size="12.5" lengthAdjust="spacing" textLength="217.7083" x="384.8958" y="724.6114">Envoyer un email de confirmation</text><line style="stroke:#3399F3;stroke-width:2.0833333333333335;" x1="362.5" x2="362.5" y1="81.5694" y2="841.3859"/><line style="stroke:#3399F3;stroke-width:2.0833333333333335;" x1="622.9167" x2="622.9167" y1="81.5694" y2="841.3859"/><line style="stroke:#446E9B;stroke-width:3.125;" x1="190.1042" x2="190.1042" y1="133.2194" y2="154.0527"/><polygon fill="#446E9B" points="185.9375,143.6361,190.1042,154.0527,194.2708,143.6361,190.1042,147.8027" style="stroke:#446E9B;stroke-width:1.0416666666666667;"/><line style="stroke:#446E9B;stroke-width:3.125;" x1="190.1042" x2="190.1042" y1="192.1611" y2="212.9944"/><polygon fill="#446E9B" points="185.9375,202.5777,190.1042,212.9944,194.2708,202.5777,190.1042,206.7444" style="stroke:#446E9B;stroke-width:1.0416666666666667;"/><line style="stroke:#446E9B;stroke-width:3.125;" x1="190.1042" x2="190.1042" y1="427.9277" y2="448.761"/><polygon fill="#446E9B" points="185.9375,438.3443,190.1042,448.761,194.2708,438.3443,190.1042,442.511" style="stroke:#446E9B;stroke-width:1.0416666666666667;"/><line style="stroke:#446E9B;stroke-width:3.125;" x1="190.1042" x2="190.1042" y1="502.9277" y2="523.761"/><polygon fill="#446E9B" points="185.9375,513.3443,190.1042,523.761,194.2708,513.3443,190.1042,517.511" style="stroke:#446E9B;stroke-width:1.0416666666666667;"/><line style="stroke:#446E9B;stroke-width:3.125;" x1="190.1042" x2="190.1042" y1="561.8693" y2="582.7026"/><polygon fill="#446E9B" points="185.9375,572.286,190.1042,582.7026,194.2708,572.286,190.1042,576.4526" style="stroke:#446E9B;stroke-width:1.0416666666666667;"/><line style="stroke:#446E9B;stroke-width:3.125;" x1="190.1042" x2="190.1042" y1="797.6359" y2="818.4692"/><polygon fill="#446E9B" points="185.9375,808.0526,190.1042,818.4692,194.2708,808.0526,190.1042,812.2192" style="stroke:#446E9B;stroke-width:1.0416666666666667;"/><line style="stroke:#446E9B;stroke-width:3.125;" x1="493.75" x2="493.75" y1="310.0444" y2="330.8777"/><polygon fill="#446E9B" points="489.5833,320.461,493.75,330.8777,497.9167,320.461,493.75,324.6277" style="stroke:#446E9B;stroke-width:1.0416666666666667;"/><line style="stroke:#446E9B;stroke-width:3.125;" x1="493.75" x2="493.75" y1="679.7526" y2="700.5859"/><polygon fill="#446E9B" points="489.5833,690.1693,493.75,700.5859,497.9167,690.1693,493.75,694.3359" style="stroke:#446E9B;stroke-width:1.0416666666666667;"/><line style="stroke:#446E9B;stroke-width:3.125;" x1="190.1042" x2="190.1042" y1="251.1027" y2="256.311"/><line style="stroke:#446E9B;stroke-width:3.125;" x1="190.1042" x2="493.75" y1="256.311" y2="256.311"/><line style="stroke:#446E9B;stroke-width:3.125;" x1="493.75" x2="493.75" y1="256.311" y2="271.936"/><polygon fill="#446E9B" points="489.5833,261.5194,493.75,271.936,497.9167,261.5194,493.75,265.686" style="stroke:#446E9B;stroke-width:1.0416666666666667;"/><line style="stroke:#446E9B;stroke-width:3.125;" x1="493.75" x2="493.75" y1="368.986" y2="374.1943"/><line style="stroke:#446E9B;stroke-width:3.125;" x1="493.75" x2="190.1042" y1="374.1943" y2="374.1943"/><line style="stroke:#446E9B;stroke-width:3.125;" x1="190.1042" x2="190.1042" y1="374.1943" y2="389.8193"/><polygon fill="#446E9B" points="185.9375,379.4027,190.1042,389.8193,194.2708,379.4027,190.1042,383.5693" style="stroke:#446E9B;stroke-width:1.0416666666666667;"/><line style="stroke:#446E9B;stroke-width:3.125;" x1="190.1042" x2="190.1042" y1="620.811" y2="626.0193"/><line style="stroke:#446E9B;stroke-width:3.125;" x1="190.1042" x2="493.75" y1="626.0193" y2="626.0193"/><line style="stroke:#446E9B;stroke-width:3.125;" x1="493.75" x2="493.75" y1="626.0193" y2="641.6443"/><polygon fill="#446E9B" points="489.5833,631.2276,493.75,641.6443,497.9167,631.2276,493.75,635.3943" style="stroke:#446E9B;stroke-width:1.0416666666666667;"/><line style="stroke:#446E9B;stroke-width:3.125;" x1="493.75" x2="493.75" y1="738.6943" y2="743.9026"/><line style="stroke:#446E9B;stroke-width:3.125;" x1="493.75" x2="190.1042" y1="743.9026" y2="743.9026"/><line style="stroke:#446E9B;stroke-width:3.125;" x1="190.1042" x2="190.1042" y1="743.9026" y2="759.5276"/><polygon fill="#446E9B" points="185.9375,749.1109,190.1042,759.5276,194.2708,749.1109,190.1042,753.2776" style="stroke:#446E9B;stroke-width:1.0416666666666667;"/><text fill="#304D6D" font-family="Verdana" font-size="12.5" lengthAdjust="spacing" textLength="66.6667" x="155.7292" y="99.3449">Utilisateur</text><text fill="#304D6D" font-family="Verdana" font-size="12.5" lengthAdjust="spacing" textLength="103.125" x="441.1458" y="99.3449">Site web Igame</text><!--SRC=[ZP51JiCm44NtFiMGJLTS85bLm88TQWNxYJEX8pbs6O-Ba78ObkGSkHXEAD0695Zxlp__oHUweuuWxj6ImzeegoEu7eU8TV0-ltc5yHNSYdqRBXsf2fd-NjbnHAKalOcAegPSMpiE3SaSHuXabOE7uWu5k_4jSn4QEZPz51MLAQySFwLCnIHGR0cQhzkId_ijAy4prN3xY1trnW2K6rAMZBWLDhar4jYGH9ZSV00XRrEgfkYwRTdkShPOECauf1Yvc5BdEfbw22nJZms-PUbm5cdIoRQfeyhcOV-flo5BXubB7gX3TalPFroXGHypCBE_YF_RkhpnX_12vqDEJQh5_trFFrx_2KoYxm00]--></g></svg>