<?xml version="1.0" encoding="us-ascii" standalone="no"?><svg xmlns="http://www.w3.org/2000/svg" xmlns:xlink="http://www.w3.org/1999/xlink" contentStyleType="text/css" height="837.5px" preserveAspectRatio="none" style="width:682px;height:837px;" version="1.1" viewBox="0 0 682 837" width="682.2917px" zoomAndPan="magnify"><defs><linearGradient id="g1o9rks8x0y2lp0" x1="50%" x2="50%" y1="0%" y2="100%"><stop offset="0%" stop-color="#B8B8B8"/><stop offset="100%" stop-color="#999999"/></linearGradient><linearGradient id="g1o9rks8x0y2lp1" x1="50%" x2="50%" y1="0%" y2="100%"><stop offset="0%" stop-color="#7C9AB9"/><stop offset="100%" stop-color="#304D6D"/></linearGradient></defs><g><rect fill="url(#g1o9rks8x0y2lp0)" height="48.2361" id="_title" rx="4.1667" ry="4.1667" style="stroke:#6B6B6B;stroke-width:1.0416666666666667;" width="208.3333" x="235.4167" y="20.8333"/><text fill="#304D6D" font-family="Verdana" font-size="20.8333" font-weight="bold" lengthAdjust="spacing" textLength="185.4167" x="246.875" y="53.2369">Cr&#233;er un blogue</text><rect fill="url(#g1o9rks8x0y2lp0)" height="25.6083" style="stroke:url(#g1o9rks8x0y2lp0);stroke-width:1.0416666666666667;" width="647.9167" x="15.625" y="81.5694"/><ellipse cx="221.3542" cy="122.8027" fill="#3399F3" rx="10.4167" ry="10.4167" style="stroke:#304D6D;stroke-width:1.0416666666666667;"/><rect fill="url(#g1o9rks8x0y2lp1)" height="38.1083" rx="4.1667" ry="4.1667" style="stroke:#304D6D;stroke-width:1.0416666666666667;" width="194.7917" x="123.9583" y="154.0527"/><text fill="#FFFFFF" font-family="Verdana" font-size="12.5" lengthAdjust="spacing" textLength="171.875" x="135.4167" y="178.0782">Se connecter &#224; Wix Studio</text><rect fill="url(#g1o9rks8x0y2lp1)" height="38.1083" rx="4.1667" ry="4.1667" style="stroke:#304D6D;stroke-width:1.0416666666666667;" width="398.9583" x="21.875" y="212.9944"/><text fill="#FFFFFF" font-family="Verdana" font-size="12.5" lengthAdjust="spacing" textLength="376.0417" x="33.3333" y="237.0199">Acc&#233;der au tableau de bord administrateur de Wix Studio</text><rect fill="url(#g1o9rks8x0y2lp1)" height="38.1083" rx="4.1667" ry="4.1667" style="stroke:#304D6D;stroke-width:1.0416666666666667;" width="202.0833" x="120.3125" y="271.936"/><text fill="#FFFFFF" font-family="Verdana" font-size="12.5" lengthAdjust="spacing" textLength="179.1667" x="131.7708" y="295.9615">Acc&#233;der &#224; la section Blogue</text><rect fill="url(#g1o9rks8x0y2lp1)" height="38.1083" rx="4.1667" ry="4.1667" style="stroke:#304D6D;stroke-width:1.0416666666666667;" width="140.625" x="151.0417" y="330.8777"/><text fill="#FFFFFF" font-family="Verdana" font-size="12.5" lengthAdjust="spacing" textLength="117.7083" x="162.5" y="354.9032">Ajouter un blogue</text><rect fill="url(#g1o9rks8x0y2lp1)" height="38.1083" rx="4.1667" ry="4.1667" style="stroke:#304D6D;stroke-width:1.0416666666666667;" width="243.75" x="99.4792" y="448.761"/><text fill="#FFFFFF" font-family="Verdana" font-size="12.5" lengthAdjust="spacing" textLength="220.8333" x="110.9375" y="472.7865">Saisir le contenu du nouvel article</text><rect fill="url(#g1o9rks8x0y2lp1)" height="38.1083" rx="4.1667" ry="4.1667" style="stroke:#304D6D;stroke-width:1.0416666666666667;" width="344.7917" x="48.9583" y="507.7026"/><text fill="#FFFFFF" font-family="Verdana" font-size="12.5" lengthAdjust="spacing" textLength="321.875" x="60.4167" y="531.7281">Ajouter des images ou autres m&#233;dias (optionnel)</text><rect fill="url(#g1o9rks8x0y2lp1)" height="38.1083" rx="4.1667" ry="4.1667" style="stroke:#304D6D;stroke-width:1.0416666666666667;" width="302.0833" x="70.3125" y="566.6443"/><text fill="#FFFFFF" font-family="Verdana" font-size="12.5" lengthAdjust="spacing" textLength="279.1667" x="81.7708" y="590.6698">Choisir la cat&#233;gorie ou les tags (optionnel)</text><rect fill="url(#g1o9rks8x0y2lp1)" height="38.1083" rx="4.1667" ry="4.1667" style="stroke:#304D6D;stroke-width:1.0416666666666667;" width="247.9167" x="97.3958" y="684.5276"/><text fill="#FFFFFF" font-family="Verdana" font-size="12.5" lengthAdjust="spacing" textLength="225" x="108.8542" y="708.5531">Confirmer la publication de l'article</text><line style="stroke:#3399F3;stroke-width:2.0833333333333335;" x1="15.625" x2="15.625" y1="81.5694" y2="825.3276"/><rect fill="url(#g1o9rks8x0y2lp1)" height="38.1083" rx="4.1667" ry="4.1667" style="stroke:#304D6D;stroke-width:1.0416666666666667;" width="221.875" x="431.25" y="389.8193"/><text fill="#FFFFFF" font-family="Verdana" font-size="12.5" lengthAdjust="spacing" textLength="198.9583" x="442.7083" y="413.8448">Enregistre un nouveau blogue</text><rect fill="url(#g1o9rks8x0y2lp1)" height="38.1083" rx="4.1667" ry="4.1667" style="stroke:#304D6D;stroke-width:1.0416666666666667;" width="156.25" x="464.0625" y="625.5859"/><text fill="#FFFFFF" font-family="Verdana" font-size="12.5" lengthAdjust="spacing" textLength="133.3333" x="475.5208" y="649.6114">Pr&#233;visualiser l'article</text><rect fill="url(#g1o9rks8x0y2lp1)" height="38.1083" rx="4.1667" ry="4.1667" style="stroke:#304D6D;stroke-width:1.0416666666666667;" width="207.2917" x="438.5417" y="743.4692"/><text fill="#FFFFFF" font-family="Verdana" font-size="12.5" lengthAdjust="spacing" textLength="184.375" x="450" y="767.4947">Publier l'article sur le blogue</text><ellipse cx="542.1875" cy="813.8692" fill="none" rx="11.4583" ry="11.4583" style="stroke:#304D6D;stroke-width:1.0416666666666667;"/><ellipse cx="542.1875" cy="813.8692" fill="none" rx="6.25" ry="6.25" style="stroke:#304D6D;stroke-width:1.0416666666666667;"/><line style="stroke:#3399F3;stroke-width:2.0833333333333335;" x1="425" x2="425" y1="81.5694" y2="825.3276"/><line style="stroke:#3399F3;stroke-width:2.0833333333333335;" x1="657.2917" x2="657.2917" y1="81.5694" y2="825.3276"/><line style="stroke:#446E9B;stroke-width:3.125;" x1="221.3542" x2="221.3542" y1="133.2194" y2="154.0527"/><polygon fill="#446E9B" points="217.1875,143.6361,221.3542,154.0527,225.5208,143.6361,221.3542,147.8027" style="stroke:#446E9B;stroke-width:1.0416666666666667;"/><line style="stroke:#446E9B;stroke-width:3.125;" x1="221.3542" x2="221.3542" y1="192.1611" y2="212.9944"/><polygon fill="#446E9B" points="217.1875,202.5777,221.3542,212.9944,225.5208,202.5777,221.3542,206.7444" style="stroke:#446E9B;stroke-width:1.0416666666666667;"/><line style="stroke:#446E9B;stroke-width:3.125;" x1="221.3542" x2="221.3542" y1="251.1027" y2="271.936"/><polygon fill="#446E9B" points="217.1875,261.5194,221.3542,271.936,225.5208,261.5194,221.3542,265.686" style="stroke:#446E9B;stroke-width:1.0416666666666667;"/><line style="stroke:#446E9B;stroke-width:3.125;" x1="221.3542" x2="221.3542" y1="310.0444" y2="330.8777"/><polygon fill="#446E9B" points="217.1875,320.461,221.3542,330.8777,225.5208,320.461,221.3542,324.6277" style="stroke:#446E9B;stroke-width:1.0416666666666667;"/><line style="stroke:#446E9B;stroke-width:3.125;" x1="221.3542" x2="221.3542" y1="486.8693" y2="507.7026"/><polygon fill="#446E9B" points="217.1875,497.286,221.3542,507.7026,225.5208,497.286,221.3542,501.4526" style="stroke:#446E9B;stroke-width:1.0416666666666667;"/><line style="stroke:#446E9B;stroke-width:3.125;" x1="221.3542" x2="221.3542" y1="545.811" y2="566.6443"/><polygon fill="#446E9B" points="217.1875,556.2276,221.3542,566.6443,225.5208,556.2276,221.3542,560.3943" style="stroke:#446E9B;stroke-width:1.0416666666666667;"/><line style="stroke:#446E9B;stroke-width:3.125;" x1="542.1875" x2="542.1875" y1="781.5776" y2="802.4109"/><polygon fill="#446E9B" points="538.0208,791.9942,542.1875,802.4109,546.3542,791.9942,542.1875,796.1609" style="stroke:#446E9B;stroke-width:1.0416666666666667;"/><line style="stroke:#446E9B;stroke-width:3.125;" x1="221.3542" x2="221.3542" y1="368.986" y2="374.1943"/><line style="stroke:#446E9B;stroke-width:3.125;" x1="221.3542" x2="542.1875" y1="374.1943" y2="374.1943"/><line style="stroke:#446E9B;stroke-width:3.125;" x1="542.1875" x2="542.1875" y1="374.1943" y2="389.8193"/><polygon fill="#446E9B" points="538.0208,379.4027,542.1875,389.8193,546.3542,379.4027,542.1875,383.5693" style="stroke:#446E9B;stroke-width:1.0416666666666667;"/><line style="stroke:#446E9B;stroke-width:3.125;" x1="542.1875" x2="542.1875" y1="427.9277" y2="433.136"/><line style="stroke:#446E9B;stroke-width:3.125;" x1="542.1875" x2="221.3542" y1="433.136" y2="433.136"/><line style="stroke:#446E9B;stroke-width:3.125;" x1="221.3542" x2="221.3542" y1="433.136" y2="448.761"/><polygon fill="#446E9B" points="217.1875,438.3443,221.3542,448.761,225.5208,438.3443,221.3542,442.511" style="stroke:#446E9B;stroke-width:1.0416666666666667;"/><line style="stroke:#446E9B;stroke-width:3.125;" x1="221.3542" x2="221.3542" y1="604.7526" y2="609.9609"/><line style="stroke:#446E9B;stroke-width:3.125;" x1="221.3542" x2="542.1875" y1="609.9609" y2="609.9609"/><line style="stroke:#446E9B;stroke-width:3.125;" x1="542.1875" x2="542.1875" y1="609.9609" y2="625.5859"/><polygon fill="#446E9B" points="538.0208,615.1693,542.1875,625.5859,546.3542,615.1693,542.1875,619.3359" style="stroke:#446E9B;stroke-width:1.0416666666666667;"/><line style="stroke:#446E9B;stroke-width:3.125;" x1="542.1875" x2="542.1875" y1="663.6943" y2="668.9026"/><line style="stroke:#446E9B;stroke-width:3.125;" x1="542.1875" x2="221.3542" y1="668.9026" y2="668.9026"/><line style="stroke:#446E9B;stroke-width:3.125;" x1="221.3542" x2="221.3542" y1="668.9026" y2="684.5276"/><polygon fill="#446E9B" points="217.1875,674.1109,221.3542,684.5276,225.5208,674.1109,221.3542,678.2776" style="stroke:#446E9B;stroke-width:1.0416666666666667;"/><line style="stroke:#446E9B;stroke-width:3.125;" x1="221.3542" x2="221.3542" y1="722.6359" y2="727.8442"/><line style="stroke:#446E9B;stroke-width:3.125;" x1="221.3542" x2="542.1875" y1="727.8442" y2="727.8442"/><line style="stroke:#446E9B;stroke-width:3.125;" x1="542.1875" x2="542.1875" y1="727.8442" y2="743.4692"/><polygon fill="#446E9B" points="538.0208,733.0526,542.1875,743.4692,546.3542,733.0526,542.1875,737.2192" style="stroke:#446E9B;stroke-width:1.0416666666666667;"/><text fill="#304D6D" font-family="Verdana" font-size="12.5" lengthAdjust="spacing" textLength="39.5833" x="200.5208" y="99.3449">Admin</text><text fill="#304D6D" font-family="Verdana" font-size="12.5" lengthAdjust="spacing" textLength="69.7917" x="506.25" y="99.3449">Wix Studio</text><!--SRC=[RP0zRiCm38LtduATsbuXdjAWUu4CdMcPTLZGeY5HGOOSfclEuOkLSj3yeHC1wV6zx_79TZGIv0a32NQDiGd19iqdIb0YTA93eUQuxaUEnoOR9cjMMuAWCL8mLyq_yCa7s5hfMTjcjGvXFlN-WGKCEo6VFK6dgGUiDfmjeL59zVd_LVSKXEm1h17U5eZsGh5QVsknMq3_kngvu3qc6ceELKtKigyKtQFF5Zbp0bdg64K7BMUrW1Vb8DHUqthAm2CEFhHuEtVFC3emOuONdIfh97drbSrEpyu80Mq-3PgOwfRuYk7meB-7__3hxpaN5CuUAyyNb0luHkCNfv6MXAbqmXvJJ-KNlTNV-rRThI7aifJ_kqisdNu1]--></g></svg>