<?xml version="1.0" encoding="us-ascii" standalone="no"?><svg xmlns="http://www.w3.org/2000/svg" xmlns:xlink="http://www.w3.org/1999/xlink" contentStyleType="text/css" height="1001.0417px" preserveAspectRatio="none" style="width:1931px;height:1001px;" version="1.1" viewBox="0 0 1931 1001" width="1931.25px" zoomAndPan="magnify"><defs><linearGradient id="g1pujr2n1id6es0" x1="50%" x2="50%" y1="0%" y2="100%"><stop offset="0%" stop-color="#B8B8B8"/><stop offset="100%" stop-color="#999999"/></linearGradient><linearGradient id="g1pujr2n1id6es1" x1="50%" x2="50%" y1="0%" y2="100%"><stop offset="0%" stop-color="#7C9AB9"/><stop offset="100%" stop-color="#304D6D"/></linearGradient><linearGradient id="g1pujr2n1id6es2" x1="50%" x2="50%" y1="0%" y2="100%"><stop offset="0%" stop-color="#B8B8B8"/><stop offset="100%" stop-color="#6B6B6B"/></linearGradient></defs><g><rect fill="url(#g1pujr2n1id6es0)" height="48.2361" id="_title" rx="4.1667" ry="4.1667" style="stroke:#6B6B6B;stroke-width:1.0416666666666667;" width="240.625" x="843.8802" y="20.8333"/><text fill="#304D6D" font-family="Verdana" font-size="20.8333" font-weight="bold" lengthAdjust="spacing" textLength="217.7083" x="855.3385" y="53.2369">Ajouter un contact</text><rect fill="url(#g1pujr2n1id6es0)" height="25.6083" style="stroke:url(#g1pujr2n1id6es0);stroke-width:1.0416666666666667;" width="1897.1354" x="15.625" y="81.5694"/><ellipse cx="378.9063" cy="122.8027" fill="#3399F3" rx="10.4167" ry="10.4167" style="stroke:#304D6D;stroke-width:1.0416666666666667;"/><rect fill="url(#g1pujr2n1id6es1)" height="38.1083" rx="4.1667" ry="4.1667" style="stroke:#304D6D;stroke-width:1.0416666666666667;" width="201.0417" x="278.3854" y="154.0527"/><text fill="#FFFFFF" font-family="Verdana" font-size="12.5" lengthAdjust="spacing" textLength="178.125" x="289.8438" y="178.0782">Acc&#233;der au site web Igame</text><rect fill="url(#g1pujr2n1id6es1)" height="38.1083" rx="4.1667" ry="4.1667" style="stroke:#304D6D;stroke-width:1.0416666666666667;" width="201.0417" x="278.3854" y="212.9944"/><text fill="#FFFFFF" font-family="Verdana" font-size="12.5" lengthAdjust="spacing" textLength="178.125" x="289.8438" y="237.0199">Se connecter &#224; son compte</text><rect fill="url(#g1pujr2n1id6es1)" height="38.1083" rx="4.1667" ry="4.1667" style="stroke:#304D6D;stroke-width:1.0416666666666667;" width="213.5417" x="272.1354" y="271.936"/><text fill="#FFFFFF" font-family="Verdana" font-size="12.5" lengthAdjust="spacing" textLength="190.625" x="283.5938" y="295.9615">Cliquer la barre de recherche</text><rect fill="url(#g1pujr2n1id6es1)" height="38.1083" rx="4.1667" ry="4.1667" style="stroke:#304D6D;stroke-width:1.0416666666666667;" width="241.6667" x="258.0729" y="330.8777"/><text fill="#FFFFFF" font-family="Verdana" font-size="12.5" lengthAdjust="spacing" textLength="218.75" x="269.5313" y="354.9032">Entrer un pseudonyme recherch&#233;</text><rect fill="url(#g1pujr2n1id6es1)" height="38.1083" rx="4.1667" ry="4.1667" style="stroke:#304D6D;stroke-width:1.0416666666666667;" width="278.125" x="21.875" y="554.1443"/><text fill="#FFFFFF" font-family="Verdana" font-size="12.5" lengthAdjust="spacing" textLength="255.2083" x="33.3333" y="578.1698">S&#233;lectionner un utilisateur dans la liste</text><line style="stroke:#3399F3;stroke-width:2.0833333333333335;" x1="15.625" x2="15.625" y1="81.5694" y2="989.0442"/><rect fill="url(#g1pujr2n1id6es1)" height="38.1083" rx="4.1667" ry="4.1667" style="stroke:#304D6D;stroke-width:1.0416666666666667;" width="371.875" x="857.8125" y="389.8193"/><text fill="#FFFFFF" font-family="Verdana" font-size="12.5" lengthAdjust="spacing" textLength="348.9583" x="869.2708" y="413.8448">Rechercher dans la base de donn&#233;es des utilisateurs</text><polygon fill="url(#g1pujr2n1id6es2)" points="976.0417,448.761,1111.4583,448.761,1123.9583,461.5651,1111.4583,474.3693,976.0417,474.3693,963.5417,461.5651,976.0417,448.761" style="stroke:#6B6B6B;stroke-width:1.0416666666666667;"/><text fill="#FFFFFF" font-family="Verdana" font-size="12.5" lengthAdjust="spacing" textLength="125" x="981.25" y="466.5365">Utilisateur trouv&#233; ?</text><text fill="#FFFFFF" font-family="Verdana" font-size="12.5" lengthAdjust="spacing" textLength="21.875" x="936.4583" y="453.7323">Oui</text><text fill="#FFFFFF" font-family="Verdana" font-size="12.5" lengthAdjust="spacing" textLength="26.0417" x="1129.1667" y="453.7323">Non</text><rect fill="url(#g1pujr2n1id6es1)" height="38.1083" rx="4.1667" ry="4.1667" style="stroke:#304D6D;stroke-width:1.0416666666666667;" width="343.75" x="653.9063" y="495.2026"/><text fill="#FFFFFF" font-family="Verdana" font-size="12.5" lengthAdjust="spacing" textLength="320.8333" x="665.3646" y="519.2281">Afficher une liste des utilisateurs correspondants</text><rect fill="url(#g1pujr2n1id6es1)" height="38.1083" rx="4.1667" ry="4.1667" style="stroke:#304D6D;stroke-width:1.0416666666666667;" width="377.0833" x="637.2396" y="613.0859"/><text fill="#FFFFFF" font-family="Verdana" font-size="12.5" lengthAdjust="spacing" textLength="354.1667" x="648.6979" y="637.1114">Envoyer une demande d'ami &#224; l'utilisateur s&#233;lectionn&#233;</text><rect fill="url(#g1pujr2n1id6es1)" height="38.1083" rx="4.1667" ry="4.1667" style="stroke:#304D6D;stroke-width:1.0416666666666667;" width="342.7083" x="510.1563" y="836.3525"/><text fill="#FFFFFF" font-family="Verdana" font-size="12.5" lengthAdjust="spacing" textLength="319.7917" x="521.6146" y="860.378">Mettre &#224; jour la liste d'amis des deux utilisateurs</text><rect fill="url(#g1pujr2n1id6es1)" height="38.1083" rx="4.1667" ry="4.1667" style="stroke:#304D6D;stroke-width:1.0416666666666667;" width="328.125" x="1097.6563" y="495.2026"/><text fill="#FFFFFF" font-family="Verdana" font-size="12.5" lengthAdjust="spacing" textLength="305.2083" x="1109.1146" y="519.2281">Afficher un message "Aucun utilisateur trouv&#233;"</text><polygon fill="url(#g1pujr2n1id6es2)" points="1043.75,920.2942,1056.25,932.7942,1043.75,945.2942,1031.25,932.7942,1043.75,920.2942" style="stroke:#6B6B6B;stroke-width:1.0416666666666667;"/><ellipse cx="1043.75" cy="977.5859" fill="none" rx="11.4583" ry="11.4583" style="stroke:#304D6D;stroke-width:1.0416666666666667;"/><ellipse cx="1043.75" cy="977.5859" fill="none" rx="6.25" ry="6.25" style="stroke:#304D6D;stroke-width:1.0416666666666667;"/><line style="stroke:#3399F3;stroke-width:2.0833333333333335;" x1="503.9063" x2="503.9063" y1="81.5694" y2="989.0442"/><rect fill="url(#g1pujr2n1id6es1)" height="38.1083" rx="4.1667" ry="4.1667" style="stroke:#304D6D;stroke-width:1.0416666666666667;" width="308.3333" x="1507.5521" y="672.0276"/><text fill="#FFFFFF" font-family="Verdana" font-size="12.5" lengthAdjust="spacing" textLength="285.4167" x="1519.0104" y="696.0531">Recevoir une notification de demande d'ami</text><polygon fill="url(#g1pujr2n1id6es2)" points="1582.0313,730.9692,1741.4063,730.9692,1753.9063,743.7734,1741.4063,756.5776,1582.0313,756.5776,1569.5313,743.7734,1582.0313,730.9692" style="stroke:#6B6B6B;stroke-width:1.0416666666666667;"/><text fill="#FFFFFF" font-family="Verdana" font-size="12.5" lengthAdjust="spacing" textLength="148.9583" x="1587.2396" y="748.7447">Accepter la demande ?</text><text fill="#FFFFFF" font-family="Verdana" font-size="12.5" lengthAdjust="spacing" textLength="21.875" x="1542.4479" y="735.9406">Oui</text><text fill="#FFFFFF" font-family="Verdana" font-size="12.5" lengthAdjust="spacing" textLength="26.0417" x="1759.1146" y="735.9406">Non</text><rect fill="url(#g1pujr2n1id6es1)" height="38.1083" rx="4.1667" ry="4.1667" style="stroke:#304D6D;stroke-width:1.0416666666666667;" width="162.5" x="1436.1979" y="777.4109"/><text fill="#FFFFFF" font-family="Verdana" font-size="12.5" lengthAdjust="spacing" textLength="139.5833" x="1447.6563" y="801.4364">Accepter l'ajout d'ami</text><rect fill="url(#g1pujr2n1id6es1)" height="38.1083" rx="4.1667" ry="4.1667" style="stroke:#304D6D;stroke-width:1.0416666666666667;" width="192.7083" x="1709.6354" y="777.4109"/><text fill="#FFFFFF" font-family="Verdana" font-size="12.5" lengthAdjust="spacing" textLength="169.7917" x="1721.0938" y="801.4364">Refuser la demande d'ami</text><polygon fill="url(#g1pujr2n1id6es2)" points="1661.7188,884.8775,1674.2188,897.3775,1661.7188,909.8775,1649.2188,897.3775,1661.7188,884.8775" style="stroke:#6B6B6B;stroke-width:1.0416666666666667;"/><line style="stroke:#3399F3;stroke-width:2.0833333333333335;" x1="1429.9479" x2="1429.9479" y1="81.5694" y2="989.0442"/><line style="stroke:#3399F3;stroke-width:2.0833333333333335;" x1="1906.5104" x2="1906.5104" y1="81.5694" y2="989.0442"/><line style="stroke:#446E9B;stroke-width:3.125;" x1="378.9063" x2="378.9063" y1="133.2194" y2="154.0527"/><polygon fill="#446E9B" points="374.7396,143.6361,378.9063,154.0527,383.0729,143.6361,378.9063,147.8027" style="stroke:#446E9B;stroke-width:1.0416666666666667;"/><line style="stroke:#446E9B;stroke-width:3.125;" x1="378.9063" x2="378.9063" y1="192.1611" y2="212.9944"/><polygon fill="#446E9B" points="374.7396,202.5777,378.9063,212.9944,383.0729,202.5777,378.9063,206.7444" style="stroke:#446E9B;stroke-width:1.0416666666666667;"/><line style="stroke:#446E9B;stroke-width:3.125;" x1="378.9063" x2="378.9063" y1="251.1027" y2="271.936"/><polygon fill="#446E9B" points="374.7396,261.5194,378.9063,271.936,383.0729,261.5194,378.9063,265.686" style="stroke:#446E9B;stroke-width:1.0416666666666667;"/><line style="stroke:#446E9B;stroke-width:3.125;" x1="378.9063" x2="378.9063" y1="310.0444" y2="330.8777"/><polygon fill="#446E9B" points="374.7396,320.461,378.9063,330.8777,383.0729,320.461,378.9063,324.6277" style="stroke:#446E9B;stroke-width:1.0416666666666667;"/><line style="stroke:#446E9B;stroke-width:3.125;" x1="963.5417" x2="825.7813" y1="461.5651" y2="461.5651"/><line style="stroke:#446E9B;stroke-width:3.125;" x1="825.7813" x2="825.7813" y1="461.5651" y2="495.2026"/><polygon fill="#446E9B" points="821.6146,484.786,825.7813,495.2026,829.9479,484.786,825.7813,488.9526" style="stroke:#446E9B;stroke-width:1.0416666666666667;"/><line style="stroke:#446E9B;stroke-width:3.125;" x1="1123.9583" x2="1261.7188" y1="461.5651" y2="461.5651"/><line style="stroke:#446E9B;stroke-width:3.125;" x1="1261.7188" x2="1261.7188" y1="461.5651" y2="495.2026"/><polygon fill="#446E9B" points="1257.5521,484.786,1261.7188,495.2026,1265.8854,484.786,1261.7188,488.9526" style="stroke:#446E9B;stroke-width:1.0416666666666667;"/><line style="stroke:#446E9B;stroke-width:3.125;" x1="1261.7188" x2="1261.7188" y1="533.311" y2="932.7942"/><line style="stroke:#446E9B;stroke-width:3.125;" x1="1261.7188" x2="1056.25" y1="932.7942" y2="932.7942"/><polygon fill="#446E9B" points="1066.6667,928.6275,1056.25,932.7942,1066.6667,936.9609,1062.5,932.7942" style="stroke:#446E9B;stroke-width:1.0416666666666667;"/><line style="stroke:#446E9B;stroke-width:3.125;" x1="1043.75" x2="1043.75" y1="427.9277" y2="448.761"/><polygon fill="#446E9B" points="1039.5833,438.3443,1043.75,448.761,1047.9167,438.3443,1043.75,442.511" style="stroke:#446E9B;stroke-width:1.0416666666666667;"/><line style="stroke:#446E9B;stroke-width:3.125;" x1="1043.75" x2="1043.75" y1="945.2942" y2="966.1275"/><polygon fill="#446E9B" points="1039.5833,955.7109,1043.75,966.1275,1047.9167,955.7109,1043.75,959.8775" style="stroke:#446E9B;stroke-width:1.0416666666666667;"/><line style="stroke:#446E9B;stroke-width:3.125;" x1="1569.5313" x2="1517.4479" y1="743.7734" y2="743.7734"/><line style="stroke:#446E9B;stroke-width:3.125;" x1="1517.4479" x2="1517.4479" y1="743.7734" y2="777.4109"/><polygon fill="#446E9B" points="1513.2813,766.9942,1517.4479,777.4109,1521.6146,766.9942,1517.4479,771.1609" style="stroke:#446E9B;stroke-width:1.0416666666666667;"/><line style="stroke:#446E9B;stroke-width:3.125;" x1="1753.9063" x2="1805.9896" y1="743.7734" y2="743.7734"/><line style="stroke:#446E9B;stroke-width:3.125;" x1="1805.9896" x2="1805.9896" y1="743.7734" y2="777.4109"/><polygon fill="#446E9B" points="1801.8229,766.9942,1805.9896,777.4109,1810.1563,766.9942,1805.9896,771.1609" style="stroke:#446E9B;stroke-width:1.0416666666666667;"/><line style="stroke:#446E9B;stroke-width:3.125;" x1="1805.9896" x2="1805.9896" y1="815.5192" y2="897.3775"/><line style="stroke:#446E9B;stroke-width:3.125;" x1="1805.9896" x2="1674.2188" y1="897.3775" y2="897.3775"/><polygon fill="#446E9B" points="1684.6354,893.2109,1674.2188,897.3775,1684.6354,901.5442,1680.4688,897.3775" style="stroke:#446E9B;stroke-width:1.0416666666666667;"/><line style="stroke:#446E9B;stroke-width:3.125;" x1="1661.7188" x2="1661.7188" y1="710.1359" y2="730.9692"/><polygon fill="#446E9B" points="1657.5521,720.5526,1661.7188,730.9692,1665.8854,720.5526,1661.7188,724.7192" style="stroke:#446E9B;stroke-width:1.0416666666666667;"/><line style="stroke:#446E9B;stroke-width:3.125;" x1="378.9063" x2="378.9063" y1="368.986" y2="374.1943"/><line style="stroke:#446E9B;stroke-width:3.125;" x1="378.9063" x2="1043.75" y1="374.1943" y2="374.1943"/><line style="stroke:#446E9B;stroke-width:3.125;" x1="1043.75" x2="1043.75" y1="374.1943" y2="389.8193"/><polygon fill="#446E9B" points="1039.5833,379.4027,1043.75,389.8193,1047.9167,379.4027,1043.75,383.5693" style="stroke:#446E9B;stroke-width:1.0416666666666667;"/><line style="stroke:#446E9B;stroke-width:3.125;" x1="825.7813" x2="825.7813" y1="533.311" y2="538.5193"/><line style="stroke:#446E9B;stroke-width:3.125;" x1="825.7813" x2="160.9375" y1="538.5193" y2="538.5193"/><line style="stroke:#446E9B;stroke-width:3.125;" x1="160.9375" x2="160.9375" y1="538.5193" y2="554.1443"/><polygon fill="#446E9B" points="156.7708,543.7276,160.9375,554.1443,165.1042,543.7276,160.9375,547.8943" style="stroke:#446E9B;stroke-width:1.0416666666666667;"/><line style="stroke:#446E9B;stroke-width:3.125;" x1="160.9375" x2="160.9375" y1="592.2526" y2="597.4609"/><line style="stroke:#446E9B;stroke-width:3.125;" x1="160.9375" x2="825.7813" y1="597.4609" y2="597.4609"/><line style="stroke:#446E9B;stroke-width:3.125;" x1="825.7813" x2="825.7813" y1="597.4609" y2="613.0859"/><polygon fill="#446E9B" points="821.6146,602.6693,825.7813,613.0859,829.9479,602.6693,825.7813,606.8359" style="stroke:#446E9B;stroke-width:1.0416666666666667;"/><line style="stroke:#446E9B;stroke-width:3.125;" x1="825.7813" x2="825.7813" y1="651.1943" y2="656.4026"/><line style="stroke:#446E9B;stroke-width:3.125;" x1="825.7813" x2="1661.7188" y1="656.4026" y2="656.4026"/><line style="stroke:#446E9B;stroke-width:3.125;" x1="1661.7188" x2="1661.7188" y1="656.4026" y2="672.0276"/><polygon fill="#446E9B" points="1657.5521,661.6109,1661.7188,672.0276,1665.8854,661.6109,1661.7188,665.7776" style="stroke:#446E9B;stroke-width:1.0416666666666667;"/><line style="stroke:#446E9B;stroke-width:3.125;" x1="1517.4479" x2="1517.4479" y1="815.5192" y2="820.7275"/><line style="stroke:#446E9B;stroke-width:3.125;" x1="1517.4479" x2="681.5104" y1="820.7275" y2="820.7275"/><line style="stroke:#446E9B;stroke-width:3.125;" x1="681.5104" x2="681.5104" y1="820.7275" y2="836.3525"/><polygon fill="#446E9B" points="677.3438,825.9359,681.5104,836.3525,685.6771,825.9359,681.5104,830.1025" style="stroke:#446E9B;stroke-width:1.0416666666666667;"/><line style="stroke:#446E9B;stroke-width:3.125;" x1="681.5104" x2="681.5104" y1="874.4609" y2="897.3775"/><line style="stroke:#446E9B;stroke-width:3.125;" x1="681.5104" x2="1649.2188" y1="897.3775" y2="897.3775"/><polygon fill="#446E9B" points="1638.8021,893.2109,1649.2188,897.3775,1638.8021,901.5442,1642.9688,897.3775" style="stroke:#446E9B;stroke-width:1.0416666666666667;"/><line style="stroke:#446E9B;stroke-width:3.125;" x1="1661.7188" x2="1661.7188" y1="909.8775" y2="915.0859"/><line style="stroke:#446E9B;stroke-width:3.125;" x1="1661.7188" x2="1012.5" y1="915.0859" y2="915.0859"/><line style="stroke:#446E9B;stroke-width:3.125;" x1="1012.5" x2="1012.5" y1="915.0859" y2="932.7942"/><line style="stroke:#446E9B;stroke-width:3.125;" x1="1012.5" x2="1031.25" y1="932.7942" y2="932.7942"/><polygon fill="#446E9B" points="1020.8333,928.6275,1031.25,932.7942,1020.8333,936.9609,1025,932.7942" style="stroke:#446E9B;stroke-width:1.0416666666666667;"/><text fill="#304D6D" font-family="Verdana" font-size="12.5" lengthAdjust="spacing" textLength="66.6667" x="226.4323" y="99.3449">Utilisateur</text><text fill="#304D6D" font-family="Verdana" font-size="12.5" lengthAdjust="spacing" textLength="103.125" x="915.3646" y="99.3449">Site web Igame</text><text fill="#304D6D" font-family="Verdana" font-size="12.5" lengthAdjust="spacing" textLength="100" x="1618.2292" y="99.3449">Utilisateur cibl&#233;</text><!--SRC=[TP91Jkim48RtFiMyRbgkq2vGzSJYBHv8L1p0TIPWvDZ1CouWzJ1iSuvSZ74SsZH0f4XHxF-R-V-PF_o43GArsg3JUyMM7SBsEIJ62Cc32PwrONLyOEiiQSOKZufOHrRhhJ5zLyb5dO0i8xpY7luzwWOtQht3BFPeCgd_00gPrhIS3_yw-vBalzEmrp4YL0WHpHD6UUNyndCi3RI4gGh-lJbVwBkDEkukwXtL-lvB7g7IdWgQ1hBeVTyXoJT1EXkXZR8rh2RMW6D8Xxw3wokGQ3oixfAzKY3FUblNTi0dZo02ncyyCIXcg0rUMc31P-5bT0DgrtTEWh4vdy7b17BgVYWn8kPk1ygDFuJtiPyA6-sprQLkR8xRBQTCEXVCwStR0cFthkz6hYI9Xs0Bs0UsubjdxP3bj50XvGnb5R3bCj6lAzypB3cUhYvrNhGfwbUpW_8_ign5TYUwUCge0CfqAqnlin5dAJhPXDLjyES-VlK_Pb0dkhGpQHDzPMirW_uyfCdMG8D4-X5XiKrcDlHnxnORLTZ4eVq4]--></g></svg>