<?xml version="1.0" encoding="us-ascii" standalone="no"?><svg xmlns="http://www.w3.org/2000/svg" xmlns:xlink="http://www.w3.org/1999/xlink" contentStyleType="text/css" height="837.5px" preserveAspectRatio="none" style="width:868px;height:837px;" version="1.1" viewBox="0 0 868 837" width="868.75px" zoomAndPan="magnify"><defs><linearGradient id="gn3krout50z3i0" x1="50%" x2="50%" y1="0%" y2="100%"><stop offset="0%" stop-color="#B8B8B8"/><stop offset="100%" stop-color="#999999"/></linearGradient><linearGradient id="gn3krout50z3i1" x1="50%" x2="50%" y1="0%" y2="100%"><stop offset="0%" stop-color="#7C9AB9"/><stop offset="100%" stop-color="#304D6D"/></linearGradient></defs><g><rect fill="url(#gn3krout50z3i0)" height="48.2361" id="_title" rx="4.1667" ry="4.1667" style="stroke:#6B6B6B;stroke-width:1.0416666666666667;" width="388.5417" x="238.5417" y="20.8333"/><text fill="#304D6D" font-family="Verdana" font-size="20.8333" font-weight="bold" lengthAdjust="spacing" textLength="365.625" x="250" y="53.2369">&#201;crire et envoyer une infolettre</text><rect fill="url(#gn3krout50z3i0)" height="25.6083" style="stroke:url(#gn3krout50z3i0);stroke-width:1.0416666666666667;" width="834.375" x="15.625" y="81.5694"/><ellipse cx="230.2083" cy="122.8027" fill="#3399F3" rx="10.4167" ry="10.4167" style="stroke:#304D6D;stroke-width:1.0416666666666667;"/><rect fill="url(#gn3krout50z3i1)" height="38.1083" rx="4.1667" ry="4.1667" style="stroke:#304D6D;stroke-width:1.0416666666666667;" width="194.7917" x="132.8125" y="154.0527"/><text fill="#FFFFFF" font-family="Verdana" font-size="12.5" lengthAdjust="spacing" textLength="171.875" x="144.2708" y="178.0782">Se connecter &#224; Wix Studio</text><rect fill="url(#gn3krout50z3i1)" height="38.1083" rx="4.1667" ry="4.1667" style="stroke:#304D6D;stroke-width:1.0416666666666667;" width="398.9583" x="30.7292" y="212.9944"/><text fill="#FFFFFF" font-family="Verdana" font-size="12.5" lengthAdjust="spacing" textLength="376.0417" x="42.1875" y="237.0199">Acc&#233;der au tableau de bord administrateur de Wix Studio</text><rect fill="url(#gn3krout50z3i1)" height="38.1083" rx="4.1667" ry="4.1667" style="stroke:#304D6D;stroke-width:1.0416666666666667;" width="220.8333" x="119.7917" y="271.936"/><text fill="#FFFFFF" font-family="Verdana" font-size="12.5" lengthAdjust="spacing" textLength="197.9167" x="131.25" y="295.9615">Acc&#233;der au panneau infolettre</text><rect fill="url(#gn3krout50z3i1)" height="38.1083" rx="4.1667" ry="4.1667" style="stroke:#304D6D;stroke-width:1.0416666666666667;" width="152.0833" x="154.1667" y="330.8777"/><text fill="#FFFFFF" font-family="Verdana" font-size="12.5" lengthAdjust="spacing" textLength="129.1667" x="165.625" y="354.9032">Cr&#233;er une infolettre</text><rect fill="url(#gn3krout50z3i1)" height="38.1083" rx="4.1667" ry="4.1667" style="stroke:#304D6D;stroke-width:1.0416666666666667;" width="221.875" x="119.2708" y="448.761"/><text fill="#FFFFFF" font-family="Verdana" font-size="12.5" lengthAdjust="spacing" textLength="198.9583" x="130.7292" y="472.7865">Saisir le contenu de l'infolettre</text><rect fill="url(#gn3krout50z3i1)" height="38.1083" rx="4.1667" ry="4.1667" style="stroke:#304D6D;stroke-width:1.0416666666666667;" width="416.6667" x="21.875" y="507.7026"/><text fill="#FFFFFF" font-family="Verdana" font-size="12.5" lengthAdjust="spacing" textLength="393.75" x="33.3333" y="531.7281">Choisir les destinataires (tous les abonn&#233;s ou s&#233;lectionn&#233;s)</text><rect fill="url(#gn3krout50z3i1)" height="38.1083" rx="4.1667" ry="4.1667" style="stroke:#304D6D;stroke-width:1.0416666666666667;" width="222.9167" x="118.75" y="684.5276"/><text fill="#FFFFFF" font-family="Verdana" font-size="12.5" lengthAdjust="spacing" textLength="200" x="130.2083" y="708.5531">Confirmer l'envoi de l'infolettre</text><line style="stroke:#3399F3;stroke-width:2.0833333333333335;" x1="15.625" x2="15.625" y1="81.5694" y2="825.3276"/><rect fill="url(#gn3krout50z3i1)" height="38.1083" rx="4.1667" ry="4.1667" style="stroke:#304D6D;stroke-width:1.0416666666666667;" width="165.625" x="561.4583" y="389.8193"/><text fill="#FFFFFF" font-family="Verdana" font-size="12.5" lengthAdjust="spacing" textLength="142.7083" x="572.9167" y="413.8448">Enregistrer l'infolettre</text><rect fill="url(#gn3krout50z3i1)" height="38.1083" rx="4.1667" ry="4.1667" style="stroke:#304D6D;stroke-width:1.0416666666666667;" width="176.0417" x="556.25" y="566.6443"/><text fill="#FFFFFF" font-family="Verdana" font-size="12.5" lengthAdjust="spacing" textLength="153.125" x="567.7083" y="590.6698">Pr&#233;visualiser l'infolettre</text><rect fill="url(#gn3krout50z3i1)" height="38.1083" rx="4.1667" ry="4.1667" style="stroke:#304D6D;stroke-width:1.0416666666666667;" width="390.625" x="448.9583" y="625.5859"/><text fill="#FFFFFF" font-family="Verdana" font-size="12.5" lengthAdjust="spacing" textLength="367.7083" x="460.4167" y="649.6114">V&#233;rifier les informations d'envoi (destinataires, contenu)</text><rect fill="url(#gn3krout50z3i1)" height="38.1083" rx="4.1667" ry="4.1667" style="stroke:#304D6D;stroke-width:1.0416666666666667;" width="383.3333" x="452.6042" y="743.4692"/><text fill="#FFFFFF" font-family="Verdana" font-size="12.5" lengthAdjust="spacing" textLength="360.4167" x="464.0625" y="767.4947">Envoyer l'infolettre &#224; tous les abonn&#233;s ou s&#233;lectionn&#233;s</text><ellipse cx="644.2708" cy="813.8692" fill="none" rx="11.4583" ry="11.4583" style="stroke:#304D6D;stroke-width:1.0416666666666667;"/><ellipse cx="644.2708" cy="813.8692" fill="none" rx="6.25" ry="6.25" style="stroke:#304D6D;stroke-width:1.0416666666666667;"/><line style="stroke:#3399F3;stroke-width:2.0833333333333335;" x1="442.7083" x2="442.7083" y1="81.5694" y2="825.3276"/><line style="stroke:#3399F3;stroke-width:2.0833333333333335;" x1="843.75" x2="843.75" y1="81.5694" y2="825.3276"/><line style="stroke:#446E9B;stroke-width:3.125;" x1="230.2083" x2="230.2083" y1="133.2194" y2="154.0527"/><polygon fill="#446E9B" points="226.0417,143.6361,230.2083,154.0527,234.375,143.6361,230.2083,147.8027" style="stroke:#446E9B;stroke-width:1.0416666666666667;"/><line style="stroke:#446E9B;stroke-width:3.125;" x1="230.2083" x2="230.2083" y1="192.1611" y2="212.9944"/><polygon fill="#446E9B" points="226.0417,202.5777,230.2083,212.9944,234.375,202.5777,230.2083,206.7444" style="stroke:#446E9B;stroke-width:1.0416666666666667;"/><line style="stroke:#446E9B;stroke-width:3.125;" x1="230.2083" x2="230.2083" y1="251.1027" y2="271.936"/><polygon fill="#446E9B" points="226.0417,261.5194,230.2083,271.936,234.375,261.5194,230.2083,265.686" style="stroke:#446E9B;stroke-width:1.0416666666666667;"/><line style="stroke:#446E9B;stroke-width:3.125;" x1="230.2083" x2="230.2083" y1="310.0444" y2="330.8777"/><polygon fill="#446E9B" points="226.0417,320.461,230.2083,330.8777,234.375,320.461,230.2083,324.6277" style="stroke:#446E9B;stroke-width:1.0416666666666667;"/><line style="stroke:#446E9B;stroke-width:3.125;" x1="230.2083" x2="230.2083" y1="486.8693" y2="507.7026"/><polygon fill="#446E9B" points="226.0417,497.286,230.2083,507.7026,234.375,497.286,230.2083,501.4526" style="stroke:#446E9B;stroke-width:1.0416666666666667;"/><line style="stroke:#446E9B;stroke-width:3.125;" x1="644.2708" x2="644.2708" y1="604.7526" y2="625.5859"/><polygon fill="#446E9B" points="640.1042,615.1693,644.2708,625.5859,648.4375,615.1693,644.2708,619.3359" style="stroke:#446E9B;stroke-width:1.0416666666666667;"/><line style="stroke:#446E9B;stroke-width:3.125;" x1="644.2708" x2="644.2708" y1="781.5776" y2="802.4109"/><polygon fill="#446E9B" points="640.1042,791.9942,644.2708,802.4109,648.4375,791.9942,644.2708,796.1609" style="stroke:#446E9B;stroke-width:1.0416666666666667;"/><line style="stroke:#446E9B;stroke-width:3.125;" x1="230.2083" x2="230.2083" y1="368.986" y2="374.1943"/><line style="stroke:#446E9B;stroke-width:3.125;" x1="230.2083" x2="644.2708" y1="374.1943" y2="374.1943"/><line style="stroke:#446E9B;stroke-width:3.125;" x1="644.2708" x2="644.2708" y1="374.1943" y2="389.8193"/><polygon fill="#446E9B" points="640.1042,379.4027,644.2708,389.8193,648.4375,379.4027,644.2708,383.5693" style="stroke:#446E9B;stroke-width:1.0416666666666667;"/><line style="stroke:#446E9B;stroke-width:3.125;" x1="644.2708" x2="644.2708" y1="427.9277" y2="433.136"/><line style="stroke:#446E9B;stroke-width:3.125;" x1="644.2708" x2="230.2083" y1="433.136" y2="433.136"/><line style="stroke:#446E9B;stroke-width:3.125;" x1="230.2083" x2="230.2083" y1="433.136" y2="448.761"/><polygon fill="#446E9B" points="226.0417,438.3443,230.2083,448.761,234.375,438.3443,230.2083,442.511" style="stroke:#446E9B;stroke-width:1.0416666666666667;"/><line style="stroke:#446E9B;stroke-width:3.125;" x1="230.2083" x2="230.2083" y1="545.811" y2="551.0193"/><line style="stroke:#446E9B;stroke-width:3.125;" x1="230.2083" x2="644.2708" y1="551.0193" y2="551.0193"/><line style="stroke:#446E9B;stroke-width:3.125;" x1="644.2708" x2="644.2708" y1="551.0193" y2="566.6443"/><polygon fill="#446E9B" points="640.1042,556.2276,644.2708,566.6443,648.4375,556.2276,644.2708,560.3943" style="stroke:#446E9B;stroke-width:1.0416666666666667;"/><line style="stroke:#446E9B;stroke-width:3.125;" x1="644.2708" x2="644.2708" y1="663.6943" y2="668.9026"/><line style="stroke:#446E9B;stroke-width:3.125;" x1="644.2708" x2="230.2083" y1="668.9026" y2="668.9026"/><line style="stroke:#446E9B;stroke-width:3.125;" x1="230.2083" x2="230.2083" y1="668.9026" y2="684.5276"/><polygon fill="#446E9B" points="226.0417,674.1109,230.2083,684.5276,234.375,674.1109,230.2083,678.2776" style="stroke:#446E9B;stroke-width:1.0416666666666667;"/><line style="stroke:#446E9B;stroke-width:3.125;" x1="230.2083" x2="230.2083" y1="722.6359" y2="727.8442"/><line style="stroke:#446E9B;stroke-width:3.125;" x1="230.2083" x2="644.2708" y1="727.8442" y2="727.8442"/><line style="stroke:#446E9B;stroke-width:3.125;" x1="644.2708" x2="644.2708" y1="727.8442" y2="743.4692"/><polygon fill="#446E9B" points="640.1042,733.0526,644.2708,743.4692,648.4375,733.0526,644.2708,737.2192" style="stroke:#446E9B;stroke-width:1.0416666666666667;"/><text fill="#304D6D" font-family="Verdana" font-size="12.5" lengthAdjust="spacing" textLength="39.5833" x="209.375" y="99.3449">Admin</text><text fill="#304D6D" font-family="Verdana" font-size="12.5" lengthAdjust="spacing" textLength="69.7917" x="608.3333" y="99.3449">Wix Studio</text><!--SRC=[ZL9BQWCn3Dtx5Eeg2VG4CwiGkYy4chLcHca47ZlOScXXBj1RT3ldyCKgpwJaHw4hW_JqFfAVv40zGJnYInOR8ooM87-rWGC12P0x-KyAa1m1kxst91B83EkkPpUOA1Z4L5k2rZj7hIWqVyEEFs0hgMDVcshTjddij84911jB-dO4ZGyTOA7XA065KYZbFqUFg0BwNbmeO1Fo-E2kDiE5PJ3LYmlqNaGKQHStk7ECQeiSMRjJ3Y4tERp5Lfk3FuEYTgEmGq5TKuIb-1IdEZQwXZn6y0bY7grkXEVAwjxLgre_SKneEJuOgzxo67ZFDCkLLkYnSAdseXo5ONbZuldN-UegriQxFOT-ef-77cBThse-zpMc7FGV0Mlz3Fxu0m00]--></g></svg>