<?xml version="1.0" encoding="us-ascii" standalone="no"?><svg xmlns="http://www.w3.org/2000/svg" xmlns:xlink="http://www.w3.org/1999/xlink" contentStyleType="text/css" height="822.9167px" preserveAspectRatio="none" style="width:868px;height:822px;" version="1.1" viewBox="0 0 868 822" width="868.75px" zoomAndPan="magnify"><defs><linearGradient id="g14mejnvgu7db60" x1="50%" x2="50%" y1="0%" y2="100%"><stop offset="0%" stop-color="#B8B8B8"/><stop offset="100%" stop-color="#999999"/></linearGradient><linearGradient id="g14mejnvgu7db61" x1="50%" x2="50%" y1="0%" y2="100%"><stop offset="0%" stop-color="#7C9AB9"/><stop offset="100%" stop-color="#304D6D"/></linearGradient></defs><g><rect fill="url(#g14mejnvgu7db60)" height="48.2361" id="_title" rx="4.1667" ry="4.1667" style="stroke:#6B6B6B;stroke-width:1.0416666666666667;" width="267.7083" x="298.9583" y="20.8333"/><text fill="#304D6D" font-family="Verdana" font-size="20.8333" font-weight="bold" lengthAdjust="spacing" textLength="244.7917" x="310.4167" y="53.2369">&#201;crire une infolettre</text><rect fill="url(#g14mejnvgu7db60)" height="25.6083" style="stroke:url(#g14mejnvgu7db60);stroke-width:1.0416666666666667;" width="834.375" x="15.625" y="81.5694"/><ellipse cx="230.2083" cy="122.8027" fill="#3399F3" rx="10.4167" ry="10.4167" style="stroke:#304D6D;stroke-width:1.0416666666666667;"/><rect fill="url(#g14mejnvgu7db61)" height="38.1083" rx="4.1667" ry="4.1667" style="stroke:#304D6D;stroke-width:1.0416666666666667;" width="194.7917" x="132.8125" y="154.0527"/><text fill="#FFFFFF" font-family="Verdana" font-size="12.5" lengthAdjust="spacing" textLength="171.875" x="144.2708" y="178.0782">Se connecter &#224; Wix Studio</text><rect fill="url(#g14mejnvgu7db61)" height="38.1083" rx="4.1667" ry="4.1667" style="stroke:#304D6D;stroke-width:1.0416666666666667;" width="398.9583" x="30.7292" y="212.9944"/><text fill="#FFFFFF" font-family="Verdana" font-size="12.5" lengthAdjust="spacing" textLength="376.0417" x="42.1875" y="237.0199">Acc&#233;der au tableau de bord administrateur de Wix Studio</text><rect fill="url(#g14mejnvgu7db61)" height="38.1083" rx="4.1667" ry="4.1667" style="stroke:#304D6D;stroke-width:1.0416666666666667;" width="226.0417" x="117.1875" y="271.936"/><text fill="#FFFFFF" font-family="Verdana" font-size="12.5" lengthAdjust="spacing" textLength="203.125" x="128.6458" y="295.9615">Acc&#233;der au panneau infolettre</text><rect fill="url(#g14mejnvgu7db61)" height="83.075" rx="4.1667" ry="4.1667" style="stroke:#304D6D;stroke-width:1.0416666666666667;" width="176.0417" x="142.1875" y="330.8777"/><text fill="#FFFFFF" font-family="Verdana" font-size="12.5" lengthAdjust="spacing" textLength="139.5833" x="153.6458" y="354.9032">Cr&#233;er une infolettre:</text><text fill="#FFFFFF" font-family="Verdana" font-size="12.5" lengthAdjust="spacing" textLength="69.7917" x="158.8542" y="377.3865">Wix Studio</text><line style="stroke:#FFFFFF;stroke-width:1.0416666666666667;" x1="153.6458" x2="233.8542" y1="359.611" y2="359.611"/><line style="stroke:#FFFFFF;stroke-width:1.0416666666666667;" x1="153.6458" x2="233.8542" y1="385.2193" y2="385.2193"/><line style="stroke:#FFFFFF;stroke-width:1.0416666666666667;" x1="153.6458" x2="153.6458" y1="359.611" y2="385.2193"/><line style="stroke:#FFFFFF;stroke-width:1.0416666666666667;" x1="233.8542" x2="233.8542" y1="359.611" y2="385.2193"/><text fill="#FFFFFF" font-family="Verdana" font-size="12.5" lengthAdjust="spacing" textLength="153.125" x="153.6458" y="399.8698">:Enregistrer l'infolettre</text><rect fill="url(#g14mejnvgu7db61)" height="38.1083" rx="4.1667" ry="4.1667" style="stroke:#304D6D;stroke-width:1.0416666666666667;" width="221.875" x="119.2708" y="434.786"/><text fill="#FFFFFF" font-family="Verdana" font-size="12.5" lengthAdjust="spacing" textLength="198.9583" x="130.7292" y="458.8114">Saisir le contenu de l'infolettre</text><rect fill="url(#g14mejnvgu7db61)" height="38.1083" rx="4.1667" ry="4.1667" style="stroke:#304D6D;stroke-width:1.0416666666666667;" width="416.6667" x="21.875" y="493.7276"/><text fill="#FFFFFF" font-family="Verdana" font-size="12.5" lengthAdjust="spacing" textLength="393.75" x="33.3333" y="517.7531">Choisir les destinataires (tous les abonn&#233;s ou s&#233;lectionn&#233;s)</text><rect fill="url(#g14mejnvgu7db61)" height="38.1083" rx="4.1667" ry="4.1667" style="stroke:#304D6D;stroke-width:1.0416666666666667;" width="222.9167" x="118.75" y="670.5526"/><text fill="#FFFFFF" font-family="Verdana" font-size="12.5" lengthAdjust="spacing" textLength="200" x="130.2083" y="694.578">Confirmer l'envoi de l'infolettre</text><line style="stroke:#3399F3;stroke-width:2.0833333333333335;" x1="15.625" x2="15.625" y1="81.5694" y2="811.3525"/><rect fill="url(#g14mejnvgu7db61)" height="38.1083" rx="4.1667" ry="4.1667" style="stroke:#304D6D;stroke-width:1.0416666666666667;" width="176.0417" x="556.25" y="552.6693"/><text fill="#FFFFFF" font-family="Verdana" font-size="12.5" lengthAdjust="spacing" textLength="153.125" x="567.7083" y="576.6947">Pr&#233;visualiser l'infolettre</text><rect fill="url(#g14mejnvgu7db61)" height="38.1083" rx="4.1667" ry="4.1667" style="stroke:#304D6D;stroke-width:1.0416666666666667;" width="390.625" x="448.9583" y="611.6109"/><text fill="#FFFFFF" font-family="Verdana" font-size="12.5" lengthAdjust="spacing" textLength="367.7083" x="460.4167" y="635.6364">V&#233;rifier les informations d'envoi (destinataires, contenu)</text><rect fill="url(#g14mejnvgu7db61)" height="38.1083" rx="4.1667" ry="4.1667" style="stroke:#304D6D;stroke-width:1.0416666666666667;" width="383.3333" x="452.6042" y="729.4942"/><text fill="#FFFFFF" font-family="Verdana" font-size="12.5" lengthAdjust="spacing" textLength="360.4167" x="464.0625" y="753.5197">Envoyer l'infolettre &#224; tous les abonn&#233;s ou s&#233;lectionn&#233;s</text><ellipse cx="644.2708" cy="799.8942" fill="none" rx="11.4583" ry="11.4583" style="stroke:#304D6D;stroke-width:1.0416666666666667;"/><ellipse cx="644.2708" cy="799.8942" fill="none" rx="6.25" ry="6.25" style="stroke:#304D6D;stroke-width:1.0416666666666667;"/><line style="stroke:#3399F3;stroke-width:2.0833333333333335;" x1="442.7083" x2="442.7083" y1="81.5694" y2="811.3525"/><line style="stroke:#3399F3;stroke-width:2.0833333333333335;" x1="843.75" x2="843.75" y1="81.5694" y2="811.3525"/><line style="stroke:#446E9B;stroke-width:3.125;" x1="230.2083" x2="230.2083" y1="133.2194" y2="154.0527"/><polygon fill="#446E9B" points="226.0417,143.6361,230.2083,154.0527,234.375,143.6361,230.2083,147.8027" style="stroke:#446E9B;stroke-width:1.0416666666666667;"/><line style="stroke:#446E9B;stroke-width:3.125;" x1="230.2083" x2="230.2083" y1="192.1611" y2="212.9944"/><polygon fill="#446E9B" points="226.0417,202.5777,230.2083,212.9944,234.375,202.5777,230.2083,206.7444" style="stroke:#446E9B;stroke-width:1.0416666666666667;"/><line style="stroke:#446E9B;stroke-width:3.125;" x1="230.2083" x2="230.2083" y1="251.1027" y2="271.936"/><polygon fill="#446E9B" points="226.0417,261.5194,230.2083,271.936,234.375,261.5194,230.2083,265.686" style="stroke:#446E9B;stroke-width:1.0416666666666667;"/><line style="stroke:#446E9B;stroke-width:3.125;" x1="230.2083" x2="230.2083" y1="310.0444" y2="330.8777"/><polygon fill="#446E9B" points="226.0417,320.461,230.2083,330.8777,234.375,320.461,230.2083,324.6277" style="stroke:#446E9B;stroke-width:1.0416666666666667;"/><line style="stroke:#446E9B;stroke-width:3.125;" x1="230.2083" x2="230.2083" y1="413.9526" y2="434.786"/><polygon fill="#446E9B" points="226.0417,424.3693,230.2083,434.786,234.375,424.3693,230.2083,428.536" style="stroke:#446E9B;stroke-width:1.0416666666666667;"/><line style="stroke:#446E9B;stroke-width:3.125;" x1="230.2083" x2="230.2083" y1="472.8943" y2="493.7276"/><polygon fill="#446E9B" points="226.0417,483.311,230.2083,493.7276,234.375,483.311,230.2083,487.4776" style="stroke:#446E9B;stroke-width:1.0416666666666667;"/><line style="stroke:#446E9B;stroke-width:3.125;" x1="644.2708" x2="644.2708" y1="590.7776" y2="611.6109"/><polygon fill="#446E9B" points="640.1042,601.1943,644.2708,611.6109,648.4375,601.1943,644.2708,605.3609" style="stroke:#446E9B;stroke-width:1.0416666666666667;"/><line style="stroke:#446E9B;stroke-width:3.125;" x1="644.2708" x2="644.2708" y1="767.6025" y2="788.4359"/><polygon fill="#446E9B" points="640.1042,778.0192,644.2708,788.4359,648.4375,778.0192,644.2708,782.1859" style="stroke:#446E9B;stroke-width:1.0416666666666667;"/><line style="stroke:#446E9B;stroke-width:3.125;" x1="230.2083" x2="230.2083" y1="531.8359" y2="537.0443"/><line style="stroke:#446E9B;stroke-width:3.125;" x1="230.2083" x2="644.2708" y1="537.0443" y2="537.0443"/><line style="stroke:#446E9B;stroke-width:3.125;" x1="644.2708" x2="644.2708" y1="537.0443" y2="552.6693"/><polygon fill="#446E9B" points="640.1042,542.2526,644.2708,552.6693,648.4375,542.2526,644.2708,546.4193" style="stroke:#446E9B;stroke-width:1.0416666666666667;"/><line style="stroke:#446E9B;stroke-width:3.125;" x1="644.2708" x2="644.2708" y1="649.7192" y2="654.9276"/><line style="stroke:#446E9B;stroke-width:3.125;" x1="644.2708" x2="230.2083" y1="654.9276" y2="654.9276"/><line style="stroke:#446E9B;stroke-width:3.125;" x1="230.2083" x2="230.2083" y1="654.9276" y2="670.5526"/><polygon fill="#446E9B" points="226.0417,660.1359,230.2083,670.5526,234.375,660.1359,230.2083,664.3026" style="stroke:#446E9B;stroke-width:1.0416666666666667;"/><line style="stroke:#446E9B;stroke-width:3.125;" x1="230.2083" x2="230.2083" y1="708.6609" y2="713.8692"/><line style="stroke:#446E9B;stroke-width:3.125;" x1="230.2083" x2="644.2708" y1="713.8692" y2="713.8692"/><line style="stroke:#446E9B;stroke-width:3.125;" x1="644.2708" x2="644.2708" y1="713.8692" y2="729.4942"/><polygon fill="#446E9B" points="640.1042,719.0776,644.2708,729.4942,648.4375,719.0776,644.2708,723.2442" style="stroke:#446E9B;stroke-width:1.0416666666666667;"/><text fill="#304D6D" font-family="Verdana" font-size="12.5" lengthAdjust="spacing" textLength="39.5833" x="209.375" y="99.3449">Admin</text><text fill="#304D6D" font-family="Verdana" font-size="12.5" lengthAdjust="spacing" textLength="69.7917" x="608.3333" y="99.3449">Wix Studio</text><!--SRC=[ZL9BQiD03DtFATHL4cWluAn2wBuGIDUohJI2yKoOqPWMV87UebkVOovMsMv-BeMk17hI-sZcGOxK4CGJLcInDC9Y2V9d5JWG94V0xk2VB8a4CjscRjXr9We6CSMEeFBEKIKK87_1Ax_3JbBDVcsAJLNblbO04mYMbhJM1AKFDU10mr422gKmjFzSFQ4AQBsneHFRa7l5P_uAqrrvEbCykq1lWuoEsiKTmpb9iKEEhF0OHSYD9gVXgzhH_mn5HQEmGq6zJuIb-1J7FfPwYTn7y0bYxgqUXQVEQZspzQBcMuu9BSUBiulOFlU13qoJt0251WSkrLwGQpt3yix4uzdvwYRMrhi3XsQadvP-nPhVglKVCpV3c_uZu5h_Wpzz0m00]--></g></svg>