<?xml version="1.0" encoding="us-ascii" standalone="no"?><svg xmlns="http://www.w3.org/2000/svg" xmlns:xlink="http://www.w3.org/1999/xlink" contentStyleType="text/css" height="913.5417px" preserveAspectRatio="none" style="width:1685px;height:913px;" version="1.1" viewBox="0 0 1685 913" width="1685.4167px" zoomAndPan="magnify"><defs><linearGradient id="g16emuyfn6m9hu0" x1="50%" x2="50%" y1="0%" y2="100%"><stop offset="0%" stop-color="#B8B8B8"/><stop offset="100%" stop-color="#999999"/></linearGradient><linearGradient id="g16emuyfn6m9hu1" x1="50%" x2="50%" y1="0%" y2="100%"><stop offset="0%" stop-color="#7C9AB9"/><stop offset="100%" stop-color="#304D6D"/></linearGradient><linearGradient id="g16emuyfn6m9hu2" x1="50%" x2="50%" y1="0%" y2="100%"><stop offset="0%" stop-color="#B8B8B8"/><stop offset="100%" stop-color="#6B6B6B"/></linearGradient></defs><g><rect fill="url(#g16emuyfn6m9hu0)" height="48.2361" id="_title" rx="4.1667" ry="4.1667" style="stroke:#6B6B6B;stroke-width:1.0416666666666667;" width="457.2917" x="612.5" y="20.8333"/><text fill="#304D6D" font-family="Verdana" font-size="20.8333" font-weight="bold" lengthAdjust="spacing" textLength="434.375" x="623.9583" y="53.2369">Modifier la biblioth&#232;que de jeux vendus</text><rect fill="url(#g16emuyfn6m9hu0)" height="25.6083" style="stroke:url(#g16emuyfn6m9hu0);stroke-width:1.0416666666666667;" width="1651.0417" x="15.625" y="81.5694"/><ellipse cx="650" cy="122.8027" fill="#3399F3" rx="10.4167" ry="10.4167" style="stroke:#304D6D;stroke-width:1.0416666666666667;"/><rect fill="url(#g16emuyfn6m9hu1)" height="38.1083" rx="4.1667" ry="4.1667" style="stroke:#304D6D;stroke-width:1.0416666666666667;" width="198.9583" x="550.5208" y="154.0527"/><text fill="#FFFFFF" font-family="Verdana" font-size="12.5" lengthAdjust="spacing" textLength="171.875" x="566.1458" y="178.0782">Se connecter &#224; Wix Studio</text><rect fill="url(#g16emuyfn6m9hu1)" height="38.1083" rx="4.1667" ry="4.1667" style="stroke:#304D6D;stroke-width:1.0416666666666667;" width="398.9583" x="450.5208" y="212.9944"/><text fill="#FFFFFF" font-family="Verdana" font-size="12.5" lengthAdjust="spacing" textLength="376.0417" x="461.9792" y="237.0199">Acc&#233;der au tableau de bord administrateur de Wix Studio</text><rect fill="url(#g16emuyfn6m9hu1)" height="38.1083" rx="4.1667" ry="4.1667" style="stroke:#304D6D;stroke-width:1.0416666666666667;" width="397.9167" x="451.0417" y="271.936"/><text fill="#FFFFFF" font-family="Verdana" font-size="12.5" lengthAdjust="spacing" textLength="375" x="462.5" y="295.9615">Acc&#233;der &#224; la section e-commerce ou Gestion des produits</text><rect fill="none" height="301.5462" rx="4.1667" ry="4.1667" style="stroke:#446E9B;stroke-width:1.0416666666666667;" width="1214.5833" x="21.875" y="320.461"/><path d="M134.375,320.461 L134.375,338.7777 L123.9583,349.1943 L21.875,349.1943 " fill="none" style="stroke:#446E9B;stroke-width:1.0416666666666667;"/><text fill="#446E9B" font-family="Verdana" font-size="12.5" lengthAdjust="spacing" textLength="91.6667" x="30.2083" y="339.2782">Choix d'action</text><rect fill="url(#g16emuyfn6m9hu1)" height="38.1083" rx="4.1667" ry="4.1667" style="stroke:#304D6D;stroke-width:1.0416666666666667;" width="426.0417" x="436.9792" y="366.9027"/><text fill="#FFFFFF" font-family="Verdana" font-size="12.5" lengthAdjust="spacing" textLength="403.125" x="448.4375" y="390.9281">Choisir une action : Ajout, Modification ou Suppression de jeu</text><polygon fill="url(#g16emuyfn6m9hu2)" points="206.7708,425.8443,304.6875,425.8443,317.1875,438.6485,304.6875,451.4526,206.7708,451.4526,194.2708,438.6485,206.7708,425.8443" style="stroke:#6B6B6B;stroke-width:1.0416666666666667;"/><text fill="#FFFFFF" font-family="Verdana" font-size="12.5" lengthAdjust="spacing" textLength="21.875" x="265.1042" y="469.2281">Oui</text><text fill="#FFFFFF" font-family="Verdana" font-size="12.5" lengthAdjust="spacing" textLength="87.5" x="211.9792" y="443.6198">Ajout de jeu?</text><rect fill="url(#g16emuyfn6m9hu1)" height="38.1083" rx="4.1667" ry="4.1667" style="stroke:#304D6D;stroke-width:1.0416666666666667;" width="178.125" x="166.6667" y="491.6239"/><text fill="#FFFFFF" font-family="Verdana" font-size="12.5" lengthAdjust="spacing" textLength="155.2083" x="178.125" y="515.6494">Ajouter un nouveau jeu</text><rect fill="url(#g16emuyfn6m9hu1)" height="38.1083" rx="4.1667" ry="4.1667" style="stroke:#304D6D;stroke-width:1.0416666666666667;" width="446.875" x="32.2917" y="550.5656"/><text fill="#FFFFFF" font-family="Verdana" font-size="12.5" lengthAdjust="spacing" textLength="423.9583" x="43.75" y="574.5911">Saisir les informations du jeu (titre, description, prix, image, etc.)</text><polygon fill="url(#g16emuyfn6m9hu2)" points="660.9375,425.8443,801.5625,425.8443,814.0625,438.6485,801.5625,451.4526,660.9375,451.4526,648.4375,438.6485,660.9375,425.8443" style="stroke:#6B6B6B;stroke-width:1.0416666666666667;"/><text fill="#FFFFFF" font-family="Verdana" font-size="12.5" lengthAdjust="spacing" textLength="21.875" x="740.625" y="469.2281">Oui</text><text fill="#FFFFFF" font-family="Verdana" font-size="12.5" lengthAdjust="spacing" textLength="130.2083" x="666.1458" y="443.6198">Modification de jeu?</text><rect fill="url(#g16emuyfn6m9hu1)" height="38.1083" rx="4.1667" ry="4.1667" style="stroke:#304D6D;stroke-width:1.0416666666666667;" width="213.5417" x="624.4792" y="491.6239"/><text fill="#FFFFFF" font-family="Verdana" font-size="12.5" lengthAdjust="spacing" textLength="190.625" x="635.9375" y="515.6494">S&#233;lectionner le jeu &#224; modifier</text><rect fill="url(#g16emuyfn6m9hu1)" height="38.1083" rx="4.1667" ry="4.1667" style="stroke:#304D6D;stroke-width:1.0416666666666667;" width="462.5" x="500" y="550.5656"/><text fill="#FFFFFF" font-family="Verdana" font-size="12.5" lengthAdjust="spacing" textLength="439.5833" x="511.4583" y="574.5911">Modifier les informations du jeu (titre, description, prix, image, etc.)</text><polygon fill="url(#g16emuyfn6m9hu2)" points="1016.6667,425.8443,1161.4583,425.8443,1173.9583,438.6485,1161.4583,451.4526,1016.6667,451.4526,1004.1667,438.6485,1016.6667,425.8443" style="stroke:#6B6B6B;stroke-width:1.0416666666666667;"/><text fill="#FFFFFF" font-family="Verdana" font-size="12.5" lengthAdjust="spacing" textLength="21.875" x="1098.4375" y="469.2281">Oui</text><text fill="#FFFFFF" font-family="Verdana" font-size="12.5" lengthAdjust="spacing" textLength="134.375" x="1021.875" y="443.6198">Suppression de jeu?</text><rect fill="url(#g16emuyfn6m9hu1)" height="38.1083" rx="4.1667" ry="4.1667" style="stroke:#304D6D;stroke-width:1.0416666666666667;" width="227.0833" x="975.5208" y="491.6239"/><text fill="#FFFFFF" font-family="Verdana" font-size="12.5" lengthAdjust="spacing" textLength="204.1667" x="986.9792" y="515.6494">S&#233;lectionner le jeu &#224; supprimer</text><rect fill="url(#g16emuyfn6m9hu1)" height="38.1083" rx="4.1667" ry="4.1667" style="stroke:#304D6D;stroke-width:1.0416666666666667;" width="232.2917" x="972.9167" y="550.5656"/><text fill="#FFFFFF" font-family="Verdana" font-size="12.5" lengthAdjust="spacing" textLength="209.375" x="984.375" y="574.5911">Confirmer la suppression du jeu</text><rect fill="url(#g16emuyfn6m9hu1)" height="38.1083" rx="4.1667" ry="4.1667" style="stroke:#304D6D;stroke-width:1.0416666666666667;" width="539.5833" x="380.2083" y="760.7239"/><text fill="#FFFFFF" font-family="Verdana" font-size="12.5" lengthAdjust="spacing" textLength="516.6667" x="391.6667" y="784.7493">Confirmer l'enregistrement des modifications (ajout, modification, suppression)</text><line style="stroke:#3399F3;stroke-width:2.0833333333333335;" x1="15.625" x2="15.625" y1="81.5694" y2="901.5238"/><rect fill="url(#g16emuyfn6m9hu1)" height="38.1083" rx="4.1667" ry="4.1667" style="stroke:#304D6D;stroke-width:1.0416666666666667;" width="379.1667" x="1261.9792" y="642.8406"/><text fill="#FFFFFF" font-family="Verdana" font-size="12.5" lengthAdjust="spacing" textLength="356.25" x="1273.4375" y="666.866">Pr&#233;visualiser les informations du jeu ajout&#233; ou modifi&#233;</text><rect fill="url(#g16emuyfn6m9hu1)" height="38.1083" rx="4.1667" ry="4.1667" style="stroke:#304D6D;stroke-width:1.0416666666666667;" width="403.125" x="1250" y="701.7822"/><text fill="#FFFFFF" font-family="Verdana" font-size="12.5" lengthAdjust="spacing" textLength="380.2083" x="1261.4583" y="725.8077">V&#233;rifier les informations du jeu (contenu, prix, image, etc.)</text><rect fill="url(#g16emuyfn6m9hu1)" height="38.1083" rx="4.1667" ry="4.1667" style="stroke:#304D6D;stroke-width:1.0416666666666667;" width="409.375" x="1246.875" y="819.6655"/><text fill="#FFFFFF" font-family="Verdana" font-size="12.5" lengthAdjust="spacing" textLength="386.4583" x="1258.3333" y="843.691">Mettre &#224; jour la liste des jeux disponibles sur la plateforme</text><ellipse cx="1451.5625" cy="890.0655" fill="none" rx="11.4583" ry="11.4583" style="stroke:#304D6D;stroke-width:1.0416666666666667;"/><ellipse cx="1451.5625" cy="890.0655" fill="none" rx="6.25" ry="6.25" style="stroke:#304D6D;stroke-width:1.0416666666666667;"/><line style="stroke:#3399F3;stroke-width:2.0833333333333335;" x1="1240.625" x2="1240.625" y1="81.5694" y2="901.5238"/><line style="stroke:#3399F3;stroke-width:2.0833333333333335;" x1="1660.4167" x2="1660.4167" y1="81.5694" y2="901.5238"/><line style="stroke:#446E9B;stroke-width:3.125;" x1="650" x2="650" y1="133.2194" y2="154.0527"/><polygon fill="#446E9B" points="645.8333,143.6361,650,154.0527,654.1667,143.6361,650,147.8027" style="stroke:#446E9B;stroke-width:1.0416666666666667;"/><line style="stroke:#446E9B;stroke-width:3.125;" x1="650" x2="650" y1="192.1611" y2="212.9944"/><polygon fill="#446E9B" points="645.8333,202.5777,650,212.9944,654.1667,202.5777,650,206.7444" style="stroke:#446E9B;stroke-width:1.0416666666666667;"/><line style="stroke:#446E9B;stroke-width:3.125;" x1="650" x2="650" y1="251.1027" y2="271.936"/><polygon fill="#446E9B" points="645.8333,261.5194,650,271.936,654.1667,261.5194,650,265.686" style="stroke:#446E9B;stroke-width:1.0416666666666667;"/><line style="stroke:#446E9B;stroke-width:3.125;" x1="255.7292" x2="255.7292" y1="529.7323" y2="550.5656"/><polygon fill="#446E9B" points="251.5625,540.1489,255.7292,550.5656,259.8958,540.1489,255.7292,544.3156" style="stroke:#446E9B;stroke-width:1.0416666666666667;"/><line style="stroke:#446E9B;stroke-width:3.125;" x1="731.25" x2="731.25" y1="529.7323" y2="550.5656"/><polygon fill="#446E9B" points="727.0833,540.1489,731.25,550.5656,735.4167,540.1489,731.25,544.3156" style="stroke:#446E9B;stroke-width:1.0416666666666667;"/><line style="stroke:#446E9B;stroke-width:3.125;" x1="1089.0625" x2="1089.0625" y1="529.7323" y2="550.5656"/><polygon fill="#446E9B" points="1084.8958,540.1489,1089.0625,550.5656,1093.2292,540.1489,1089.0625,544.3156" style="stroke:#446E9B;stroke-width:1.0416666666666667;"/><line style="stroke:#446E9B;stroke-width:3.125;" x1="255.7292" x2="255.7292" y1="451.4526" y2="491.6239"/><polygon fill="#446E9B" points="251.5625,481.2073,255.7292,491.6239,259.8958,481.2073,255.7292,485.3739" style="stroke:#446E9B;stroke-width:1.0416666666666667;"/><line style="stroke:#446E9B;stroke-width:3.125;" x1="255.7292" x2="255.7292" y1="588.6739" y2="609.5072"/><polygon fill="#446E9B" points="251.5625,599.0906,255.7292,609.5072,259.8958,599.0906,255.7292,603.2572" style="stroke:#446E9B;stroke-width:1.0416666666666667;"/><line style="stroke:#446E9B;stroke-width:3.125;" x1="731.25" x2="731.25" y1="451.4526" y2="491.6239"/><polygon fill="#446E9B" points="727.0833,481.2073,731.25,491.6239,735.4167,481.2073,731.25,485.3739" style="stroke:#446E9B;stroke-width:1.0416666666666667;"/><line style="stroke:#446E9B;stroke-width:3.125;" x1="731.25" x2="731.25" y1="588.6739" y2="609.5072"/><polygon fill="#446E9B" points="727.0833,599.0906,731.25,609.5072,735.4167,599.0906,731.25,603.2572" style="stroke:#446E9B;stroke-width:1.0416666666666667;"/><line style="stroke:#446E9B;stroke-width:3.125;" x1="1089.0625" x2="1089.0625" y1="451.4526" y2="491.6239"/><polygon fill="#446E9B" points="1084.8958,481.2073,1089.0625,491.6239,1093.2292,481.2073,1089.0625,485.3739" style="stroke:#446E9B;stroke-width:1.0416666666666667;"/><line style="stroke:#446E9B;stroke-width:3.125;" x1="1089.0625" x2="1089.0625" y1="588.6739" y2="609.5072"/><polygon fill="#446E9B" points="1084.8958,599.0906,1089.0625,609.5072,1093.2292,599.0906,1089.0625,603.2572" style="stroke:#446E9B;stroke-width:1.0416666666666667;"/><line style="stroke:#446E9B;stroke-width:3.125;" x1="317.1875" x2="648.4375" y1="438.6485" y2="438.6485"/><polygon fill="#446E9B" points="638.0208,434.4818,648.4375,438.6485,638.0208,442.8151,642.1875,438.6485" style="stroke:#446E9B;stroke-width:1.0416666666666667;"/><line style="stroke:#446E9B;stroke-width:3.125;" x1="814.0625" x2="1004.1667" y1="438.6485" y2="438.6485"/><polygon fill="#446E9B" points="993.75,434.4818,1004.1667,438.6485,993.75,442.8151,997.9167,438.6485" style="stroke:#446E9B;stroke-width:1.0416666666666667;"/><line style="stroke:#446E9B;stroke-width:3.125;" x1="650" x2="650" y1="405.011" y2="410.2193"/><line style="stroke:#446E9B;stroke-width:3.125;" x1="650" x2="255.7292" y1="410.2193" y2="410.2193"/><line style="stroke:#446E9B;stroke-width:3.125;" x1="255.7292" x2="255.7292" y1="410.2193" y2="425.8443"/><polygon fill="#446E9B" points="251.5625,415.4277,255.7292,425.8443,259.8958,415.4277,255.7292,419.5943" style="stroke:#446E9B;stroke-width:1.0416666666666667;"/><line style="stroke:#446E9B;stroke-width:3.125;" x1="1173.9583" x2="1219.7917" y1="438.6485" y2="438.6485"/><line style="stroke:#446E9B;stroke-width:3.125;" x1="1219.7917" x2="1219.7917" y1="438.6485" y2="534.9406"/><line style="stroke:#446E9B;stroke-width:3.125;" x1="1219.7917" x2="1219.7917" y1="534.9406" y2="609.5072"/><polygon fill="#446E9B" points="1215.625,599.0906,1219.7917,609.5072,1223.9583,599.0906,1219.7917,603.2572" style="stroke:#446E9B;stroke-width:1.0416666666666667;"/><line style="stroke:#446E9B;stroke-width:3.125;" x1="255.7292" x2="1219.7917" y1="609.5072" y2="609.5072"/><line style="stroke:#446E9B;stroke-width:3.125;" x1="650" x2="650" y1="310.0444" y2="366.9027"/><polygon fill="#446E9B" points="645.8333,356.486,650,366.9027,654.1667,356.486,650,360.6527" style="stroke:#446E9B;stroke-width:1.0416666666666667;"/><line style="stroke:#446E9B;stroke-width:3.125;" x1="1451.5625" x2="1451.5625" y1="680.9489" y2="701.7822"/><polygon fill="#446E9B" points="1447.3958,691.3656,1451.5625,701.7822,1455.7292,691.3656,1451.5625,695.5322" style="stroke:#446E9B;stroke-width:1.0416666666666667;"/><line style="stroke:#446E9B;stroke-width:3.125;" x1="1451.5625" x2="1451.5625" y1="857.7738" y2="878.6072"/><polygon fill="#446E9B" points="1447.3958,868.1905,1451.5625,878.6072,1455.7292,868.1905,1451.5625,872.3572" style="stroke:#446E9B;stroke-width:1.0416666666666667;"/><line style="stroke:#446E9B;stroke-width:3.125;" x1="650" x2="650" y1="609.5072" y2="627.2156"/><line style="stroke:#446E9B;stroke-width:3.125;" x1="650" x2="1451.5625" y1="627.2156" y2="627.2156"/><line style="stroke:#446E9B;stroke-width:3.125;" x1="1451.5625" x2="1451.5625" y1="627.2156" y2="642.8406"/><polygon fill="#446E9B" points="1447.3958,632.4239,1451.5625,642.8406,1455.7292,632.4239,1451.5625,636.5906" style="stroke:#446E9B;stroke-width:1.0416666666666667;"/><line style="stroke:#446E9B;stroke-width:3.125;" x1="1451.5625" x2="1451.5625" y1="739.8905" y2="745.0989"/><line style="stroke:#446E9B;stroke-width:3.125;" x1="1451.5625" x2="650" y1="745.0989" y2="745.0989"/><line style="stroke:#446E9B;stroke-width:3.125;" x1="650" x2="650" y1="745.0989" y2="760.7239"/><polygon fill="#446E9B" points="645.8333,750.3072,650,760.7239,654.1667,750.3072,650,754.4739" style="stroke:#446E9B;stroke-width:1.0416666666666667;"/><line style="stroke:#446E9B;stroke-width:3.125;" x1="650" x2="650" y1="798.8322" y2="804.0405"/><line style="stroke:#446E9B;stroke-width:3.125;" x1="650" x2="1451.5625" y1="804.0405" y2="804.0405"/><line style="stroke:#446E9B;stroke-width:3.125;" x1="1451.5625" x2="1451.5625" y1="804.0405" y2="819.6655"/><polygon fill="#446E9B" points="1447.3958,809.2489,1451.5625,819.6655,1455.7292,809.2489,1451.5625,813.4155" style="stroke:#446E9B;stroke-width:1.0416666666666667;"/><text fill="#304D6D" font-family="Verdana" font-size="12.5" lengthAdjust="spacing" textLength="39.5833" x="608.3333" y="99.3449">Admin</text><text fill="#304D6D" font-family="Verdana" font-size="12.5" lengthAdjust="spacing" textLength="69.7917" x="1415.625" y="99.3449">Wix Studio</text><!--SRC=[hLFBZjGm4BpxAvhJpaY13yWSq6WFd5OWHOApOtTsUkL7y6Eq4iE_S2JVaH-ZxOJPh5X0I9mYTQUhgyhLhz89BK8SfK8ZUv4e6OGxhsaW360azDGRykaqV_-S4JJ20sOuezDPN8xQahk8c6H8eeKEGNddK2KUdR_19tg4BcLD_Y3QerBpfBaXCoJP6-Gle_K-Q905Xs8ACc4EfVpoA6CoeyWBo3l0ryfRYq4X-0plCDQgnWXZy3fJYeShnP4PKktVdZnZwnkvW7mH06sfHGgG7S9QR-7uu7DgLY-Kh5NUq-Ln31ZZigkuSM086c1N1zRQspsmimvsxpFjkSzBQXlB4d0-dul-TPYRdQm439CdD_XWwxu8klu4EoOVi2dYLA2nz1fMIOyDa9NttC6atkmB69g8XSqpthybrSsJMUnqvRcNrsMRxPg0bTvJ8FuVmL-D_0T-iGoJlHAyzMwWO9V8nYtorMMEB0tYgxWyPUiYsWzXdiuKipGK_w1FbiURfnA0nPfvuc1-dAVm5r_u81Aw_B8PFzEvfN-3Bk1zEGO-J9TgdktcBIFiv9BCRRNPYYx8pqJUOMAuuXjFLejORSAApIpv72YEtl6bSo4kVuo6Zx48mWCVk1z_0000]--></g></svg>